<?xml version="1.0" encoding="UTF-8"?><svg id="_レイヤー_2" xmlns="http://www.w3.org/2000/svg" xmlns:xlink="http://www.w3.org/1999/xlink" viewBox="0 0 753 324"><defs><style>.cls-1{fill:#fff;}.cls-2{filter:url(#drop-shadow-1);}.cls-2,.cls-3{fill:none;}</style><filter id="drop-shadow-1" filterUnits="userSpaceOnUse"><feOffset dx="0" dy="0"/><feGaussianBlur result="blur" stdDeviation="6.21"/><feFlood flood-color="#231815" flood-opacity=".6"/><feComposite in2="blur" operator="in"/><feComposite in="SourceGraphic"/></filter></defs><g id="_レイヤー_4"><path class="cls-1" d="m156.77,220c-28.61-12.12-48.76-34.31-56.79-51.39h-.88c-18.25,27.59-50.22,55.33-71.53,60.87l-.58-.88c24.96-17.52,42.33-34.6,59.56-63.21,3.36-5.4,3.5-6.72,3.94-9.2l13.72,7.45c.73.44,1.17.88,1.17,1.9,0,.73-.58,2.04-3.07,2.63,13.87,19.71,41.6,36.35,66.42,38.54v1.17c-1.61.88-8.76,4.96-11.97,12.12Zm.29,64.09H57.65c-1.46,0-10.51,0-17.23,1.31l-2.92-5.84c10.07.88,21.17,1.02,22.48,1.02h31.53v-28.17h-21.31c-3.65,0-10.66,0-17.23,1.31l-2.92-5.84c9.05.73,18.1,1.02,22.48,1.02h18.98v-26.28h-13.28c-3.65,0-10.66.15-17.23,1.31l-2.77-5.84c9.93.88,20.29,1.02,22.33,1.02h36.93l5.69-7.15c.88-1.02,1.46-1.61,2.04-1.61.88,0,1.46.29,2.48,1.17l9.63,7.3c.44.29,1.46,1.17,1.46,2.19,0,1.46-1.31,1.61-2.19,1.61h-34.89v26.28h21.75l5.25-6.86c.58-.88,1.46-1.75,2.19-1.75.58,0,1.17.15,2.77,1.46l8.61,6.86c.73.58,1.46,1.17,1.46,2.19,0,1.31-1.17,1.61-2.19,1.61h-39.85v28.17h35.62l7.01-7.88c.44-.44,1.17-1.31,1.9-1.31s1.46.73,2.63,1.61l8.91,7.3c.73.58,1.46,1.31,1.46,2.19,0,1.46-1.31,1.61-2.19,1.61Z"/><path class="cls-1" d="m723.92,190.86h-64.76c.09,2.27-.64,5.46-5.28,5.46-2.27,0-2.46-1.18-2.46-2.18,0-.36.36-7.64.45-9.1.55-11.73.82-50.12.82-50.94,0-10.91-.27-13.64-1.18-18.28l9.28,4.64h48.84l3.82-4.37c.55-.55.91-1.09,1.37-1.09s1,.45,1.73,1l5.28,4.28c.46.36.91.82.91,1.36,0,.91-.82,1-1.46,1h-61.85c0,5.09-.36,27.47-.36,32.02,0,10.46,0,29.29.09,34.02h52.3l4.18-4.73c.64-.73,1-1.09,1.46-1.09.36,0,1.09.45,1.64.91l5.73,4.73c.36.36.91.82.91,1.36,0,.91-.82,1-1.46,1Zm-14.64-55.39c-4.91,8.28-9.19,14.46-13.1,19.28,6.18,5.37,14.55,13.64,14.55,19.74,0,2.36-1.64,3.73-3.55,3.73-2.46,0-3.37-1.73-5.09-4.91-2.18-4.18-5.46-9-9.64-14.01-14.37,16.46-24.47,20.56-29.38,22.47l-.27-.73c11.19-7.55,22.56-21.92,25.74-26.01-7.28-7.73-14.74-13.28-20.83-17.74l.36-.64c11.46,4.37,21.1,12.19,23.56,14.19,5.55-7.55,11.28-16.46,11.92-24.1l8.1,5.55c.36.27.91.73.91,1.36,0,1.46-1.55,1.64-3.27,1.82Z"/><path class="cls-1" d="m724.64,213.87h-35.66v13.1h8.73l1.82-2.27c.36-.45.73-.82,1.09-.82s.73.27,1.36.82l3.82,3.18c.45.36.91.82.91,1.36,0,.73-1.18,1.55-2.73,2.73,0,3.09,0,6.46.09,15.28,0,2.73.36,16.01.36,18.92,0,3.73-3.09,4.37-4.09,4.37-2.09,0-2.55-1.36-2.55-2.55,0-.91.09-1.55.18-2.36h-23.92c.09,1.55.36,5.82-4,5.82-2.64,0-2.64-1.82-2.64-2.91,0-.73.18-4.28.18-5.09.09-2.18.27-13.64.27-24.1,0-5.73,0-12.01-.82-15.92l7.82,3.55h8.37v-13.1h-24.38c-.73,0-6.46,0-10.73.82l-1.82-3.55c4.73.36,9.37.55,14.01.55h52.12l3.64-4.46c.54-.64,1-1.09,1.46-1.09s.91.45,1.73,1l5.82,4.37c.46.36.91.91.91,1.36,0,1-.82,1-1.36,1Zm-5.55,16.19c-.09,12.28-.09,36.38.73,50.66,0,.73.09,1.27.09,1.55,0,4.91-4,4.91-4.46,4.91-2.46,0-2.82-1.55-2.82-2.64,0-.64.09-3.73.09-4.37h-53.3c.09,3.18.18,6.73-4.28,6.73-2.82,0-2.82-2-2.82-2.82,0-.27.18-2.82.18-3.18.09-1.46.46-26.83.46-34.29,0-16.46-.36-19.83-1.55-23.65l9.55,2.64c.64.18,1.09.55,1.09,1.46,0,1-.64,1.36-2.73,2.64,0,3.18-.09,9.19-.09,17.55,0,3.64,0,5.18.09,19.01,0,1.64.09,10.1.09,11.73h53.3c.09-28.29.18-43.48-.36-50.21-.18-2.09-.73-3.27-1.18-4.55l9.28,2.46c.82.18,1.36.55,1.36,1.27,0,1.18-1.55,2.36-2.73,3.09Zm-35.84-.91h-9.19v15.55h9.19v-15.55Zm0,17.74h-9.19v16.55h9.19v-16.55Zm14.83-17.74h-9.1v15.55h9.1v-15.55Zm0,17.74h-9.1v16.55h9.1v-16.55Z"/><g class="cls-2"><path class="cls-1" d="m179.01,65.16l58.86-28.71h5.89v204.21c0,13.55.56,22,1.69,25.33,1.13,3.33,3.48,5.89,7.04,7.67,3.57,1.78,10.82,2.8,21.76,3.03v6.6h-90.96v-6.6c11.42-.24,18.79-1.22,22.12-2.94,3.33-1.72,5.65-4.04,6.96-6.96,1.31-2.91,1.96-11.62,1.96-26.13V110.1c0-17.6-.6-28.89-1.78-33.89-.83-3.8-2.35-6.6-4.55-8.38-2.2-1.78-4.85-2.68-7.94-2.68-4.4,0-10.52,1.84-18.37,5.53l-2.68-5.53Z"/><path class="cls-1" d="m301.57,163.78c0-27.58,4.16-51.33,12.48-71.25,8.32-19.91,19.38-34.75,33.17-44.5,10.7-7.73,21.76-11.59,33.17-11.59,18.55,0,35.19,9.45,49.94,28.36,18.43,23.43,27.64,55.17,27.64,95.24,0,28.06-4.04,51.9-12.13,71.52-8.09,19.62-18.4,33.86-30.94,42.71-12.55,8.86-24.64,13.29-36.29,13.29-23.07,0-42.27-13.61-57.61-40.84-12.96-22.95-19.44-50.59-19.44-82.93Zm34.96,4.46c0,33.29,4.1,60.46,12.31,81.51,6.78,17.72,16.88,26.57,30.32,26.57,6.42,0,13.08-2.88,19.97-8.65,6.89-5.77,12.13-15.43,15.7-28.98,5.47-20.45,8.2-49.28,8.2-86.5,0-27.58-2.85-50.59-8.56-69.02-4.28-13.67-9.81-23.36-16.59-29.07-4.88-3.92-10.76-5.89-17.66-5.89-8.09,0-15.28,3.63-21.58,10.88-8.56,9.87-14.39,25.39-17.48,46.55-3.09,21.17-4.64,42.03-4.64,62.6Z"/><path class="cls-1" d="m532.62,161.46c-19.15-15.69-31.48-28.3-37.01-37.81-5.53-9.51-8.29-19.38-8.29-29.61,0-15.69,6.06-29.22,18.19-40.57,12.13-11.35,28.24-17.03,48.33-17.03s35.19,5.29,47.08,15.87c11.89,10.58,17.83,22.65,17.83,36.21,0,9.04-3.21,18.25-9.63,27.64-6.42,9.39-19.8,20.45-40.13,33.17,20.93,16.17,34.78,28.89,41.56,38.17,9.04,12.13,13.55,24.91,13.55,38.35,0,17-6.48,31.54-19.44,43.61-12.96,12.07-29.96,18.1-51.01,18.1-22.95,0-40.84-7.19-53.68-21.58-10.23-11.53-15.34-24.14-15.34-37.81,0-10.7,3.59-21.31,10.79-31.84,7.19-10.52,19.59-22.14,37.19-34.87Zm8.38,6.78c-9.87,8.32-17.18,17.39-21.94,27.2-4.76,9.81-7.13,20.42-7.13,31.84,0,15.34,4.19,27.62,12.57,36.83,8.38,9.22,19.05,13.82,32.01,13.82s23.12-3.63,30.85-10.88c7.73-7.25,11.59-16.05,11.59-26.4,0-8.56-2.26-16.23-6.78-23.01-8.44-12.6-25.5-29.07-51.19-49.4Zm19.62-25.86c14.27-12.84,23.3-22.98,27.11-30.41,3.8-7.43,5.71-15.84,5.71-25.24,0-12.48-3.51-22.26-10.52-29.34-7.02-7.07-16.59-10.61-28.71-10.61s-22,3.51-29.61,10.52c-7.61,7.02-11.41,15.22-11.41,24.61,0,6.18,1.57,12.37,4.73,18.55,3.15,6.18,7.64,12.07,13.46,17.66l29.25,24.26Z"/></g><rect class="cls-3" width="753" height="324"/></g></svg>