<?xml version="1.0" encoding="UTF-8"?><svg id="_レイヤー_2" xmlns="http://www.w3.org/2000/svg" viewBox="0 0 642.37 132.75"><defs><style>.cls-1{fill:#231815;stroke:#231815;stroke-linecap:round;stroke-linejoin:round;}</style></defs><g id="_レイヤー_4"><path class="cls-1" d="m19.08,35.08l.17-.11,1.02-.81.08-.1c.14-.07.25-.16.33-.25l.24-.2.25-.11.6-.59.08-.1.13-.06.15-.23.25-.16.2-.2.25-.16.33-.25.03-.14.33-.21.64-.24.44-.44.26-.07.25-.11v-.09s.04,0,.04,0v.09s.18-.02.18-.02l.05.04.21-.15,2.54-1.49.08-.1-.25.11v-.13s.23-.2.23-.2l.26-.03.02.17.66-.46.49-.36.12-.15.41-.31,1.07-.33.71-.42.39-.08.21-.15.13-.06v-.09s.03,0,.03,0v.09c.12-.07.51-.26,1.19-.56v-.09s.14-.28.14-.28l.39-.04.56-.14c1.07-.49,2.16-.97,3.29-1.44l.66-.46.9-.27,1.73-.75,1.19-.47.56-.1.81-.26.96-.1.51-.14.69-.16.44-.04c.98-.22,2-.41,3.07-.58l.3-.07.12-.14.05.04.27.06.83-.08.08-.05h.04s.17-.07.17-.07l.47-.13h.75s.04,0,.04,0l.22.02.78-.17h.31s.18.04.18.04l.17-.06.04-.05h.09s-.07.13-.07.13h.13c.99-.06,1.92.06,2.77.32l.14.03.25-.11.13.03.21.29.28.15.66.46.62.51.07.3v.13c.26.42.42.83.49,1.23l.28.59.04.39c-.13.19-.2.24-.2.15l-.16.19-.17.11c-.01.15-.1.35-.25.6l-.04.05.1.52-.2.59-.56,1.03-.92.53-.26.07-.06-.13-.05-.48.15-.28s-.02-.04-.05-.04h-.04s-.12.11-.12.11l-.17.1h-.13s-.04.05-.04.02l-.13-.03-.2-.24-.03-.31.08-.54.3-.56v-.31s.47-.27.47-.27l.11-.19.21-.15-.02-.17.1-.32-.07-.21.06-.27.25-.11h.09s0-.1,0-.1l-.15-.16-.19-.11-.1-.08v-.09s-.06-.08-.06-.08l.02-.27-.05-.48-.05-.04-.14-.07-.21-.33-.33-.19-.2-.2-.02-.17-.18-.07c-.64-.2-1.44-.28-2.4-.24h-.13s-.17.12-.17.12l-.69.11-.22.02-.58-.12-.09-.04c-.82.05-1.89.15-3.23.28h-.04s-1.41.46-1.41.46l-.48.09-.42.17-1.6.34-1.49.55-.69.11-1.03.28-.35.04-.89.31-.34.12-1.37.36-.34.17-.41.26-.62.02-.65.11s-.08.05-.17.06l-1.73.75c-.42.19-1.33.68-2.72,1.47l-.04.05-.58.37-.3.07h-.04s-1.12.65-1.12.65l-.08.1v.13s-.12.01-.12.01v-.13s-2.67,1.68-2.67,1.68l-1.1.86-.46.27-.45.31-1.49.99-1.43,1.11-.58.32-.9.71-.42.22-.69.55-.42.18-1.14.91-.36.39-.35.43-.59.28-.04.05-2.18,1.98-.11.19-.16.19-.72.69-.32.34-.33.25-.08.1-.48.49-.11.23-.88.84-.16.19c-.42.45-.79.87-1.11,1.26l-.22.42-.37.26c-1.1,1.35-1.93,2.42-2.5,3.21l-.39.52-.98,1.64-.19.28-.2.24-.57.94-.76,1.22-.41.75-.53.89-.18.37-.53.89c-.43.98-.73,1.79-.9,2.43l-.18.85-.11.23-.1.32-.04.05-.12.98v.44s-.03.18-.03.18l.03.26-.07.62.08.83.07.21.04.44.13.38.03.26c.16.45.3.78.41.97l.1.08.11.25v.04s.25.24.25.24l.26.41v.09s.31.32.31.32l.18.07.5.61c.06,0,.09.02.1.08h.4s.11.17.11.17h.13s.07.2.07.2l.15.21.05.04.28.15.22.02.51-.19.19.11.18.03.14.12.26.41.24.19.26-.07.63.16.15.2.1.12.09.03,1.08.2.34-.17.79-.04.28.19.2.2,2.91-.03.34-.08h.04s.84,0,.84,0l1.19-.03.7-.07.49.04.05.04.17-.02.22.02.61-.06,3.07-.53.17-.06.26-.03c.17-.05.4-.08.69-.11l.41-.26.73-.16.25-.11.67.11.23.06.26-.03c.46-.1,1.8-.46,4.03-1.07l.34-.17.56-.14.42-.22,1.67-.52,1.65-.7.6-.19,1.53-.51.8-.39.44-.04,1.31-.57.49-.4.95-.23.26-.07.43-.13,1.7-.61.11-.19,1.15-.42.3-.12.12-.14.22.02.71-.34.42-.22.38-.17.35-.08.42-.22h.04s.21-.11.21-.11l1.14-.51.5-.31.3-.12.25-.16.55-.19,3.27-1.61.54-.32.47-.18.04-.05,2.01-1,.12-.1.58-.32.12-.1.04-.05.26-.03.25-.2.08-.05.26-.03.07.21.02.22-.12.14-.35.04-.59.28-.2.24-1.09.55-.04.05-.34.17-1.22.61v.04s-.12.1-.12.1l-.45.35-.55.28-.38.21h-.13s-.54.29-.54.29l-.17.06-.46.27-.08.1h-.04c-.58.36-.91.55-1,.59l-.29.16-.36.35-.34.12-2.86,1.35-.12.1-1.14.51-.31.03-1.14.51-.17.1c-.06,0-.12.03-.17.06l-.5.27-.47.18-.16.19-.42.22-.87.13-2.37.95h-.04c-.11.05-.32.13-.62.24-.3.12-.52.2-.66.24l-.24.2-.13-.03-.51.18h-.13s-.04.02-.04.04c0,.01-.01.02-.04.03l-.18.02-.04.05-.59.24-.55.23-.93.4-.14-.07h-.04s-.12.15-.12.15l-.48.09-.25.16-.43.13-.11.23-.15.24-.18-.07-.34.08-.48.09-.43.09-1,.1-1.33.4v.13s-.24.11-.24.11l-.23-.07v-.04c-.12.01-.22.04-.3.07h-.04s-.69.16-.69.16l-.21.11-.25.16-.42.22-1.14.07-.73.21-.22-.02-.47.09.06.17-.92.09c-.09,0-.14.03-.17.06l-.29.16h-.4s-.99.23-.99.23l-.04.05h-.04s-2.59.53-2.59.53h-.04s-.3.12-.3.12l-.8.35-.82.13-.51.14-.24-.15-.22.02h-.97s-.52-.29-.52-.29l-.31.03-1.38-.17-.33-.14-.71-.1-.43.09-.51-.21-.32-.14s-.07,0-.13.01l-.05-.04-.44.04-.27-.06-.17.02-.02.22-.48.05-.07.18-.49-.04-.1-.08-.31-.06-.18-.03-.09-.04-.12.06-.59-.16-.57-.38-.37-.18-.02-.17h.04s-.56-.3-.56-.3l-.08.05-.26-.41-.21-.38-.02-.22-.49-.52-.02-.17h.04s-.34-.32-.34-.32l-.1-.08-.16-.29v-.04s-.15-.12-.15-.12l-.14-.07-.06-.17-.05-.08c-.17-.22-.36-.55-.59-1l-.16-.25-.07-.26-.24-.59-.05-.08.03-.58c-.29-1.97-.46-3.04-.5-3.21l-.02-.17-.08-.35.03-.14c0-.29.08-.77.25-1.44v-.04s.03-.14.03-.14l.05-.36.22-.42c.52-1.26.81-2.04.86-2.34.11-.39.19-.64.24-.73l.03-.14.47-1.06.07-.18,1.04-1.91.78-1.05.85-1.14,1.3-1.98.15-.24.74-.96.45-.35.63-.77.3-.52.03-.18.16-.19.45-.4.31-.43.95-1.02.99-1.07.38-.21.84-.83v-.09s.03-.09.03-.09l.25-.11.12-.1-.03-.3.12-.1.38-.17.89-.8.77-.69.16-.19.45-.35.2-.24.61-.5.72-.69.7-.47.61-.55.04-.05Z"/><path class="cls-1" d="m80.66,48.18l-.23.73.03.31-.15.28-.04.05-.06.31.05.08-.11.23c-.02.12-.01.29,0,.53l.07.26.15.16.2.2.23.11.23.06c.09,0,.24-.05.47-.14l.33-.17.08-.1h.13s1.49-1,1.49-1l.17-.06.21-.11,1.46-1.21h.04s.08-.06.08-.06l.81-.7.11-.19.17-.02.24-.25.5-.31.61-.55.12-.14.41-.31.04-.05.64-.68s.07-.05.13-.06l.08-.1.17-.1.2.2.02.17-.12.1-.37.26-.57.46-.16.19-.48.45c-.4.42-.88.88-1.45,1.38l-.36.39h-.13s-.2.21-.2.21l-.11.19-.08.05-.11.23-.24.2-.17.1-.24.25-.12.14-.41.31-.16.19-.25.11-.34.12-.08.1-.41.26-.65.59-.12.1-.24.25-.12.1h-.09s-.12.11-.12.11l-.33.21-.3.12-.43.09c-.34.15-.52.23-.55.23-.17.02-.29.01-.35,0l-.26.07-.23-.15-.1-.12-.05-.04-.3-.32v.04s-.2-.25-.2-.25l-.04-.83-.04-.79v-.31s-.07-.35-.07-.35l.04-.09.25-.16.07-.18.15-.23.03-.18.23-.33.07-.18.08-.14.03-.53.25-.6c.03-.27.12-.65.26-1.15.14-.5.23-.82.28-.98l.1-.71c.29-.65.39-1.17.32-1.58l.04-.09v-.31s-.23-.2-.23-.2c-.26.03-.64.18-1.14.47l-.62.42-.3.12-.45.31-.32.3-.08.1-.33.21-.28.29-.79.48-.21.11c-.11.07-.28.19-.49.36l-.12.14-2.18,1.5-.19.33-.22.02-.11.23-.16.19-.27.38-.43.13-.63.73-1.28,1.32-1.04,1.08-.97.85-.2.15-.29.21-.24.29v.13s-.26-.06-.26-.06l-.66.42-.45.35-.43.13-.78.12-.16.19-.31.03-.24-.2-.13-.38.03-.58.15-.68.06-.31.29-.65.18-.42.2-.68.04-.09.11-.23.09-.36v-.44s.08-.54.08-.54l.33-.61.11-.67.1-.32.18-.37.26-.47.15-.28.14-.32.61-.94.28-.73.03-.18.04-.05.03-.13.12-.06.45-.75.08-.14.07-.18h.04s.51-1.03.51-1.03l.1-.27.19-.29.26-.47.13-.45.15-.28.43-.53c.24-.49.44-.87.59-1.12l.61-1.38.28-.25c.45-.81,1.14-2.03,2.1-3.65l.11-.19.07-.18.13-.41.32-.34.22-.46.14-.32v-.31s.13-.1.13-.1l.36-.39.19-.33.14-.32.27-.82.18-.41.23-.38.27-.38.31-.82.03-.18.06-.23.12-.14v-.13s.17-.41.17-.41l.04-.05h.04s.11-.24.11-.24l.11-.19.08-.05.04-.09.26-.47.27-.42.15-.28.08-.05-.04.09.04-.05v-.04s.09-.32.09-.32l.03-.18.28-.29.1-.27.11-.19.07-.14.46-.71.18-.42.13-.41.07-.18.06-.27.11-.19-.07-.26.03-.14.34-.12.48-.49.18-.37.56-.59.23-.38.15-.28-.02-.17.16-.15.07.26.31-.43.33-.21.38.31.19.55-.49,1.68-.91,1.5-.35.48-.87,1.01-.45.4-1.57,2.8.05.04-.18.37-.25.55-.18.42-.24.29-.36.39-1.47,2.49.02.17-.33.65-.14.32-.2.2-.23.38-.33.65-.92,1.33v.31s-.6.72-.6.72l-.34.56-.06.27-.53.89-.36.79-.32.34-1.71,3.17c-.44.87-.79,1.52-1.03,1.96l-.03.18-.08.1-.11.19c-.49.93-.85,1.64-1.06,2.14l-.04.09-.08.05-.32.74.04.35-.35.92-.18.81-.4,1.23-.23.82-.04.44-.24.64-.03.62.2.24.18.07.22-.02.54-.36.24-.29.08-.05.11-.19.29-.16.15-.24.24-.24.16-.19.45-.31.17-.1.32-.3,1.27-.97.32-.34.16-.15.23-.29.17-.1.54-.36,1.33-1.19.07-.14.31-.38.66-.42.49-.4.13-.06c.3-.26.74-.63,1.34-1.11l.51-.62.33-.25.11-.19.21-.07.12-.15.32-.3.38-.13.98-.36.17-.02c.73-.34,1.5-.39,2.32-.15.12.05.19.1.19.16l.23.11.37.18.12.25v.35s-.21.59-.21.59l-.04.05c-.14.37-.36,1.07-.67,2.1-.02.09-.18.58-.47,1.46l.04.39-.33.61Z"/><path class="cls-1" d="m103.74,47.64l-.33.21-.4.39-.58.32-.38.13-.21.15-.03.09-.12.1-.54.28-.38.21-.03.09-.12.1-.3.12-.62.42-.25.16-.61.5-.34.17-.25.16-.45.31-.38.21-.25.11-.68.2-.58.37-.51.14-.75.03-.47.18-.85-.09c-.48-.1-.84-.3-1.07-.6l-.19-.16.02-.27c-.1-.43-.1-.83.01-1.19l-.02-.17.22-.9.26-.91.06-.32.25-.55.27-.38.07-.18.24-.25c.1-.19.19-.34.26-.47l.3-.56.1-.32.1-.27.12-.14.09-.45.35-.43.25-.16.15-.28.36-.39.69-1.48.15-.68.42-.66.28-.29.14-.37.16-.15.04-.45-.02-.22.18-.37.28-.25.12-.1h.09s0-.1,0-.1l.27-.34.29-.21c.18-.28.4-.42.66-.42.03,0,.08.02.14.07l.12-.1.03-.09.26-.07h.35s.33.2.33.2l.02.22-.04.49-.26.51-.39.52-.12.14-.16.15h-.09s-.25.12-.25.12l-.67.77-.07.23-.03.09-.55.67-.16.19-.02.27-.36.39-.26.47-.31.38-.07.18-.28.25-.14.32-.08.14-.46.66-.58.81-.26.47-.22.42-.4.88c-.23.32-.36.51-.38.57l-.23.82-.05.36-.27.78-.17.94.03.26-.03.53c.05.17.1.31.17.42v.04s.19.07.19.07l.26-.07h.13s.31,0,.31,0l.25-.11.26-.07.18.07.22-.02.89-.31h.13c.08-.05.21-.1.36-.16.15-.06.28-.11.36-.15l.2-.15.49-.36.37-.26.85-.31.67-.33.38-.13,1.45-.9.07-.18.26-.03.75-.47.04-.05.07-.14.33-.21h.13s.11-.2.11-.2l.25-.11.33-.21.41-.31.37-.26.45-.4.12-.14.49-.36.21-.11.16-.15.86-.62h.13s.28-.26.28-.26l.21-.11.21-.15s.06-.02.08-.05h.04s.2-.24.2-.24l.29-.16.16-.19.29-.21.41-.26.2-.15c.6-.47.98-.76,1.15-.87l.07-.18h.13s.14.02.14.02l.16.25-.11.19-.12.1-.25.16-.07.14-.09-.04h-.04s0,.09,0,.09l-.54.36h-.13s-1.27.98-1.27.98l-.36.35-.36.39-.38.17-.25.16c-.92.77-1.65,1.36-2.2,1.77l-.15.24-.12.1-.51.23-.12.1-.08.1Zm1.57-20.61l-.18.37-.29.65-.15.24-.11.19v.04s-.42.13-.42.13l-.38.13-.34.17-.32.3-.04.05-.17.1-.18.37-.42.18-.28.69-.42.17-.15.24-.27.38v.09s-.44.35-.44.35l-.08-.34.16-.15.04-.09c.02-.06.03-.12.03-.18l.45-.79-.12-.34.24-.68.1-.27.38-.57.27-.38.08-.05.43-.53.15-.24.33-.25.23-.38h.04s.16-.2.16-.2h-.09s.21-.1.21-.1v.09s.28-.34.28-.34l.42-.18.38.31.45.13-.08.49.11.21Z"/><path class="cls-1" d="m120.28,41.64l-.48.45-.95,1.07-.04.05-.54.72-.47.62-.33.21-.94,1.15-.31.43-.17.46-.33.25-.53.85-.03.14-.28.25s0,.06-.03.09l-.1.27-.15.24-.13.06s-.04.06-.04.09l-.04.09-.16.19-.07.14h-.04s-.08.14-.08.14l-.03.14-.07.14v.13s.06.04.06.04h-.09s.04.4.04.4l-.04.44-.07.14-.22.46-.37.3-.26-.02-.1-.08-.04.09-.53-.03-.29-.28-.07-.21.02-.22.03-.13v-.04s.04-.05.04-.05c0-.03,0-.06,0-.09l-.08-.39.03-.14-.02-.22.04-.49.17-.46.19-.72.08-.1v-.13s.64-1.35.64-1.35l.14-.32.11-.19.16-.15.08-.09.4-.88v-.31s.13-.63.13-.63l.44-.44.08-.05,1.37-3,.16-.59-.03-.31.12-.14.15-.24.11-.23h.13s-.02-.23-.02-.23l.42-.62.16-.15.26-.47,1.18-2.28.04-.05.26-.47c.1-.19.33-.64.7-1.35.37-.71.7-1.33,1-1.86l.15-.24.77-1.53.22-.42.21-.55.5-.67.09-.41.39-.52.3-.52.86-1.5.13-.45.51-1.02.13-.5.71-1.26.24-.73,1-1.91.9-1.99.16-.55.33-.61.8-1.67.51-1.07.26-.91.12-.58-.02-.22.06-.31-.02-.22.09-.8-.08-.74.06-.31.26-.95.68-.69.52-.05.05.04.11-.23v-.04c.07-.1.17-.13.27-.09.1.03.17.11.18.22l-.04.45.03.31.17-.11.02.17h-.09s-.07.19-.07.19l-.06.23-.09.45-.3.91-.18,1.3-.25.6-.16.15-.33.61-.17.54-.07.14-.1.32-.12.5c-.05.12-.07.2-.07.23v.09s.05,0,.05,0l.05.08h-.09s-.04.06-.04.06l-.03.14-.02.27-.21.51-.11.67-.19.33-.08.1-.19.28-.05.31-.15.24.08-.05.06.17-.12.14h-.09s0-.03,0-.03l.03-.14-.07.14-.16.19-.03.18-.13.06-.33.69-.07.18-.22.46-.06.31-.46.71-.03.18-.59,1.07-.66,1.34-.37.7-.36.74-.08.1c-.3.5-.51.89-.63,1.17l-.03.14-.19.33-.12.14-.67,1.21-.06.23-.04.05-.08.05c-.05.07-.08.11-.07.14l-.37.74-.23.29-.33.61-.07.18-.06.27-.08.14-.12.14-.14.32-.03.14-.1.27-.13.06-.17.46-.66,1.3-.86,1.06-1.71,3.17-.17.46-.05.31-.04.44-.14.37-.06.27-1.11,1.26-.22.42-1.02,2.57-.4.83-.23.73-.18.37-.13.41-.34.56.02.22-.06.23-.08.54.45-.79.07-.14.42-.62.35-.43.1-.27.11-.19.31-.39.15-.28.73-.6.64-.68.79-.87.15-.28.09-.45.16-.19h.4s.17-.1.17-.1l.82-1.05.28-.25.45-.31.57-.5.4-.35.2-.24.45-.35.07-.14.24-.2.37-.26h.04s1.06-.82,1.06-.82v-.04s.41-.31.41-.31l.33-.25.32-.34.37-.3.17-.1v-.31s.14-.06.14-.06h.31s.34-.11.34-.11l.77-.21h.09s.21-.12.21-.12l.04-.09,1.29-.7.34-.12.26-.03c.62-.24,1.08-.37,1.37-.4l.17-.06,1-.1.1.08c.48.07,1.01.23,1.59.5.12.08.2.2.21.37l-.02.71.07.26-.2.68-.15.72-.21.51-.28.29-.45.75-.03.09-.15.28-.24.24-.08.1-2.01,2.32-.16.19-.12.1-1.44,1.47-.56.58-.21.07-.52.49-.16.19-.4.39-.46.22-.41.35-.24.2-.33.21-.45.31-.12.1-.17.06c-.77.55-1.59,1.03-2.46,1.44l-.08.05h-.04s-.2.2-.2.2l-.17.02-.21.15-.12.1-.21.07-.34.08-.39.08-.42.18-.25.16-.42.22-.47.14-.51.19-.38.17-.05-.08-.35.04h-.31s-.32-.07-.32-.07l-.18-.03-.1-.08h.04s-.32-.06-.32-.06h-.04s-.14-.11-.14-.11l-.15-.16-.11-.21.07-.18.29-.16.51-.18.21-.11.17-.02.14.03.19.16.18.07.32.1.31.06.17-.02.17-.06h.09c.17-.03.32-.06.43-.1l.08-.05.39-.04h.04s.08-.06.08-.06l.51-.18.85-.26.17-.06h.04s.17-.07.17-.07c.17-.08.32-.15.46-.22l.12-.14.46-.22.45-.31.25-.11.59-.28.4-.39.11-.19.08-.09.33-.21.23-.33.16-.19.22-.02.07-.14.21-.15.08-.1.22.02.17-.11.88-.93.29-.21.5-.27.57-.45.04-.05c.5-.52.98-1.05,1.42-1.6.03-.03.2-.23.51-.58.32-.35.59-.68.83-.97l.1-.28.24-.29.15-.24.08-.1.37-.3c.39-.51.66-.92.8-1.23v-.04s.11-.23.11-.23l.07-.14v-.13s.09-.27.09-.27l.06-.23.02-.22-.12-.3-.19-.11-.1-.08v-.09s-.06-.08-.06-.08l.02-.27-.61-.38-.23-.07-.17.06-.14-.07-.31.03c-.54.14-1.17.37-1.87.68l-.21.15-1.09.51-.29.21-.13.06h-.13s-.91.55-.91.55l-.16.15-.17.06-.12.06-.7.47-1.47,1.12-.73.6-.35.43-.19.29-.38.21-.48.45-.69.56-.04.05c-.24.2-.47.43-.68.69l-.35.43Z"/><path class="cls-1" d="m155.84,40.81l.11-.19.03-.09.07-.14.69-1.04.14-.37.12-.15.04-.09.12-.1.47-.62.15-.24v-.09s.04.04.04.04l.09-.45-.05-.04-.22-.02-.39.04-.51.18-1.22.61-.3.12-.21.06-1.18.91h-.04s-.33.26-.33.26l-.29.16-.29.21-.95.58-.95.67-.38.21-.62.42-.21.11-.49.36-.25.11-.74.56-.24.2-.24.25-.38.17-.38.21-.99.67-.08.1-.41.31h-.09s0,.05,0,.05l-.39.04-.5.27-.35.04c-.06.04-.2.11-.42.22l-.16.15-.84.39-.17.06-.63.33-.08.05-.13.06h-.13s-.27,0-.27,0h-.04c-.78.17-1.27.05-1.49-.37-.19-.45-.16-1.1.11-1.95l.12-.54.13-.06.03-.18.15-.28.07-.18.08-.05v.04s.07-.23.07-.23l.26-.47.44-.4.08-.1.29-.6.15-.24.32-.3.48-.49,1.78-1.94v-.04s.04,0,.04,0l.52-.54.12-.15.68-.69.33-.25,1.05-.94.04-.05.47-.62.2-.24.14-.32.08-.05h.31s.12-.09.12-.09l.3-.12.17-.06.21-.07.16-.15v-.09s.33-.17.33-.17l1.33-.84.24-.25.17-.1.34-.12.09.04.08-.05.38-.17h.13s.21-.17.21-.17l.3-.07.25-.11.3-.12.17-.06.45.09.26-.07.26-.03.18.03h.09s0,.03,0,.03l.17-.02.14.07.05.08.18.03.11.21.04.39-.12.1s-.17.22-.43.57c-.11.1-.21.11-.3.03l-.47.18-.3.07-.79.08-.71-.02v.04s-.17.02-.17.02v-.04s-.09,0-.09,0l-.3.08-.31.03-.58.32-.67.38-.96.54-.67.38c-.06.04-.29.22-.69.55-.03.03-.04.03-.04,0l-.36.35-.04.05-.08.05-1.82,1.64-.16.19-.35.48-.27.34-.29.21-.37.26-.12.14-.35.48-.08.1-.08.14-.46.71-.12.1-.08.1-.12.1-.07.18-.11.19h-.09s-.07.24-.07.24l-.15.24-.07.18-.2.24-.19.28-.38.57v.09s.08.26.08.26l-.04.09v.09s-.07.09-.07.09l-.16.15-.11.19-.19.28-.15.28v.09s-.03.09-.03.09l.03.26.1.12.15.21.14.07.88-.44.38-.13.59-.28h.04s.21-.07.21-.07c.36-.18.9-.49,1.63-.91l.2-.15.29-.21.2-.2.35-.04c.78-.46,1.25-.74,1.41-.85l.2-.2.29-.16v-.04s.08-.05.08-.05l.12-.14.17-.06.62-.37.33-.21.29-.21,1.12-.73.28-.25,1.16-.69.25-.11.75-.47.36-.35.75-.47.2-.2.33-.25.2-.2.49-.4.53-.41,1.32-.44.52-.05.4.05.32.14.19.11c.15.01.28.1.38.27v.04s.09.04.09.04l.02.17-.03.14h.09s-.03.08-.03.08l-.05-.04-.08.1-.07.14-.07.18-.24.25c-.02.06-.09.16-.19.28l-.26.51-.24.25-.13.06-.46.66-.08.1v.04s-.08.05-.08.05l-.23.38-.08.14-.07.18-.3.52s-.07.14-.14.32l-.1.36-.04.05c-.07.21-.08.36-.04.45v.09s.08,0,.14-.01h.04s.06.03.09.03l.21-.07.31-.03.08-.05.31-.03.21-.07.09.03c.09,0,.18-.03.28-.07.1-.04.21-.08.34-.12.13-.04.23-.08.32-.12l.34-.12.29-.16.26-.03,1.48-.59.12-.1.47-.18v.04s.55-.23.55-.23l.33-.21.17-.06.16-.15,1.4-.54v-.09s.13.07.13.07l.38-.17.12-.14,2.03-.82.22-.02,1.06-.46c.06,0,.1,0,.14.03h.09s.08.29.08.29l-.16.15-.35.04-.72.25-.5.31-.17.02-.68.25-.33.17-.95.58-.71.38-.8.35-.92.45-.17.1-.42.22-.21.15-.34.17h-.04s-.29.17-.29.17l-.33.25-.13.06-.08.09-1.09.51v.09s-.04-.04-.04-.04l-.34.17-.04.09-.71.34-.63.29-.2.2-.04.05-.05-.08-.13.06-.08.1-.09-.04-.04.05-.3.12-.48.05-.09-.03-.31.03-.23-.07-.18-.07-.15-.16.02-.22-.06-.17c-.05-.17-.05-.36-.01-.57l.1-.32.03-.18.27-.42.11-.23.3-.47Z"/><path class="cls-1" d="m196.07,33.77l-.33.25c-.19.17-.46.43-.8.79-.34.36-.53.56-.56.59l-.08.1-.28.29-.19.33-.11.23-.21.07-.03.18-.21.15-.03.14-.17.02-.66.9v.09s-.07.1-.07.1l-.14.37-.11.19-.11.23c-.14.4-.12.7.05.92l.15.16.23.11.27.06.05.04c.27.06.75.03,1.44-.1l.55-.28.34-.08.57-.06.68-.24.35-.04.38-.17.08-.05,1.1-.42.17-.02.67-.29.29-.16.38-.21.24-.25,1.02-.32.34-.17.2-.2.8-.35c.37-.15.86-.37,1.48-.64.62-.27,1.04-.46,1.27-.57l1.3-.66h.13s.25-.13.25-.13l.3-.12,1.09-.51.51-.14c.9-.39,1.43-.63,1.6-.74l1.22-.61v-.09s.08.03.08.03c.06,0,.14-.04.25-.11l.25-.16.04-.09,1.72-.88c.19-.11.85-.54,1.98-1.3l.12-.14.13-.06.26-.03.15.2-.12.14-.48.49-.46.22c-1.23.92-2.33,1.63-3.31,2.14v.13s-.07.1-.07.1l-.35.04-.63.29-.46.27-.17.02-.38.17-1.05.55-.04.05h-.09s-1.12.65-1.12.65l-.72.34h-.04s-.17.11-.17.11l-.21.15-.46.22-.13.06-.21.07-.26.07-.46.22-1.35.62-.38.21-.17.02-1.41.85-1.94.81-1.39.63-1.09.55-1.21.65-.76.3-.99.19-.31.03-.12.1-.8-.05-.82-.23h-.09s-.68-.14-.68-.14l-.24-.2-.02-.22-.11-.21-.07-.26.06-.23c-.03-.32-.04-.57-.03-.75l-.1-.08v-.13s-.07-.08-.07-.08l.13-.06-.03-.26h-.04s0-.04,0-.04h.09s.03-.14.03-.14v-.13s.02-.05.02-.05v-.04s.05-.31.05-.31l.31-.43.07-.18.08-.05v.04s.15-.28.15-.28v-.04s.16-.15.16-.15l.08-.05.35-.48.07-.14.31-.38.22-.42.12-.1.31-.38.25-.11.08-.1.11-.23.2-.2.34-.12c.13-.13.46-.41.97-.85l.03-.09.08-.05.27-.34.13-.06c.11-.07.27-.2.49-.4l.23-.29.3-.12.16-.15h.04s1.97-1.48,1.97-1.48l.28-.29.91-.58.33-.25,1.03-.68.08-.05,1.16-.69.29-.21.37-.26.31-.38.21-.15.52-.05.16-.19.13-.06.04-.09.03-.14.12-.06.04-.09.04-.05.21-.11v-.04s.03-.09.03-.09l.05.08h.13s.13-.07.13-.07h.09s.3-.08.3-.08l.52-.05.05.08.5-.32.7-.07.15.16c.09,0,.13.02.14.07l.25.24v.31s.28.24.28.24l.07.26.02.22-.31.43-.49.4h-.13s-.63-.1-.63-.1l-.6-.29-.3.12-.09.41-.24.25-.33-.23-.06-.17-.68.24-1.2.78-.51.18-.45.31-.3.07-.95.67-.22.02-.2.24-.26.03-.5.27-.82.57-.11.19-.1-.08-.58.37-.12.06-.45.35-.23.33-.29.21-.42.26-.08.1-.52.49-.4.35-.2.24Z"/><path class="cls-1" d="m229.11,34.91l-.33.21-.4.39-.58.32-.38.13-.21.15-.04.09-.12.1-.54.28-.38.21-.04.09-.12.1-.3.12-.62.42-.25.16-.61.5-.34.17-.25.16-.45.31-.38.21-.25.11-.68.2-.58.37-.52.14-.75.03-.47.18-.85-.09c-.48-.1-.84-.3-1.07-.6l-.19-.16.02-.27c-.1-.43-.1-.83.01-1.19l-.02-.17.22-.9.26-.91.06-.32.25-.55.27-.38.07-.18.24-.25c.1-.19.19-.34.26-.47l.3-.56.1-.32.1-.27.12-.14.09-.45.35-.43.25-.16.15-.28.36-.39.69-1.48.15-.68.42-.66.28-.29.14-.37.16-.15.04-.45-.02-.22.18-.37.28-.25.12-.1h.09s0-.1,0-.1l.27-.34.29-.21c.18-.28.4-.42.66-.42.03,0,.08.02.14.07l.12-.1.03-.09.26-.07h.35s.33.2.33.2l.02.22-.04.49-.26.51-.39.52-.12.14-.16.15h-.09s-.25.12-.25.12l-.67.77-.06.23-.03.09-.55.67-.16.19-.02.27-.36.39-.26.47-.31.39-.07.18-.28.25-.14.32-.08.14-.46.66-.58.81-.26.47-.22.42-.4.88c-.23.32-.36.51-.38.57l-.23.82-.05.36-.27.78-.17.94.03.26-.03.53c.05.17.11.31.17.42v.04s.19.07.19.07l.26-.07h.13s.31,0,.31,0l.25-.11.26-.07.18.07.22-.02.89-.31h.13c.08-.05.21-.1.36-.16.15-.06.28-.11.36-.15l.2-.15.49-.36.37-.26.85-.31.67-.33.38-.13,1.45-.9.07-.18.26-.03.75-.47.04-.05.07-.14.33-.21h.13s.11-.2.11-.2l.25-.11.33-.21.41-.31.37-.26.44-.4.12-.14.49-.36.21-.11.16-.15.86-.62h.13s.28-.26.28-.26l.21-.11.21-.15s.06-.02.08-.05h.04s.2-.24.2-.24l.29-.16.16-.19.29-.21.41-.26.2-.15c.6-.47.98-.76,1.15-.87l.07-.18h.13s.14.02.14.02l.16.25-.11.19-.12.1-.25.16-.07.14-.09-.03h-.04s0,.09,0,.09l-.54.36h-.13s-1.27.98-1.27.98l-.36.35-.36.39-.38.17-.25.16c-.92.77-1.65,1.36-2.2,1.77l-.15.24-.12.1-.51.23-.12.1-.08.1Zm1.57-20.61l-.18.37-.29.65-.15.24-.11.19v.04s-.42.13-.42.13l-.38.13-.34.17-.32.3-.04.05-.17.1-.18.37-.42.18-.28.69-.42.17-.15.24-.27.38v.09s-.44.35-.44.35l-.08-.34.16-.15.04-.09c.02-.06.03-.12.03-.18l.45-.79-.12-.34.24-.68.1-.27.38-.57.27-.38.08-.05.43-.53.15-.24.33-.25.23-.38h.04s.16-.2.16-.2h-.09s.21-.1.21-.1v.09s.28-.34.28-.34l.42-.17.38.31.45.13-.08.49.11.21Z"/><path class="cls-1" d="m251.88,9.15l.61-.11.7-.07.2-.24,1.01-1.73.12-.14.45-.75.2-.24.26-.42.12-.1.41-.7v-.09s.15-.19.15-.19l.07-.18.07-.14-.12.1h-.04s0-.08,0-.08l.07-.14.17-.06v.13s.17-.24.17-.24l.2-.24.19-.33.03-.14.15-.28.57-.46.31-.43.16-.15.13-.06.03-.09v-.04s.04-.05.04-.05v.04s.21-.59.21-.59l.27-.34.61-.11.41.58.11.61-.57.45-.4.44-.26.51-.19.33-.02.27-1.26,1.45-.41.35-1.55,2.05-.84,1.28.52-.1.16-.15h.13s.14.1.14.1l1.08-.2v-.09s2.91-.3,2.91-.3l1.25-.26,1.31-.13.14.12.35-.04v.13s1.16-.03,1.16-.03l.38-.13.62.07.73-.16.3-.03h.4s.54.08.54.08h.31s.35.02.35.02l1.12.19h.09s.36.04.36.04l.57-.06.37.14.97.03.18.03.28.19c.24.04.42.08.54.12l.04-.05.05.04,1.18.32.08-.05.05.08h.04s0,.04,0,.04l.68.24h.09s.14.06.14.06c.06.05.12.08.18.07l.22.02.55.21.15.21.42.26.18-.02.19.16.05.08c.12.05.27.13.45.26.17.13.28.21.31.23v.04s.05.04.05.04l.14.03.35.41v.04s.1.08.1.08l.27.06.1.08v.35s.15.29.15.29l.3.76.08.34s.04.07.1.12c.01.15,0,.23-.02.27l.05.04-.11.27-.24-.24-.06-.13c-.04-.05-.06-.14-.07-.26l-.37-.58-.39-.75-.1-.17-.05-.04-.3-.37-.34-.32s-.05-.05-.05-.08l-.52-.39-.18-.07-.56-.34-.05-.04c-.18-.07-.29-.12-.32-.14l-.14-.03-.09-.04-.37-.18-.36-.1-.27-.06-.1-.12-.05-.04h-.09s-.14-.06-.14-.06l-.72-.19h-.84s-.31-.06-.31-.06l-.55-.21-.67-.11c-.06-.02-.8-.08-2.22-.17l-.08.05-.75-.06h-.35s-.44.04-.44.04l-.3.07-.8-.05h-.4s-.26.07-.26.07l-.13-.03-.53-.03c-.24,0-.59.02-1.05.06l-.17.06-.13-.03c-.09,0-.21.01-.37.02-.16,0-.27,0-.33.01-1.86.19-3.25.35-4.18.47l-.3.07-.29.16v.13s-.16.02-.16.02l-.45.31-.17.02v.13s-.12.01-.12.01l-.63.33-2.14.22c-.08.12-.19.3-.34.52-.15.22-.27.4-.34.52l-.11.28-.24.24c-.31.44-.52.77-.65.99l-.03.14-.54.76-.55,1.07-.34.52-.66.9-.08.09-1.21,2.02-.27.42-.76,1.18-.1.27-.2.24-.22.42-.25.55-.15.24-.27.38-.31.38-.23.38-.04.05-.11.19-.1.32-.56.98-.12.54-1.76,3.04-.62.86-.82,1.05-.2.24-.39.52-.22.46-.06.31-.38.65-.27.82-.26.47-.53.85-.17.94.03.26-.02.22-.29.6v.57s-.11.5-.11.5l-.06.23.1.17.23.06.26-.07.77-.25.25-.11.07-.14.72-.25.38-.21.34-.17.24-.2.35-.08.38-.17.21-.15.17-.02.13-.06,1.08-.68.79-.43v-.04s.08,0,.08,0l.11-.23h.13s.25-.13.25-.13h.13s.12-.16.12-.16h.13s1.21-.71,1.21-.71l.41-.31.17-.06,1.95-1.17.41-.31.29-.16.5-.27.66-.42h.04s.19-.29.19-.29l.45-.31.5-.23.59-.28,1.12-.73v-.04s.04,0,.04,0l.21-.15.16-.15.58-.41h.13s0-.1,0-.1l.26-.07.2-.2.12-.14.22.02.11.21.05.08-.03.14-.12.14-.35.08-.12.14-1.1.9-.33.21-.45.35-.62.42-.46.27-.42.17-.58.37-.29.21-.12.14-.45.31-.53.41-.71.38-.21.11-.36.39-.38.17-.42.22-.17.06-.24.25-.2.15-.21.07-.36.34-.12.1-.34.08h-.31s-.25.15-.25.15l-.79.52-.41.26-.58.32h-.13s-.5.33-.5.33l-.47.53-.41.31-.21.07h-.04s.05.09.05.09l-.03.14-.17.06-.26.03.07-.18-.17.06-.37.3-.12.14-1.18.56-1.57.64h-.57s-.13.07-.13.07l-.31-.06-.18-.03-.32-.1-.16-.25-.13-.38c-.03-.06-.05-.18-.04-.37,0-.19.01-.3.01-.33.02-.36.11-.8.26-1.35v-.09s.05-.31.05-.31l.11-.28.08-.1-.02-.22.07-.14.19-.28.08-.14.23-.38.36-.83.07-.14.05-.36.06-.27.11-.19.23-.33.22-.42.1-.32.15-.28.2-.2.03-.09.28-.29.36-.39.19-.33.03-.18.07-.23.29-.21.49-.84.03-.14.12-.14c.31-.47.47-.72.5-.76l.22-.42.3-.52.22-.42.23-.38.12-.1.07-.14.15-.24.04-.05s.06-.09.12-.17.09-.15.11-.21l.04-.09.11-.19.08-.09.11-.19v-.09s.15-.19.15-.19l-.02-.22.6-.99.17-.1s.04-.02.04-.05l.02-.22.42-.66.12-.1.14-.37.32-.34,1.38-2.48.2-.2.6-.99.08-.1c.1-.13.26-.38.45-.75l.04-.05.08-.14h.04s.6-.99.6-.99l-.02-.22.62-.86.12-.1.19-.28.03-.18.87-1.45.25-.16.28-.34v-.04s.15-.19.15-.19v-.09s.1-.19.1-.19l.12-.06.08-.14v-.04s.06-.18.06-.18l.03-.13.34-.56h-.09s-.25.17-.25.17l-.86.18-.51.14-1.3.22-1.33.31-.34.08-.39.08-1.12.29-.34.12-2.16.88-.37.26-.17.1-.51.14-.62.02-.73.65-.33.17-.86.26-1.02-.12-.39-.36-.09-.43.06-.31h.04c0-.09.03-.18.1-.28h.09s-.05-.09-.05-.09v-.09s.1.17.1.17c.67-.39,1.52-.76,2.58-1.1l.67-.38.69-.11.27.06,1.77-.4.08-.05h.04s1.16-.25,1.16-.25l.04-.05h.09s.78-.18.78-.18l.14.03.26-.03.04-.05.22-.02,1.07-.33.08-.05.21-.11.26-.03.73-.16.13-.06h.31c.29-.08.5-.13.65-.14l.04-.05.17-.02.39-.04Z"/><path class="cls-1" d="m272.75,24.13l.38-.13.99-.67.16-.19.12-.1.38-.13.12-.1.08-.1.17-.06,1.08-.68.16-.15.32-.34.13.03.25-.2.13-.06.34-.17.08-.1.2-.15.3-.12h.13s.41-.28.41-.28l.04-.05c.05-.04.11-.07.16-.11.06-.03.11-.05.17-.06l.04-.09.45-.31.13-.06.04-.05.21-.07.24-.29.22-.02.05.08s.1-.04.21-.11l.78-.52.18.03.41-.26.24-.2.3-.08.2-.2.34-.17.13-.06.49.04.21-.11.35-.04c.92-.24,1.44-.12,1.58.37v.04s.09,0,.09,0l.24.2.02.22h.13s.1.07.1.07l-.08.1-.13.06-.07.23.04.44-.44.88-.1,1.16-.25.55-.29.21-.26.51-.25.56-.18.37.22-.02.11.21-.19.33-.22.02-.02-.22-.07.14-.2.2-.14.32v.13s-.11.06-.11.06c-.05.07-.08.11-.07.14v.13s-.1.14-.1.14l-.8,1.62-.04.05c-.15.28-.24.43-.26.47l-.03.18h-.04s-.26.52-.26.52v.04s-.03.14-.03.14l-.11.19v.13s-.15.15-.15.15l.02.17-.4.44-.38.61-.17.55-.08.05-.15.28-.19.29-.97,1.73-.17.11-.07.18-.37.74-.2.15s-.02.08-.07.14l-.17.46-.16.15-.14.32v.04s-.03.05-.03.05l-.14.37v.09s-.12.06-.12.06l-.08.1-.1.27-.3.47-.19.28-.19.33-.03.14-.49.4-.6,1.03-.06.27-.26.47-.35.48-1.17,1.92-.09.45-.16.19-.3.07-.09-.03-.25.55-.4.44-.08.05-.61.9-.34.52v-.04s-.43.62-.43.62l-.03.14-.3.56-.23.38-.2.2-.67,1.17v.04s-.17.5-.17.5l-.32.34c-.6,1.03-1.15,2.1-1.66,3.21v.44s-.23.33-.23.33l-.02.27-.12.1h-.04s-.71,2.1-.71,2.1l-.43.97-.45,1.24-.34,1-.17.46-.22.86-.03.14v.13s-.02.14-.02.14l-.02.27-.03.13-.03.18.06.17-.12.14-.05.8-.03.18-.13.5-.03.18-.12.54-.15.28-.02.27-.11.23h-.09s.12,1.14.12,1.14l.25.77.18.51.15.6.04.39-.07.18v.13s.04.75.04.75l-.33.65h-.13s-.14-.06-.14-.06l-.16-.25-.07.14-.22-.02-.14-.07-.05-.04.11-.23-.02-1.06-.03-.26-.07-.21-.17-.78-.04-.35.07-.58-.02-.17.1-.28-.02-.17.07-.14c0-.24.04-.56.12-.98.08-.39.13-.65.14-.76l-.02-.22.07-.23s.04-.02.04-.05l-.08-.39.03-.18.14-.32.08-.1c.11-.69.3-1.57.57-2.66.05-.36.12-.65.22-.86l.26-1.3.15-.28.26-.51.24-.69.1-.28c.57-1.35,1.01-2.35,1.33-3l.17-.5.15-.24.4-.79.07-.18.22-.42.33-.61.18-.42.15-.24.08-.1.11-.23.15-.28.94-1.64.04-.05v-.09s.08-.05.08-.05l.34-.52v-.09s.19-.24.19-.24l.06-.23.24-.29.22-.42.18-.37.12-.15.23-.33.17-.46.31-.43.2-.2,1.98-3.07.05-.36.4-.44.16-.15.44-.84.12-.1.16-.19.11-.23.34-.56.23-.33.27-.38.79-1.31.04-.05.11-.27.52-.98.18-.42.71-1.22.37-.7,1.05-1.83.87-1.85.26-.47.25-.6.9-1.59.51-1.06.46-.71.04-.09.2-.64.03-.18.1-.32-.05-.08h-.13s-.01-.12-.01-.12h.13s-.28-.65-.28-.65l-.15-.65.06-.31.03-.18-.23-.11h-.97s-1.04.2-1.04.2c-.2.08-1.09.57-2.67,1.46l-2.65,1.68-.37.26-.17.06-.08.05-.04.09-.58.37h-.13s-.28.26-.28.26l-.25.11-.12.1-.11.19-.17.11-.18.02-.08.05v.09s-.2.15-.2.15l-.07.14-.22-.02-.12.1-.74.56-.21.07-.9.66-.34.17-.49.36-.21.07-.74.56-.12.14-.17.06-.08.09-.16.15-.08.05-.17.06-.29.21-.34.17-.33.25-.07.14-.37.26-.86.22-.58.37-.25.11-.17.02-.08.05v.09s-.13-.03-.13-.03l.04-.05h-.09c-.08.05-.17.08-.25.12-.08.04-.18.08-.3.12s-.2.08-.25.11l-.67.33-.59.28-.34.12-.39.04-.18-.07-.14-.12-.5-.61v-.04s-.05-.05-.06-.08c-.22-.48-.15-1.32.23-2.53l.52-1.38c.21-.49.42-.89.63-1.21l.15-.28.13-.5.25-.6.06-.27.2-.59.74-.96.44-.88.28-.29.16-.15.07-.18-.1-.08h.13s0,.07,0,.07l.17-.06v-.04s.07-.18.07-.18l.4-.35.47-.14.05.04.12-.1c.08-.04.16-.03.22.02.06.05.1.09.1.12l.05.08h.04s0,.44,0,.44l-.09.41-.26.47-.34.61-.29.56v.04s-.32.3-.32.3l-.2.2-2.09,2.42-.11.19c-.02.06-.12.25-.3.56-.17.31-.31.56-.41.75l-.29.65-.05.4-.06.31-.07.14-.19.33-.03.13-.08.05h-.04c-.1.43-.1.76.01,1.02.21.65,1.02.67,2.43.06l.38-.17.08-.1.54-.32.21-.07h.13s.12-.11.12-.11h.13s1.19-.88,1.19-.88l.34-.17.43-.13.2-.15.53-.45.34-.12.29-.16.08-.1h.09s2.51-1.72,2.51-1.72l.04-.05.2-.2.37-.22.11-.23h.13Z"/><path class="cls-1" d="m124.95,92.47l.94-1.55.17-.1,2.21-3.4.1-.32.85-1.14.04-.05.32-.74.25-.16,1.17-1.93,1.46-2.53c.02-.06.05-.11.07-.14l.25-.6.16-.63.46-.66.53-1.24.14-.32.31-.83.13-.41.48-.89.2-.64.25-.6c.25-.7.42-1.25.5-1.64l.05-.36.08-.09c.02-.09.05-.36.09-.8l-.25-.28-.04-.39-.06-.17-.14-.47-.09-.47c-.37-.2-.88-.3-1.51-.31-.63,0-1.12.08-1.45.26l-1.51.77-.46.27h-.09s-1.46.82-1.46.82l-.04.05-.46.27-.16.15-.46.27-.34.12c-.5.29-1.22.74-2.15,1.37h-.04c-.16.14-.29.22-.37.26l-.88.84-.28.29-.39.08-.59.28-.13.06-.24.2-.08.1-2.05,1.93-.13.06-.48.45v.09s-.04,0-.04,0l-1.54,1.35-.16.15-.12.06-.67.38-.4.39v.09s-.43.44-.43.44l-.34.17-.96.94-.22.02-.79.92-.9.67-1.41,1.33-.27.42-.36.35-.16.19-.72.69v.09s-.08.41-.08.41l-.25.11-.41.31-.42.26h-.04s-.2.2-.2.2l-.17.1-.21.11-1.9,1.73v.35s-.07.27-.07.27l-.53.45-.57.06-.37.3-.03.18-.13.06-.16.63-.05.36c.23-.05.39.05.47.31s.02.48-.19.68l-.42.26-.08.09-.03.14-.41.26-.65.59-.41.31-.36-.1-.1-.12c-.15.02-.25.01-.31-.01-.34-.14-.52-.36-.55-.65.02-.36.34-.99.95-1.9l.35-.48.04-.09v-.09s.2-.15.2-.15l.12-.14-.11-.21h.09s.33-.26.33-.26h.04s0-.09,0-.09h.13s.23-.39.23-.39l.04-.05.1-.27.24-.2.1-.27.35-.43.42-.18.11-.19.25-.16.29-.16.08-.05.21-.15.16-.19.08-.05.36-.39.16-.19.16-.15.2-.24.12-.1.06-.27.08-.1h.31s1.62-1.43,1.62-1.43v-.04s.43-.44.43-.44l.21-.15.13-.06c.27-.26.62-.58,1.05-.97.43-.38.7-.62.81-.72l1.66-1.4.08-.1.28-.25.28-.34.24-.2.11-.23.07-.14.67-.33.58-.41.62-.42.78-.61c.08-.07.23-.17.43-.31.21-.14.34-.22.39-.26l.03-.14.28-.29.08-.1.47-.18.12-.14.25-.16.25-.11.94-.75.19-.29.17-.1.24-.25.08-.1.11-.27.08-.1h.35s.34-.11.34-.11h.04s.62-.46.62-.46l.16-.15.27-.38.18.03.14.03c.14-.07.35-.2.62-.39.28-.19.47-.32.58-.39l.07-.18.17-.11.3-.07.2-.2.05.04.12-.1.04-.05.21-.11c.91-.59,1.95-1.21,3.12-1.86l.24-.24.51-.18c.06,0,.1-.02.13-.06l.29-.16,1.33-.8.69-.16h.13c.09-.02.16-.04.21-.08,2.35-.88,3.85-.9,4.49-.06.27.33.4.74.39,1.24l.17.34.02.22-.08.49-.25.6-.06.71-.1.32-.18.41-.15.28.03.26-.31.38-.03.18-.15.28-.65,1.43.02.17.06.13-.25.11-.41.79-.03.18-.12.14h-.04s-.36.83-.36.83c-.6,1.32-1.72,3.32-3.36,5.98l-.03.13h-.09s-.22.43-.22.43l-.56.94v.04s-.42.57-.42.57l-1.43,2.44-.35.48-1.16,2.01-1.16,1.62-.34.56-.82,1.45-.36.39-1.07,1.65-.09.45-.26.03-.57.9-.07.18-.05-.04-.2.24-.09.41-.44.84v.13s-.33.12-.33.12l-.64,1.12-.31.87-.15.28-.32.3-.13.41-.71,1.22-.17.55-.38.57-.26.47.52-.58h.04c.67-.95,1.22-1.7,1.67-2.25v-.04s.25-.51.25-.51l.44-.48.29-.65.2-.24.23-.38.41-.35.43-.53.8-.74.04-.05.17-.11c.05-.09.11-.17.2-.24l.13-.45h.04s.08-.1.08-.1l.22-.02.43-.57.08-.1.08-.14.12-.06c.6-.74,1.56-1.85,2.88-3.33l.33-.65.37-.3v.09s1.52-1.65,1.52-1.65l.04-.05.4-.44h.04s.52-.54.52-.54l.15-.28.89-.8,1.04-.99.08-.1.51-.58.25-.16c.08-.1.17-.19.26-.27.09-.08.2-.17.33-.25.12-.09.21-.16.26-.23v-.04s.08-.05.08-.05l.21-.15.02-.18.29-.21.24-.25.97-.89.15-.28.26-.03v.04s.65-.55.65-.55l.44-.49.11-.23.29-.21.11-.23.28-.29.12-.1,1.18-.56.86-.62.28-.29.16-.15.91-.58.29-.16h.04c.11-.07.27-.21.49-.41l.16-.19.62-.42.16-.19.17-.02.62-.42.16-.15.28-.25.64-.2.05.04c.84-.38,1.56-.54,2.15-.48.33.05.53.18.61.38.08.26.11.5.08.74h.04s.19.15.19.15l.11.17.07.21h-.04s0,.36,0,.36l.04-.05.05.08-.02.18v.31s-.11.32-.11.32l-.04.05v.04s-.07.1-.07.1l-.03.14.1.08h-.09s-.16.2-.16.2h-.04s-.08.06-.08.06l-.07.14h-.13s-.08.07-.08.07l-.24.29-.02.27-.11.23-.32.3-.41.75v.09s-.03,0-.03,0l-.04.05-.03.14-.06.23-.26.47-.15.68-.19.28-.12.1-.19.29-.15.28-.15.24-.27.34-.04.09-.03.13-.04.05h-.09s-.42.67-.42.67l-.07.18-.27.38-.15.28-.5.71-.07.18-.38.57-1.65,2.86-.1.32-.04.05v.04s-.07.1-.07.1l-.03.13.1.08h-.09s-.16.2-.16.2v.09s-.2.15-.2.15l-.07.14-.08.05-.2.24s-.04.06-.04.09l-.02.22-.11.23-.2.2-.16.15-.53.89-.03.14-.05-.04-.15.24-.04.45-.4.88.02.17-.21.11-.53,1.29-.26.86-.14.37-.19.33-.13.45-1.01,1.73-.12.59-.37.65-.2.59-.54,2.04.22.02.04-.09.31-.38.34-.61.28-.25.37-.3.2-.24.21-.15-.14-.07.03-.14.12-.1h.04s.05.04.05.04l-.07.14.08-.1.25-.16.07-.14h.13s.56-.56.56-.56l.11-.19.32-.3.23-.29.64-.59.07-.14,1.45-1.38.2-.24.21-.15.03-.09.41-.35.31-.39.48-.45.25-.11.16-.1.24-.29.09.04.11-.23.24-.2.07-.18.25-.16.57-.5.16-.19.24-.2.04-.09.24-.25.04-.09h.04s.04-.05.04-.05l-.26.03.06-.32.29-.16h.13s.09.02.09.02h.13s.08-.11.08-.11l.12-.1.03-.14.2-.15.04-.05h.04s2.06-2.28,2.06-2.28l.07-.14.12-.14.15-.28.12-.14.02-.27.08-.1.3-.07.29-.21.17-.1.2-.2.08-.1.72-.73,2.04-2.06.23-.38.54-.36.03-.13.63-.73.26-.07.16-.15.07-.23.04-.05h.04s2.47-2.55,2.47-2.55l.5-.31.1-.32.49-.36,2.09-2.02.21-.55.44-.04,1.4-1.42.04-.05.71-.78.11-.19,1.69-1.63.2-.24.29-.21.03-.13.4-.44.17-.06.07-.18c.76-.63,1.51-1.37,2.24-2.21l.33-.21,1-1.03.14-.32.17-.02.25-.11.57-.5.03-.18.19-.33.13-.06.46-.22.11-.19.25-.11.08-.05,1.01-.85.18-.37.16-.15.2-.2.16-.15.02-.27.08-.05.35-.04.29-.16.72-.29.6-.15c1.02-.4,1.81-.39,2.38.02l.12-.06.14.07.1.12.04-.05.05.04-.04.05v.09s.06.13.06.13l.11.21.02.22c.08.17.12.33.13.47l.27.46.04.35-.03.14-.16.63-.04.05-.05.8.05.08.07.21h-.04s0,.36,0,.36l.04-.05.05.08-.03.18v.31s-.11.32-.11.32l-.04.05v.04s-.07.1-.07.1l-.03.13.1.08h-.09s-.16.2-.16.2h-.04s-.08.06-.08.06c-.14.66-.36,1.43-.65,2.31l-.06.67-.12.98-.58,1.69-.26.47-.54,1.6-.26.47-.22.46-.67,1.7-.21.55-.04.05c-.53,1.43-1.21,3.15-2.03,5.14l-1.06,2.62-.11.23h-.09s-.21.6-.21.6l.05.48-.21.15-.25.11-.4.88-.34,1-.16.15-.21.51-.17.5-.23.33.31-.03.08.34-.15.24h-.13s-.1-.06-.1-.06l-.02-.22-.07.18-.37.3.16.25-.08.1-.18.02-.59,1.16-.02.27-.37.74-.17.46-.62,1.25v.31s-1.48,2.88-1.48,2.88l-.09.45-.22.42v.13s-.39.79-.39.79l-.21.15-.02.27-.59,1.16-.16.15-.19.28-.17.06v.35s-.2.28-.2.28h-.13s-.08.51-.08.51l-.18.37-.06.27-.22.42-.35.43-.3.52-.64,1.52.02.22h-.13s.01.14.01.14h-.04s-.2.6-.2.6l-.17.46h-.04c-.7,1.52-1.34,3.17-1.92,4.96l.02.22-.1.32v.09s-.11.54-.11.54l-.12.14v.13s-.25.91-.25.91l-.12.1-.03.14-.04.05s-.03.08-.03.14v.13s-.09.27-.09.27c-.05.06-.07.13-.07.18v.09s-.08.45-.08.45l-.1.32-.12.1-.23,1.21c-.51,1.9-.79,3.19-.84,3.88l.06.61.08.39.06.13.07.21.05.04h.04s.05.04.05.04l-.04.05.33.27.3.37.06.17.07.3c.17-.1.28-.31.33-.61.23-.38.52-.48.9-.31.25.12.3.32.15.6-.23.58-.63,1.02-1.19,1.31-.56.29-1.09.31-1.58.05-.5-.26-.77-.81-.83-1.66-.04-.44-.05-.9-.03-1.39s.05-.92.09-1.29c.04-.37.11-.83.21-1.37.11-.54.2-.96.27-1.26.07-.3.2-.75.37-1.34.17-.59.29-1,.36-1.23.07-.23.21-.67.44-1.32.23-.66.36-1.06.41-1.21.19-.72.78-2.17,1.77-4.32l.06-.23.14-.37.3-.56v-.04s.53-1.69.53-1.69l.07-.18.96-1.82c.33-.8.71-1.66,1.15-2.59l.04-.45.35-.43,1-2.3.14-.32.06-.27.19-.28.95-1.95.07-.14.03-.14.29-.56.65-1.39.07-.23.07-.14.25-.55h.04s.28-.74.28-.74l.17-.55,1.9-3.85.51-1.02.07-.23.03-.09.42-.66h.04s1.4-3.14,1.4-3.14l.07-.18.47-1.46.17-.11.13-.45-.05-.04.08-.1.55-1.51.16-.15.07-.14.26-.51.07-.18s0-.06.04-.09l.02-.22.41-1.58.04-.45.11-1.07.53-.89.59-2,.51-1.9.26-.51.11-.63.07-.18-.06-.13.15-.23.41-1.15.29-1.09.64-1.08.1-.76-.03-.26.06-.27-.1-.08h-.09s-.19-.1-.19-.1h.09s-.33-.64-.33-.64l-.29-.67-.03-.31.02-.22-.5.31-.44.04h-.4s0,.04,0,.04h-.04s-.05-.03-.05-.03h-.04s-.25.12-.25.12l-.58.37-.12.14-.41.31-.13.06-1.63,1.31-.45.4-.49.4-.82.61-.48.45-2.4,2.01-.53.41-.12.14-.24.24-.17.06c-.76.66-1.37,1.23-1.86,1.69l-.6.59-.08.1-.64.64-.12.1-.2.2h-.04s0,.05,0,.05h-.04s-.04.05-.04.05l-.36.35-.04.05-1,.98-.2.24-.23.33-.49.4-.68.64-.15.24-2.19,2.29-.75.87-.2.2-.42.26-1.91,2.04v.09s-.19.2-.19.2l-.16.15-.2.2h-.04s0,.05-.04.05l-.07.14-.2.24-.28.29h-.09s-.16.16-.16.16l-.06.27-.07.14-.08.1-.17.1-.08.1h-.04s-.04.1-.04.1l-.28.25-.2.2-.87.97-.32.34-.18.37-.58.41-.12.14-3.49,3.84-.07.18-.21.11v.13s-.23.24-.23.24l-.25.16-.99,1.07v.09s-.12.01-.12.01l-.04.05v.04s-.04,0-.04,0l-.83.92-.03.09-.27.34-.08.14-.31.43-.42.22-.79.87c-.08.1-.33.31-.77.65l-.2.64-.11.23-.42.61-.67.33-.36-.05-.25.16-.6,1.07-.81.66-.67.73-.14.32-.19.28.02.17h.09s.02.21.02.21l-.22.02-.9.71-.46.71-.19.33-.7.95-1.05.55-.52.14-.55-.25-.04-.35-.06.31-.08-.74.03-.53h-.09s-.03-.3-.03-.3l.19.11.09-.36.27-.38.18-.86.67-1.26c.3-.82.64-1.64,1.03-2.44l.51-1.06c.04-.12.14-.31.29-.56l.02-.27.7-1.35.61-1.38.27-.38.09-.41.72-1.17.4-.79.22-.46.08-.1c.44-.84.74-1.38.89-1.63l.51-1.07.24-.29.53-.89s.03-.1.11-.21c.08-.11.13-.2.15-.26l.18-.37v-.13s.03-.05.03-.05l.04-.09.16-.19.31-.43.2-.24,1.31-2.34.07-.14.12-.14,1.08-1.92.27-.42v-.04s.18-.37.18-.37l.04-.05.03-.14.11-.23.11-.19.42-.66.13-.41.58-1.25.24-.64v-.35s.16-.28.16-.28l-.05-.48.03-.53c-.12-.28-.43-.35-.95-.21-.77.25-1.43.57-1.98.95l-.12.1h-.09s-1.81,1.3-1.81,1.3l-.04.05-.28.25-.28.29-.37.3-.17.1-.39.08-.4.39v.04s-.08,0-.08,0l-.05-.04c-.3.21-.83.63-1.59,1.26-.03.03-.09.09-.2.17-.11.08-.19.16-.24.22l-.08.05-.25.2-.08.05c-1.45,1.09-2.41,1.86-2.89,2.32-.38.33-.65.6-.8.79l-.23.33-.28.25-.28.29-.37.3-.07.23-.13.06h-.13s-1.47,1.62-1.47,1.62l-.65.95-.27.34-.84.83-.47.53-.76.78-2.39,2.93v.04s-.04.05-.04.05l-1.56,2.01-.4.44c-.02.06-.15.24-.39.52l-.07.14-.39.48-.82,1.05-.14.32-.52.49-.19.33-.35.48-1.33,1.68-.8,1.18-.45.79-.19.28-.03.58-.18.41-.39.96-.76.78-.48.05c-.75.96-1.4,1.43-1.93,1.43l-.33.21-.2-.2-.04-.44c-.08-.26-.09-.43,0-.53.03-.03.05-.06.08-.1v-.04s.05-.36.05-.36l.29-.56.15-.72.38-.61.2-.68.06-.27.26-.42.27-.38.19-.33.11-.23.74-.96v-.04s.23-.33.23-.33l.08-.54v-.09s.12-.06.12-.06l.3-.08.4-.88.08-.1.17-.06.06.13.19-.33.09-.45.31-.38.15-.28h.13s-.01-.15-.01-.15l.39-.52,1.82-2.92.11-.23.24-.29.54-.8v-.04s.06-.23.06-.23l.47-.53.07-.14v-.09s2.17-3.26,2.17-3.26Z"/><path class="cls-1" d="m194.64,95.7l-.33.21-.4.39-.58.32-.38.13-.2.15-.04.09-.12.1-.54.28-.38.21-.04.09-.12.1-.3.12-.62.42-.25.16-.61.5-.33.17-.25.16-.45.31-.38.22-.25.11-.68.2-.58.37-.52.14-.75.03-.47.18-.85-.09c-.48-.1-.84-.3-1.07-.6l-.19-.16.02-.27c-.1-.43-.1-.83.01-1.19l-.02-.17.22-.9.26-.91.06-.31.25-.55.27-.38.07-.18.24-.25c.1-.19.19-.34.26-.47l.3-.56.1-.32.1-.27.12-.14.09-.45.35-.43.25-.16.15-.28.36-.39.69-1.48.15-.68.42-.66.28-.29.14-.37.16-.15.04-.44-.02-.22.18-.37.28-.25.12-.1h.09s0-.1,0-.1l.27-.34.29-.21c.18-.28.4-.42.66-.42.03,0,.08.02.14.07l.12-.1.03-.09.26-.07h.35s.33.2.33.2l.02.22-.04.49-.26.51-.39.52-.12.14-.16.15h-.09s-.25.12-.25.12l-.67.77-.06.23-.03.09-.55.67-.16.19-.02.27-.36.39-.26.47-.31.39-.07.18-.28.25-.14.32-.07.14-.46.66-.58.81-.26.47-.22.42-.39.88c-.23.32-.36.51-.38.57l-.23.82-.05.36-.27.78-.17.94.03.26-.04.53c.05.17.11.31.17.42v.04s.19.07.19.07l.26-.07h.13s.31,0,.31,0l.25-.11.26-.07.18.07.22-.02.89-.31h.13c.08-.05.2-.1.36-.16.16-.06.28-.11.36-.15l.2-.15.49-.36.37-.26.85-.31.67-.33.38-.13,1.45-.9.07-.18.26-.03.75-.47.04-.05.07-.14.33-.21h.13s.11-.2.11-.2l.25-.11.33-.21.41-.31.37-.26.44-.4.12-.14.49-.36.21-.11.16-.15.86-.62h.13s.28-.26.28-.26l.21-.11.2-.15s.06-.02.08-.05h.04s.2-.24.2-.24l.29-.16.16-.19.29-.21.42-.26.2-.15c.6-.47.98-.76,1.15-.87l.07-.18h.13s.14.02.14.02l.16.25-.11.19-.12.1-.25.16-.07.14-.09-.04h-.04s0,.09,0,.09l-.54.36h-.13s-1.27.98-1.27.98l-.36.35-.36.39-.38.17-.25.16c-.92.77-1.66,1.36-2.2,1.77l-.15.24-.12.1-.51.23-.12.1-.08.1Zm1.57-20.61l-.18.37-.29.65-.15.24-.11.19v.04s-.42.13-.42.13l-.38.13-.34.17-.32.3-.04.05-.17.1-.18.37-.42.18-.28.69-.42.18-.15.24-.27.38v.09s-.44.35-.44.35l-.08-.35.16-.15.03-.09c.02-.06.03-.12.03-.18l.45-.79-.12-.34.24-.68.11-.28.38-.57.27-.38.08-.05.43-.53.15-.24.33-.25.23-.38h.04s.16-.2.16-.2h-.09s.21-.1.21-.1v.09s.28-.34.28-.34l.42-.18.38.31.45.13-.08.49.11.21Z"/><path class="cls-1" d="m226,95.96l-.2.2-.38.17-.23.33-.11.19-.42.17-.67.38-.54.36-.26.07-.13.06-.12.15v.09s-.04-.04-.04-.04v-.04s-.18.02-.18.02l-.5.31-.39.08s-.07.01-.11.03c-.04.02-.08.03-.11.03l-.3.07-.79.04-.44-.4-.05-.08-.35-.4-.42-.62.02-.22-.26-.41.02-1.15c-.05-.17-.05-.41,0-.71.04-.3.06-.51.05-.62l-.02-.17.06-.27-.05-.04-.08-.83.18-.81v-.31s.06-.36.06-.36l.03-.14.07-.14.03-.09.04-.05-.07-.26.03-.18.15-.28.26-.95.02-.22.03-.18.07-.18.05.04.17-.46.03-.14v-.04s.02-.22.02-.22l.07-.18.08-.1.03-.09-.1-.08.11-.23v-.13s.12-.45.12-.45l-.23-.55-.06-.17-.22-.42-.15-.16c-.06,0-.09-.02-.1-.08l-.25-.33-.78,1.05-.57.94-.93.84-.64.68-.35.43-.07.14-.08.05-1.14,1.39-.13.06-.39.48-.2.2c-.13.13-.31.31-.52.54-.21.23-.33.36-.36.39l-.3.56-.26.42-.53.41-.43.57-.24.2-.32.3-.45.31-.2.2-.28.25-.37.26-1.18.96-.04.09-.03.14h-.13s-.33.22-.33.22l-.09-.04c-1.31.98-2.47,1.53-3.49,1.63-.09,0-.22-.01-.4-.07-.18-.06-.35-.1-.5-.15l-.27-.1-.11-.25h-.04s-.36-.49-.36-.49l-.12-.78.03-.58.13-.45.26-.51.02-.27.23-.33.38-1.05v-.09s.13-.32.13-.32l.75-.87.24-.29v-.48s.07-.14.07-.14l.2-.2,1.75-1.9h.04c.5-.61.98-1.16,1.46-1.65l.04-.05.36-.39.25-.16.57-.5.2-.24.24-.2.37-.26.46-.27.44-.49.08-.05h.09c.55-.39,1.05-.69,1.5-.91l.12-.14.12-.1.17-.02.46-.22.44-.4.17-.06.31-.03c.34-.15.59-.28.75-.39.42-.19,1.05-.24,1.88-.15l.3-.03.32.1.31-.03c.06,0,.12.03.19.11l.49.88.15-.24v-.31s.4-.13.4-.13l.91-1.06.18-.37.29-.16.94-1.11.49-.8.67-.82.66-.9.82-1.05,1.04-1.47v-.04s.04,0,.04,0l.65-.95.45-.75.3-.52.2-.2.1-.32.43-.57v-.13s.28-.21.28-.21l.1-.32.39-.52.81-1.18.15-.24.04-.09h.04s.76-1.23.76-1.23l.15-.28.16-.19.07-.18.27-.42v-.09s.16-.1.16-.1l.07-.23.23-.38.64-1.08.27-.38.15-.28.64-1.04.19-.33.69-1.04.47-.58.19-.28v-.09s.56-.94.56-.94l.09-.41.11-.27.5-.31.11-.23.08-.1-.02-.22.07-.14v-.09s.1-.23.1-.23v-.04s.09.03.09.03l.16-.19h.09s0-.05,0-.05l.24-.25.3-.12.17-.11.09.04.3-.12.04-.05.22-.02.14.03h.35s.26.38.26.38l.16.25-.43.97-.5.76h.04s.32.09.32.09l.12.3-.31.38-.42.62-.18.37-.12.06-.08.14-.18-.03-.59.24-.55.23h-.09s-.5.76-.5.76l-.31.38-.22.46-.51.23-.62.81-.3.51-.12.1-.23.38-.32.34-.94,1.59-.52.93-.57.85-.03.13-.35.87-.2.24-.14.32-.26.51-.05-.04-.26.51-.17.55-.07.18-.12.14-.95,1.55v.09s-.03,0-.03,0l-.3.47v.13s-1.31,2.16-1.31,2.16l-.16.19-.71,1.22v.04s-.04,0-.04,0c-.55.94-1.27,2.26-2.15,3.96v.04s-.07.1-.07.1l-.11.19-.11.23v.04s-.08.05-.08.05c-.56,1.14-1.03,2.19-1.4,3.14l-.04.05-.07.18h.04s0,.08,0,.08l-.07.14.06.17-.04.44.1.08-.12.1.05.04-.12.1.02.22-.16.63-.17.02-.04.09-.23.38-.05-.04-.17.02-.11.23-.29,1.09h-.04s-.1.37-.1.37l-.02.71-.2.68-.05.84-.09.85-.14.37-.06.23.05.48c.04,1.23.42,2.01,1.16,2.35l.36.05.05.04c.24.04.42.05.53.03l.29-.16.6-.19.08-.1.45-.31.26-.07.44-.04.18-.02c.72-.4,1.59-.98,2.6-1.76l.53-.45.29-.21.08-.05.04-.09.08-.1.28-.25.41-.26.49-.36,1.04-1.03.46-.27.64-.64.2-.2.6-.55.21-.11.2-.2.53-.45v-.04s.12-.1.12-.1l.55-.67.42-.22.37-.26.04-.05,1.04-1.03.08-.1.49-.4.08-.14.04-.05h.13s.08-.11.08-.11l.07-.18.12-.1h.13s.04-.06.04-.06l.26-.03.21.29-.11.19-.21.07-.04.05h-.04s-2.77,2.71-2.77,2.71l-.11.23-.12.1-.2.15-.17.1c-.46.43-1.14,1.04-2.06,1.84l-.65.55-.04.09-.21.11-.23.33-.25.11-2.36,1.96-.2.24-.53.45-.04.05h-.09s-.24.21-.24.21l-.03.13-.13.06.17-.06v.13s-.14.19-.14.19l-.17.02.02-.22-.04.05Zm-19.35-4.82l-.13.06-.39.52-.36.39-.16.59-.32.34-.22.46-.07.62.1.52-.07.14.02.17-.26.51-.03.53.03.7.1.52.06.13.1.08.27.02.22-.02.21-.11c.06-.03.19-.11.42-.22l.31-.38.37-.3.29-.21.55-.23.5-.31s.07-.04.12-.1c.74-.57,1.33-1.07,1.79-1.5l.03-.09.49-.4c.16-.13.28-.25.36-.34l.32-.34.15-.28.59-.68.28-.29.11-.23.17-.06.62-.42c.32-.35.81-.93,1.48-1.71.67-.79,1.19-1.39,1.56-1.81l.83-.92.03-.14.62-.81.35-.48v.09s.3-.21.3-.21l.21-.51.26-.47-.32-.54-.43-.35-.18-.07-.1-.08c-.92-.11-2.06.23-3.42,1.01l-.74.52-.34.17-.3.12-.25.16c-.14.1-.38.26-.75.47-.36.21-.64.4-.85.55-.21.15-.5.4-.87.73-.38.33-.79.73-1.25,1.18l-.5.67-.33.61-.4.44v.09s-.02.14-.02.14l-.37.3-.27.34-.31.43-.16.19h-.04s.01.14.01.14Zm13.16-6.71c.01.15.07.26.17.34l.05.04.1.12.24.2.11.21.27.02.1.12v.04s.32-.38.32-.38v-.09s.04,0,.04,0l.03-.13h.04s0,.08,0,.08h.04s.21-.51.21-.51l.04-.09.06-.23.11-.19v-.44l.12-.1.11-.23.25-.16.11-.27.04-.05.4-.83v-.04s.18-.37.18-.37l.3-.56.12-.14c.84-1.55,1.49-2.71,1.94-3.46-.99,1.22-2.03,2.54-3.12,3.98l-.53.85-.28.29h-.09s-1.47,2.01-1.47,2.01Z"/><path class="cls-1" d="m251.45,84.38c-.03.3-.07.52-.11.67l-.14.37s0,.09.02.17c0,.09,0,.15-.03.18l-.22.46-.26.47-.37.3-.39.48-.15.24-.2.24-.32.3-.08.05c-.56.59-1.35,1.28-2.39,2.09v.09s-.12.01-.12.01l-.45.35v.04s-.07.1-.07.1l-.17.02s-.05.05-.08.05v.13s-.16.02-.16.02l-.32.3h-.04s-.2.24-.2.24l-.3.12-.15.24-.28.25-.17.06-.48.09-.16.11-.26.07h-.09c-1.07.53-1.68.82-1.85.9l-.16.15-.13.06-.15.24-.12.06-.31-.06-.31.03-.83.04h-.79s0-.05,0-.05c-.03,0-.06.01-.09.03s-.06.03-.08.03c-.26,0-.49-.04-.67-.11-.03-.03-.16-.09-.37-.18-.21-.1-.41-.19-.58-.29-.17-.1-.26-.19-.27-.28l-.04-.39-.13.06-.07-.26.22-.81.23-.77.15-.28.47-.58.28-.25.07-.14.69-.6.59-.72.11-.23.16-.19.88-.84.24-.25.21-.06.08-.1.33-.25.07-.14.05.08.97-.89.2-.24.13-.06.37-.3.27-.38.36-.39.59-.28.52-.54.33-.21.37-.26c.11-.1.29-.25.55-.45.26-.2.46-.35.59-.46l-.62-.02c-.4.1-.67.16-.82.17l-.12.06-.04.05-.14-.03-.52.05c-.78.17-1.22.26-1.34.27h-.04s-1,.15-1,.15l-.54-.08-.28-.15-.15-.21v-.31s.31-.56.31-.56l.33-.17.43-.13.43-.09.36.09.67.11c.73-.07,1.43-.09,2.11-.04l.47-.13.7-.03.82-.22.14.03.73-.16c.08-.04.21-.12.37-.26l.37-.3.33-.21.13-.06.2-.15.35-.08.39-.08c.4-.1.71-.14.91-.14l.3-.07.14.12c.15.01.32.08.51.21l1.21-.25.04-.05.51-.18.65-.11.68-.29.26-.07.43-.09.87-.09.34-.08h.53s.04-.01.04-.01c.26-.03.45-.06.56-.1.06,0,.17-.02.35-.06s.3-.05.39-.06l.17-.06.08-.05h.09s.1.07.1.07l.26-.03.25-.11.31-.03h.4s.09,0,.09,0l.3-.07.27.1h.13s.17-.07.17-.07h.35s.18.03.18.03c.59.03,1.01.07,1.25.14l.19.11.18-.02.15.16c.06.02.33.16.79.4h.09s.14.11.14.11l.23.06.16.25.2.25v.13s-.23.25-.23.25l-.1.32-.32.74-.15.28v.04c-.05.06-.07.11-.07.14l-.15.28-.25.11-.04-.35.07-.14v-.09c-.01-.06.05-.25.2-.59l.07-.23.23-.82-.05-.08s0-.06,0-.09l-.15-.2-.46-.17-.38-.23-.67-.11c-.65-.08-1.62-.06-2.9.07l-.65.07-.52.1c-.17.02-.38.06-.63.13-.24.07-.41.11-.49.12-1.39.23-2.88.54-4.49.94l-.08.05-.38.13-.2.15-.7.03c-.2.05-.54.13-1.01.26-.47.12-.85.21-1.14.27l-.34.17-.35.04-.78.17-.21.15c.27.06.66.17,1.18.32h.09s.14.11.14.11l.09.03.19.11.37.18.58.51.16.29.27.5.04.79Zm-1.88,1.91c.38-.63.61-1.1.69-1.44l-.03-.26.13-.41-.02-.62v-.04s-.27-.41-.27-.41l-.29-.23-.33-.19-.37-.18-.32-.1-.41-.09-.37-.18-.27-.06-.09-.04c-.19.14-.48.37-.85.7-.38.33-.67.6-.89.79l-.36.34-.28.29-1.48,1.08-.4.35-.29.21-.81.66-.04.05-.2.2-.62.42-.49.4-.45.35-.2.2-.57.5-.04.05-.42.62-.34.56-.19.33-.04.05h-.04c-.31.42-.51.81-.59,1.17v.09s-.02.18-.02.18l-.07.23.03.26-.04.09-.03.14c.1.4.25.67.43.79h.09s.28.14.28.14c.03,0,.07,0,.13,0,.06,0,.11.01.13,0,.91-.03,1.95-.32,3.13-.85.48-.2,1.08-.49,1.81-.89l.04-.09h.13s.5-.33.5-.33l.31-.38.7-.47.17-.06h.09s1.26-1.06,1.26-1.06l.12-.14.08-.05c.21-.2.54-.52.96-.98l.11-.19.08-.14.24-.24.23-.33.11-.23.17-.06.07-.18.12-.14.07-.14h.09Zm.62-6.01l1.29-.35c-.22-.1-.64.02-1.29.35Z"/><path class="cls-1" d="m268.35,86.37l-.08.1-.07.18.32-.34.57-.5.16-.15.08-.05h.09s0-.05,0-.05l.34-.17-.19-.16.26-.03.71-.82h.13s.63-.78.63-.78l.74-.56.68-.64.08-.1h.04s.76-.74.76-.74l.04-.05,1.13-1v.04s.74-.6.74-.6l.2-.24.17-.06.37-.3.08-.1h.04s.82-.62.82-.62l.31-.38.24-.2.63-.33.44-.48.45-.31.88-.4.38-.21c.36-.24.81-.52,1.37-.84l.24-.24.75-.39.76-.34.12-.1.37-.26.46-.22.29-.16.56-.1c.79-.32,1.45-.49,1.97-.51l.25-.11.19.16c.21.07.4.17.56.3.06.05.1.11.11.17l.34.32.03,1.14-.42,1.1-.51.23-.48.05-.29-.28-.04-.44-.2.2-.02-.22.08-.05.02-.22-.07-.3-.15-.56-.2-.2-.65.15-.58.32-.21.07h-.35s-.46.26-.46.26l-.26.07-1.71.53c-.53.29-1.1.63-1.71,1.01l-.25.16-.2.24-1.65,1.09-.62.46-.23.29-.79.52-.21.15-.36.35-.61.5-.23.33-1.18.96-1.72,1.76-.22.42-.28.25-.51.67-.47.53-.17.1-.33.25-.27.34-.03.09-.32.34-.35.48-.2.24-.16.15-.39.48-.14.32-.16.15-.15.24-.4.44-.67.82-.18.37-.15.24-.18.42-.06.27-.04.09-.06.23-.24.29-.64.59-.41.35-.4-.05-.25-.28v-.04c-.11-.14-.15-.28-.14-.43l-.02-.17.08-.1.08-.54-.08.1-.06-.17.1-.32.12-.54.26-.47.03-.09v-.09s.15-.15.15-.15l.11-.23v-.09s.35-.35.35-.35h.09s.12-.11.12-.11l.45-.8.26-.47.13-.06.17-.46.19-.68.28-.29.06-.27.42-.66.12-.1.48-.93-.02-.17.65-.99.36-.79.15-.28.18-.41.03-.14.08-.1.26-.47v-.13s.2-.46.2-.46l.26-.07.14.07.23-.33.1-.32.02-.22v-.13s-.2-.07-.2-.07l.12-.15-.04.09.11-.19-.05-.04-.15.24c-.11.1-.2.12-.28.07-.08-.05-.12-.14-.14-.25l.08-.1v-.09s.02-.14.02-.14l.11-.23.04-.09-.1-.12-.04.05-.23-.07v-.13s.07-.1.07-.1l.17-.06h-.09s.08-.04.08-.04h-.09s-.06-.16-.06-.16l.15-.28.23.11.11-.23-.02-.17.03-.14-.09-.03.21-.07-.02-.22.08-.05h.09s.16-.2.16-.2l.22-.02h.31s.22.03.22.03l.17-.1v-.09s.15-.15.15-.15l.18.02h.13s.1.06.1.06l-.04.05-.21.11c.33.08.54.25.62.51l.05.04-.03.14c.04.41-.21,1.01-.74,1.79l.05.08-.42.66-.26.07-.35.48-.15.23-.1.32h-.04c-.3.54-.5.86-.6.99h-.04s-.22.42-.22.42l-.06.27-.15.32-.33.69-.23.33-.07.18-.22.46-.44.88-.24.69-.22.46-.2.24Z"/><path class="cls-1" d="m304.04,84.59l-.33.21-.4.39-.58.32-.38.13-.2.15-.04.09-.12.1-.54.28-.38.21-.04.09-.12.1-.3.12-.62.42-.25.16-.61.5-.33.17-.25.16-.45.31-.38.22-.25.11-.68.2-.58.37-.51.14-.75.03-.47.18-.85-.09c-.48-.1-.84-.3-1.07-.6l-.19-.16.02-.27c-.1-.43-.1-.83.01-1.19l-.02-.17.22-.9.26-.91.06-.31.25-.55.27-.38.07-.18.24-.25c.1-.19.19-.34.26-.47l.29-.56.1-.32.1-.28.12-.14.09-.45.35-.43.25-.16.15-.28.36-.39.69-1.48.15-.68.42-.66.28-.29.14-.37.16-.15.04-.44-.02-.22.18-.37.28-.25.12-.1h.09s0-.1,0-.1l.27-.34.29-.21c.18-.28.4-.42.66-.42.03,0,.08.02.14.07l.12-.1.04-.09.26-.07h.35s.33.2.33.2l.02.22-.04.49-.26.51-.39.52-.12.14-.16.15h-.09s-.25.12-.25.12l-.67.77-.07.23-.03.09-.55.67-.16.19-.02.27-.36.39-.26.47-.31.39-.07.18-.28.25-.14.32-.07.14-.46.66-.58.81-.26.47-.22.42-.4.88c-.23.32-.36.51-.38.57l-.23.82-.05.36-.27.78-.17.94.03.26-.03.53c.05.17.1.31.17.42v.04s.19.07.19.07l.26-.07h.13s.31,0,.31,0l.25-.11.26-.07.18.07.22-.02.89-.31h.13c.08-.05.2-.1.36-.16.15-.06.27-.11.36-.15l.21-.15.49-.36.37-.26.85-.31.67-.33.38-.13,1.45-.9.07-.18.26-.03.75-.47.04-.05.07-.14.33-.21h.13s.11-.2.11-.2l.25-.11.33-.21.41-.31.37-.26.45-.4.12-.14.49-.36.21-.11.16-.15.86-.62h.13s.28-.26.28-.26l.21-.11.2-.15s.06-.02.08-.05h.04s.2-.24.2-.24l.29-.16.16-.19.29-.21.41-.26.2-.15c.6-.47.98-.76,1.15-.87l.07-.18h.13s.13.02.13.02l.16.25-.11.19-.12.1-.25.16-.07.14-.09-.04h-.04s0,.09,0,.09l-.54.36h-.13s-1.27.98-1.27.98l-.36.35-.36.39-.38.17-.25.16c-.92.77-1.66,1.36-2.2,1.77l-.15.24-.12.1-.51.23-.12.1-.08.1Zm1.56-20.61l-.18.37-.29.65-.15.24-.11.19v.04s-.42.13-.42.13l-.38.13-.34.17-.32.3-.04.05-.17.1-.18.37-.42.18-.28.69-.42.18-.15.24-.27.38v.09s-.44.35-.44.35l-.08-.35.16-.15.04-.09c.02-.06.03-.12.03-.18l.45-.79-.12-.34.24-.68.1-.28.38-.57.27-.38.08-.05.43-.53.15-.24.33-.25.23-.38h.04s.16-.2.16-.2h-.09s.21-.1.21-.1v.09s.28-.34.28-.34l.42-.18.38.31.45.13-.08.49.11.21Z"/><path class="cls-1" d="m341.67,78.43l-.17.02c-1.59-.04-2.99-.02-4.18.07l-.17.02-1.88.15-.3.08-.61.1-.92.09h-.31s-2.78.36-2.78.36l-.33.21-1.45.06-1.73.35-.49-.04-1.99.38-.62.37-.76.3-.52.05-.19-.11-1.13.12-.87-.35-.12-.25.07-.23.79-.43,1.19-.39,2.45-.16.17-.02,2.93-.65,1.39-.23h3.39c1.28-.12,2.24-.21,2.88-.24l.58-.32.41.09.11.17c1.4-.06,2.99-.05,4.76,0h.09s.71,0,.71,0l.43-.09.34-.08h.35s.22-.01.22-.01l.05.08h.09s.4.04.4.04l.33.23v.09s-.03.09-.03.09l-.38.17h-.53s-1.01-.02-1.01-.02l-.09-.03-.58-.03Z"/><path class="cls-1" d="m368.75,59.07l-.77,1.09-.73,1.04v.04s-.15.19-.15.19l-.27.38v.13s-.85,1.06-.85,1.06l-.06.27-.92,1.33-.39.48-.2.2-.11.23-.27.34-.03.14-.27.42-.31.43-.1.27-.3.52-.51.58-1.3,1.94-.27.42-.12.1-.21.11-.09-.04-.37.7.23.06.13-.06.27.06.05.08.39.31.07.26.39.4.33.19.29.23.03-.18.22-.02.15.16.17-.06.07-.18.64-.59h.13s.17-.12.17-.12h.13s.11-.2.11-.2l.12-.14h.09s.15-.25.15-.25l.25-.11.11-.19.24-.2.29-.21.93-.84.19-.28h.09s.84-.45.84-.45l.7-.51.15-.28.13-.06.17-.02.08-.1.75-.47h.13s.04-.02.04-.02l.12-.1,1.05-.5.08-.1.25-.11.34-.12,1.09-.55.21-.11h.13s.09.02.09.02l.34-.08c.34-.12.68-.2,1.03-.24l.42-.18.75-.03.61.33.45.13.21.38.05.08.09.03.19.16.12.3h.04s-.09.44-.09.44l-.49.4-.68-.2h-.09s-.49-.47-.49-.47l-.4-.45-.19-.11-.25.11h-.04s-.4-.04-.4-.04l-1.39.19-.7.51-.17.06v-.04s-.18.02-.18.02l-.34.08h-.13s-.5.28-.5.28l-.25.16-.82.22c-.78.46-1.61,1.04-2.51,1.75l-.08.1-.13.06-.21.15-.03.09h-.09s-.08.11-.08.11v.04s-.51.54-.51.54l-.21.07-1.23,1.36-.48.49-.35.48-.61.46.87.75.19.16.57.43.33.23.97.92.23.06,2.14,2.03.37.14.3.32.18.07.54.52.16.25.14.12.87.79.15.16.19.16.07.21.23.11.24.2v.13s.3.19.3.19l.33.23.19.16.34.32.34.36,1.31,1.23.37.18.04.35-.17.11-.26.03-.14-.12-.16-.29-.18-.07.03-.09-.18-.03-.52-.34-.15-.21-1.22-1.2-.57-.38-.51-.26-.31-.41-.3-.37-.93-.92-.37-.18-.64-.68-.33-.19-.78-.71-.52-.39-1.25-1.06-1.54-1.25-.47-.3h-.04s-.53-.43-.53-.43l-.52-.34-.1-.08-.48.45-.24.29-.65.6-.27.34-.82.61-.42.62-.63.28c-.38.33-.66.57-.85.7l-.31.38c-.21.23-.48.5-.82.83-.33.33-.67.6-1,.81v.09s-.11.1-.11.1l-.15.28-.72.69-.53-.03-.46-.22-.11-.25.05-.4h-.09s-.1-.07-.1-.07l.17-.02.07-.18.06-.27.13-.45h.04s0-.4,0-.4l.57-.94.29-1.04.38-.61.24-.2.38-.57.31-.47.3-.52-.03-.31.49-.36.16-.19.06-.31.08-.1.17-.11.31-.47.18-.37.14-.32-.19-.11-.37-.62.09-.45.23-.38.26-.07.22-.02v-.09s.12-.01.12-.01l-.04.09.1.08.23.11.27.11,1.61-2.41,1.44-1.86,1.3-1.98,1.1-1.3.47-.53h.04s1.4-1.86,1.4-1.86l.14-.37.9-1.15.37-.74,1.23-1.8,1.08-1.96.4-.44.29-.6,1.11-1.61.59-1.16.46-.71.43-.93.15-.28-.02-.17h-.09s-.01-.12-.01-.12h.09s-.08-.75-.08-.75l.05-.8v-.31s.45-.88.45-.88l.77-.65.45.04.45.13.02.22c.2-.08.31,0,.33.23-.05.39-.36,1.08-.93,2.08l-.27,1.22-.44.49-.15.24-.35.48-.12.14-.44.84-.26.51c-.07.16-.18.36-.34.61-.15.25-.24.39-.26.42h.09s0,.08,0,.08h-.09s-.04.06-.04.06l-.03.13-.06.23-.31.43-.19.73-.2.24-.12.1-.24.29-.15.24-.43.57-.07.18-.04.05-.08.05-.46.62-.07.18-.31.39-.15.24-.23.29-.34.56-.2.24Zm-10.87,18.38l.45-.35.36-.39.11-.19.36-.35.2-.24.69-.56.11-.19,1.63-1.36.04-.05-.35-.36-.67-.55-.23-.07-.19-.11-.17.02-.04.09h-.04s-.06-.12-.06-.12l-.56.1h-.04s-.38.57-.38.57l-.45.79-1.11,1.66-.38,1.1-.52.93-.05.36.19.16,1.1-.9Z"/><path class="cls-1" d="m400.01,75.68l.07-.14c.03-.3.07-.48.12-.54v-.09s.02-.14.02-.14l.18-.41.03-.18.11-.19.03-.09.04-.09.04-.09c.07-.18.18-.45.34-.8.15-.35.27-.62.34-.81l.06-.23.11-.19.18-.42.03-.14.18-.41.02-.27.15-.28-.04-.35-.1-.12-.11-.21-.16.15h-.09s-.54.28-.54.28l-.88.4-.12.1-.3.12-.41.26-1.03.68-.74.56-.25.16-2.42,1.74-.2.24h-.09s-.11.2-.11.2l-1.19.83-.46.22-.08.1-1.6,1.13-.08.1-.08.05-.15.24-.13.06v.04s-.37.21-.37.21l-.12.14h-.13s-.2.21-.2.21l-.08.05-.04.05-.08.05-.13.06-.17.11-.24.29-.17.06-.3.12-.24.2-.12.14-.33.21-.65.15-.29.16v.04s-.12.1-.12.1l-.05-.04h-.04s-.25.12-.25.12h-.13s-.03.11-.03.11l-.04.05-.05-.04.04-.05-.17.02h-1.23s0-.05,0-.05l-.26.03-.27-.11-.46-.22s-.07,0-.11-.01c-.04,0-.08-.01-.11-.01v-.04s-.04.05-.04.05l-.15-.21c-.03-.26-.03-.45-.01-.57l-.03-.26.05-.8.05-.36.15-.24.1-.36.03-.14.19-.28.07-.18.27-.38.43-.97.1-.36.23-.38.19-.33.13-.45.22-.42.15-.24.24-.24.04-.09.08-.1.19-.33v-.09s.04,0,.04,0l.18-.37.54-.72.14-.32.07-.14.04-.09.04-.45-.05-.48.06-.31-.11-.25-.02-.17.1-.27.24-.25.42-.66.37-.3.3-.03.24.15v.04s.02.04.05.04c.1.11.16.31.19.6l.05.04.16.73-.08.54-.18.37-.39.52-.27.82-.28.29-.12.14-.24.29-.23.33-.16.15-.03.09-.15.24-.24.24-.03.14h-.04s-.08.06-.08.06l-.8,1.27-.07.18-.11.23-.16.19c-.25.44-.42.76-.52.98l-.37.66c-.05.12-.12.28-.22.46l-.14.32v.31s-.06.44-.06.44l-.18.37-.02.27-.04.05c.02.17.04.29.08.34.24.3,1.04.11,2.41-.55l.24-.25.43-.09.63-.33.34-.12.33-.21c.58-.32,1.15-.66,1.7-1.01l.24-.24.29-.16.38-.21.25-.16.31-.38,1.05-.55c.05-.06.09-.1.12-.1l.07-.14.3-.12.9-.66.04-.05.15-.24.17-.06.07-.14.2-.15.12-.14.59-.24,1.23-.92.36-.35.54-.36.47-.58.29-.21.37-.26.5-.27.21-.15.33-.25,1.01-.5.17-.1.37-.26.23-.29.04-.09.08-.05.18.07c.25-.17.48-.31.71-.42l.04-.05.38-.21.14.03c.12.02.21.1.29.24l.08-.05.27.06.23.11.02.17-.07.14h.09s0,.08,0,.08l-.09-.04v.09s-.07.1-.07.1l-.1.27-.31.43-.18.37.03.26-.34.56-.07.23-.11.23-.19.33-.07.14-.13.45-.13.41-.23.33-.03.18-.3.56-.03.18-.13.41-.02.27-.18.42-.12.14c-.17.66-.16,1.06.03,1.19.25.21.56.31.91.3h.44s.35-.04.35-.04l.27.02.31-.03c.26-.03.76-.14,1.51-.33l.04-.05.26-.03.59-.24.22.02.95-.23.04-.05h.04s.25-.12.25-.12l.56-.1.43-.09h.04s.07-.05.13-.06h.04s.26-.08.26-.08l.23.06.1.12-.16.15-.17.06-.13.06-.78.12-.16.15-.12.1-.1-.08-.55.19-1.43.63-.39.08-.26.07-.55.23-.39.08-.3.07h-.09s-.07.06-.13.06h-.09s-.51.15-.51.15l-.64.2-.35.04c-.78.14-1.2.21-1.26.22l-.08.05-.09-.03h-.09s-.09-.03-.09-.03h-.13s-.15-.15-.15-.15l-.06-.13v-.09s-.06-.04-.06-.04v-.04c-.1-.11-.14-.31-.11-.61v-.31Z"/><path class="cls-1" d="m509.45,30.24l.1.08,1.02.07c.74.07,1.25.12,1.51.15l.26-.07.31.06.1.12c.51.1,1.54.37,3.08.83l.35-.04.18.03h.31s.18.04.18.04l.25-.11h.09s.25.27.25.27l.28.15.42.27s.08.04.13.03c.09.02.14.07.15.16l.66.42.07.3h-.35s-.38-.28-.38-.28l-.6-.25-4.43-1.05-.26.03-.37-.18c-.09-.02-.29-.06-.58-.12h-.09s-.05-.03-.05-.03c-.03,0-.07,0-.11-.01-.04-.01-.08-.01-.11-.01h-.04s-.27-.01-.27-.01h-.13s-.1-.07-.1-.07l-.81-.14c-.24,0-.72-.04-1.46-.12-.74-.07-1.32-.12-1.73-.13l-.26.07-.39.04-.17.06-.18-.03-.68-.2c-.47-.04-1.29-.06-2.43-.06l-.03.14-.14-.07-.05-.04-2.95.04-.95.23-.22.02h-1.59s-.26.01-.26.01v-.04s-.49.05-.49.05l-.75.03h-.09s-.14-.02-.14-.02h-.92c-.12.02-.28.03-.48.03-.21,0-.35.01-.44.02l-.17.02c-.06,0-.15,0-.26,0-.12,0-.19,0-.22,0l-.96.1-.03.09h-.49s-.09-.03-.09-.03c-.12.01-.28.02-.48.03-.21,0-.35.01-.44.02l-.04.05-.19-.11-.21.07-.12.14-.12.1-.08.05h-.09s-.27,0-.27,0l-.48.05h-.35s-.45-.09-.45-.09l-.34.12h.04s-.03.17-.03.17l-.43.13-.69.12h-.48s-.36-.09-.36-.09l-.45-.09-1.18.12h-.35s-.31-.02-.31-.02l-3.23.33-.74.12-.35.04-.43.13-.79.08-.4-.05-.39.08-.25.11-.45-.09c-.09,0-.22.03-.41.06-.19.03-.32.05-.41.06l-.17.06-.43.13h-.31s-.21.1-.21.1l-.44.04-.21.11-.32-.1-.22.02-1.17.21c-.11.04-.27.07-.48.09l-.43.13-.73.21-.7.07-1.59.38-.5.27-.78.17-.18-.03-.26.03c-.23.08-.4.13-.51.14l-.12.1-.48.09-.55.23-.87.13-.64.2-.04.05-.12.1-1.25.26h.04s-.51.14-.51.14l-1.02.37-.74.12h-.13s-.77.22-.77.22l-.04.05-.82.21-.12.06v-.04s-.09.05-.09.05l-.17.06-.39.08v.04s-.08,0-.08,0l-.55.19-.3.12-.13.06-.17.02-.12.06-.6.15-.12.1-.3.07-.3.12-.78.17-.66.42-.34.12-.21.06-.09-.03h-.09s-.39.09-.39.09l-.36-.09-2.09.7c-.61.33-1.44.69-2.49,1.09l-.08.09-.15.24h-.13s-.08.07-.08.07l-.47.14-.99.28-.56.14-1.31.53c-.36.18-.83.45-1.39.8-.57.35-.89.55-.98.58-.3.24-.74.55-1.32.93-.58.38-.92.61-1.03.68h-.04c-.17.08-.41.28-.73.61-.32.33-.55.53-.69.6-.14.07-.27.06-.4-.05l-.1.27-.03.53-.07.14-.26.07-.16.19-.47.14-.12.1-.08.1-1.24,1.27-.69-.28v-.13s-.13-.3-.13-.3l.02-.22c-.06-.05-.06-.16.01-.31l-.02-.17v-.44s.04,0,.04,0l.39-.48h-.13s-.02-.16-.02-.16l.27-.34.34-.56.36-.39h.13s.04-.1.04-.1l.25-.16.25-.2-.06-.17.14.07.44-.4.1.08.27.02.2-.24.27.1.14.07.28-.25.39-.08.25-.16.19-.33.31-.38.5-.23.95-.18c.22-.14.39-.23.5-.27l.41-.26.68-.29.88-.4.41-.31.35-.04,1.05-.46.32-.3.38-.13.05.08.25-.16.37-.3.55-.28h.09s0-.1,0-.1l.26-.03.21-.15v-.09s.08,0,.08,0v.04s.47-.14.47-.14l.09.04.18-.02.25-.11.14.07.26-.03.26-.07.22-.02.46-.22.12-.1.42-.18.47-.14.74-.12c.28-.09.82-.24,1.6-.47.79-.23,1.35-.4,1.69-.52l.6-.19.3-.12,2.27-.67.61-.11.13-.06,2.22-.71.65-.11.51-.14v.04s.26-.11.26-.11l1.08-.24,1.14-.47.52-.14.73-.16.91-.14.56-.15.51-.18,1.96-.24.17-.02c.2-.02.48-.08.82-.17l.59-.28.03-.18.27.02.37.18c.2-.02.36-.05.47-.09l.21-.06.69-.2.21-.07.39-.04.14.07,2.72-.5.13-.06.6-.15.26-.07.66.02s.09-.02.17-.04c.09-.02.14-.04.17-.04h.09s3.34-.48,3.34-.48l.17-.06.3-.03.51-.14.26-.03.29-.21.22-.02.54.12.52-.05.18.03,1.4-.14.04-.05.43-.09.61-.1.43-.09.72.1,1.96-.2.13-.06.04-.09.05.04v.04s.22-.02.22-.02v.04s1.93-.11,1.93-.11l.29-.16.51-.14.67.06.68-.2.31-.03.44.04.53.03h.31s.35-.02.35-.02l.9.17c.23-.02.58-.03,1.06-.02l.13-.06.08-.1.14.12,1.94-.02,2.25.03.26-.07.36.05.22.02.71.06.39-.04.05.04h.31s.62,0,.62,0l.22-.02.19.16,1.24.09.3-.07.36.05.58.07.75-.03Zm-53.76,38.69l-.63,1.17-.03.14-.26.42-.07.18-.09.36-.11.23-.46,1.1-.34.96-.41.7-.17.1-.36.83.05.04h-.04c-.05.13-.11.29-.19.51-.08.21-.15.37-.2.46l-.02.22-.61,1.82.05.04-.08.05-.25.56.06.17-.92,2.61-.16.15-.08.1c-.09.27-.15.55-.18.81-.08.1-.13.15-.16.15l-.02.27-.06.23-.04.05-.33-.19.03-.18.23-.33h-.04s.36-1.71.36-1.71l.5-1.55h-.04s.03-.17.03-.17v-.04s.08-.45.08-.45c.12-.22.25-.27.38-.17.84-2.76,1.45-4.63,1.86-5.61l.47-1.46.2-.24c.16-.49.35-.89.58-1.21l.31-.87.3-.47.04-.49.85-1.58.09-.45.48-.93.33-.65.73-.65.86-1.54-.1-.08.16-.19.28-.29.07-.18.45-.8.12-.5.78-1.4.26-.51.85-1.63.58-.85.14-.37.08-.1.37-.74v-.04s.04-.05.04-.05l.3-.56.06-.71.15-.28.28-.29.34-.17.05-.36.07-.14-.02-.17-.06-.13.16-.19.02-.22.15-.24-.1-.08h.13s.27-.35.27-.35l.05.08v-.04s.31-.38.31-.38l.22-.46,1.29-2.07.39-1.41.29-1,.3-.96.43-.57.21-.11.19-.28.64-1.04,1.04-.59.24.24.11.17.13-.06.24-.2h.13s0,.03,0,.03l.39-.08.04-.05.21-.06.3-.03.24.15.12.3-.18.37-.33.61-.14.37-.08.05-.03.14-.22-.02-.26.03-.34.17-.39.08-.17.1-.39.92-.38.61-.07.14h-.04s-1.08,1.96-1.08,1.96l-.29.21-.71,1.22-.02.27.03.75-.23.38-.28.69-.17.1-.16.19h-.13s-.12.11-.12.11l-.25.11-.15.24-.1.32-.49.8-.19.72-.24.25-.19.33-.19.28-.12.15-.68,1.13-.03.14-.1.28-.15.28-.07.18-.17.1-.11.19h-.04s-1.13,1.93-1.13,1.93l-.09.41-.14.37-.22.42-.26.51-.31.43-.13-.03-.36,1.27-.35.48-.27-.06-.74,1.44h.04s-.16.19-.16.19v.35s-.09.05-.09.05l-.15.28-.12.14-.15.24-.15.28-.22.38-.22.42-.25.16-.73,1.49v.04s-.17.41-.17.41l-.04.05Z"/><path class="cls-1" d="m491.58,59.99c-.03.3-.06.52-.11.67l-.14.37s0,.09.02.17c0,.09,0,.15-.03.18l-.22.46-.26.47-.37.3-.39.48-.15.24-.2.24-.32.3-.08.05c-.56.59-1.35,1.28-2.39,2.09v.09s-.12.01-.12.01l-.45.35v.04s-.07.1-.07.1l-.17.02s-.05.05-.08.05v.13s-.16.02-.16.02l-.32.3h-.04s-.2.24-.2.24l-.3.12-.15.24-.28.25-.17.06-.48.09-.16.11-.26.07h-.09c-1.06.53-1.68.82-1.85.9l-.16.15-.13.06-.15.24-.12.06-.32-.06-.3.03-.83.04h-.79s0-.05,0-.05c-.03,0-.06.01-.08.03s-.06.03-.09.03c-.26,0-.49-.04-.67-.11-.03-.03-.16-.09-.37-.18-.21-.1-.41-.19-.58-.29-.17-.1-.26-.19-.27-.28l-.04-.39-.13.06-.07-.26.22-.82.23-.77.15-.28.47-.58.28-.25.07-.14.69-.6.59-.72.11-.23.16-.19.88-.84.24-.25.21-.06.08-.1.33-.25.07-.14.05.08.97-.89.2-.24.13-.06.37-.3.27-.38.36-.39.59-.28.52-.54.33-.21.37-.26c.11-.1.29-.25.55-.45.26-.2.46-.35.59-.46l-.62-.02c-.4.1-.68.16-.82.17l-.13.06-.04.05-.14-.03-.52.05c-.78.17-1.22.26-1.34.27h-.04s-1,.15-1,.15l-.54-.08-.28-.15-.15-.21v-.31s.31-.56.31-.56l.33-.17.43-.13.43-.09.36.09.67.11c.73-.07,1.43-.09,2.11-.04l.47-.13.7-.03.81-.22.14.03.73-.16c.08-.04.21-.12.37-.26l.37-.3.33-.21.12-.06.21-.15.34-.08.39-.08c.4-.1.71-.14.91-.14l.3-.07.14.12c.15.01.32.08.51.21l1.21-.25.04-.05.51-.18.65-.11.68-.29.26-.07.43-.09.87-.09.34-.08h.53s.04-.01.04-.01c.26-.03.45-.06.56-.1.06,0,.17-.02.35-.06s.3-.05.39-.06l.17-.06.08-.05h.09s.1.07.1.07l.26-.03.25-.11.31-.03h.4s.09,0,.09,0l.3-.08.27.1h.13s.17-.08.17-.08h.35s.18.03.18.03c.59.03,1.01.07,1.25.14l.19.11.17-.02.15.16c.06.02.33.16.79.4h.09s.14.11.14.11l.23.06.16.25.2.25v.13s-.23.25-.23.25l-.1.32-.32.74-.15.28v.04c-.05.06-.07.11-.07.14l-.15.28-.25.11-.04-.35.07-.14v-.09c-.01-.06.05-.25.2-.59l.07-.23.23-.82-.05-.08s0-.06,0-.09l-.15-.2-.46-.17-.38-.23-.67-.11c-.65-.08-1.62-.06-2.9.07l-.65.07-.52.1c-.17.02-.38.06-.62.13-.24.07-.41.11-.5.12-1.39.23-2.88.54-4.49.94l-.08.05-.38.13-.2.15-.7.03c-.2.05-.54.13-1.01.26-.47.12-.85.21-1.14.27l-.33.17-.35.04-.78.17-.21.15c.27.06.66.17,1.18.32h.09s.14.11.14.11l.09.03.19.11.37.18.58.51.16.29.27.5.04.79Zm-1.88,1.91c.38-.63.61-1.1.69-1.44l-.03-.26.13-.41-.02-.62v-.04s-.27-.41-.27-.41l-.29-.23-.33-.19-.37-.18-.32-.1-.41-.09-.37-.18-.27-.06-.09-.04c-.19.14-.48.37-.85.7-.38.33-.67.6-.89.79l-.36.34-.28.29-1.48,1.08-.41.35-.29.21-.82.66-.04.05-.2.2-.62.42-.49.4-.45.35-.2.2-.57.5-.04.05-.42.62-.34.56-.19.33-.04.05h-.04c-.31.42-.51.81-.59,1.17v.09s-.02.18-.02.18l-.06.23.03.26-.04.09-.03.14c.1.4.24.67.43.79h.09s.28.14.28.14c.03,0,.07,0,.13,0,.06,0,.1.01.13,0,.91-.03,1.95-.32,3.13-.85.48-.2,1.08-.49,1.81-.89l.04-.09h.13s.5-.33.5-.33l.31-.38.7-.47.17-.06h.09s1.26-1.06,1.26-1.06l.12-.14.08-.05c.22-.2.54-.52.96-.98l.11-.19.08-.14.24-.24.23-.33.11-.23.17-.06.07-.18.12-.14.08-.14h.09Zm.62-6.01l1.29-.35c-.22-.1-.65.02-1.29.35Z"/><path class="cls-1" d="m519.77,43.73l-.77,1.09-.73,1.04v.04s-.15.19-.15.19l-.27.38v.13s-.85,1.06-.85,1.06l-.06.27-.92,1.33-.39.48-.2.2-.11.23-.27.34-.03.14-.27.42-.31.43-.1.27-.3.52-.51.58-1.3,1.94-.26.42-.12.1-.21.11-.09-.04-.37.7.23.06.13-.06.27.06.05.08.38.31.07.26.39.4.33.19.29.23.03-.18.22-.02.15.16.17-.06.07-.18.64-.59h.13s.17-.12.17-.12h.13s.11-.2.11-.2l.12-.14h.09s.15-.25.15-.25l.25-.11.11-.19.24-.2.29-.21.93-.84.19-.28h.09s.84-.45.84-.45l.7-.51.15-.28.13-.06.17-.02.08-.1.75-.47h.13s.04-.02.04-.02l.12-.1,1.05-.5.08-.1.25-.11.34-.12,1.09-.55.21-.11h.13s.09.02.09.02l.34-.08c.34-.12.68-.2,1.03-.24l.42-.18.75-.03.61.33.45.13.21.38.05.08.09.03.19.16.12.3h.04s-.09.44-.09.44l-.49.4-.68-.2h-.09s-.49-.47-.49-.47l-.4-.44-.19-.11-.25.11h-.04s-.4-.04-.4-.04l-1.39.19-.7.51-.17.06v-.04s-.18.02-.18.02l-.34.08h-.13s-.5.28-.5.28l-.25.16-.82.22c-.78.46-1.61,1.04-2.51,1.75l-.08.1-.13.06-.21.15-.03.09h-.09s-.08.11-.08.11v.04s-.51.54-.51.54l-.21.07-1.23,1.36-.48.49-.35.48-.61.46.87.75.19.16.57.43.33.23.97.92.23.06,2.15,2.03.37.14.3.32.18.07.54.52.16.25.15.12.87.79.15.16.19.16.07.21.23.11.24.2v.13s.3.19.3.19l.33.23.19.16.34.32.34.36,1.32,1.23.37.18.04.35-.17.11-.26.03-.14-.12-.16-.29-.18-.07.03-.09-.18-.03-.52-.34-.15-.21-1.22-1.2-.57-.38-.51-.26-.31-.41-.3-.37-.93-.92-.37-.18-.64-.68-.33-.19-.78-.71-.52-.39-1.25-1.06-1.54-1.25-.47-.3h-.04s-.53-.43-.53-.43l-.52-.34-.1-.08-.48.45-.24.29-.64.6-.28.34-.82.61-.42.62-.63.28c-.38.33-.66.57-.85.7l-.31.38c-.21.23-.48.51-.82.83-.33.33-.67.6-1,.81v.09s-.11.1-.11.1l-.15.28-.72.69-.53-.03-.46-.22-.11-.25.05-.4h-.09s-.1-.07-.1-.07l.17-.02.07-.18.06-.27.13-.45h.04s0-.4,0-.4l.57-.94.29-1.04.38-.61.24-.2.38-.57.31-.47.3-.52-.03-.31.49-.36.16-.19.06-.31.08-.1.17-.11.3-.47.18-.37.14-.32-.19-.11-.37-.62.09-.45.23-.38.26-.07.22-.02v-.09s.12-.01.12-.01l-.04.09.1.08.23.11.27.11,1.61-2.41,1.44-1.87,1.3-1.98,1.1-1.3.47-.53h.04s1.4-1.86,1.4-1.86l.14-.37.9-1.15.37-.74,1.23-1.8,1.08-1.96.4-.44.29-.6,1.11-1.61.59-1.16.46-.71.43-.93.15-.28-.02-.17h-.09s-.01-.12-.01-.12h.09s-.08-.75-.08-.75l.05-.8v-.31s.45-.88.45-.88l.77-.65.45.04.45.13.02.22c.2-.08.31,0,.33.23-.05.39-.36,1.08-.93,2.08l-.27,1.22-.44.49-.15.24-.35.48-.12.14-.44.84-.26.51c-.07.16-.18.36-.33.61-.15.25-.24.39-.27.42h.09s0,.08,0,.08h-.09s-.04.06-.04.06l-.03.14-.06.23-.31.43-.19.72-.2.24-.12.1-.24.29-.15.24-.43.57-.07.18-.04.05-.08.05-.46.62-.07.18-.31.39-.15.24-.23.29-.34.56-.2.24Zm-10.87,18.38l.45-.35.36-.39.11-.19.36-.35.2-.24.69-.56.11-.19,1.63-1.36.04-.05-.35-.36-.67-.55-.23-.07-.19-.11-.17.02-.03.09h-.04s-.06-.12-.06-.12l-.56.1h-.04s-.38.57-.38.57l-.45.79-1.11,1.66-.37,1.1-.52.93-.05.36.19.16,1.1-.9Z"/><path class="cls-1" d="m535.69,58.6l-.33.65.02.22-.2.24-.11.19s-.04.03-.03.09v.13s-.13.28-.13.28l.07,1.09s-.03.13,0,.38c.03.25.09.41.18.49.23.21.66.39,1.29.53l.76.1.57-.06.65-.15,3.11-1.02.58-.32,1.64-.74.33-.25.17-.11h.09s2.51-1.37,2.51-1.37l.17-.02.29-.2.38-.13,1.39-.67.17-.06c.56-.29,1.2-.66,1.91-1.12.72-.45,1.26-.79,1.62-1l.92-.45.04-.09.25-.16.76-.34.79-.43v-.09s.12-.01.12-.01l.5-.31.04-.09,2.21-1.68.21-.06c.22-.17.51-.42.89-.75.1-.13.19-.12.27.02v-.04s.16-.15.16-.15l.18.03.17.38-.21.11-.38.17-.21.11-.93.8-.19.33-.22.02-.17.1c-.11.1-.49.37-1.15.82l-.04.05-.29.21-.16.15h-.13s-1.32.85-1.32.85l-.04.09-.17.06-.33.21-.08.05-.57.45-1.59.87c-.11.07-.27.18-.47.31-.21.14-.39.26-.56.36-.17.11-.32.19-.46.27l-.12.14-2.07,1.27-.16.15-.1-.12-.45.35-.51.14-.33.21h-.04c-.36.22-.9.51-1.63.87l-.62.42-1.29.79-.34.12-.52.14-.72.29-.43.09-.17.1-.16.15-.55.19h-.09c-.48.23-1.05.42-1.71.58l-.12.14-.21.07h.04s-.86.26-.86.26l-.27-.06-.46.22-1.06-.07-1.01-.38-.5-.57-.28-.54-.19-.6-.08-.74.04-.09-.05-.08-.03-.3.19-1.12.25-.56.27-.82.22-.46.08-.1.09-.36.24-.24.1-.32.22-.42.12-.14.46-.27.15-.24.29-.16.32-.3.08-.05.4-.44.36-.35.26-.47.16-.19.19-.28.16-.15.25-.11.07-.14.2-.24.33-.17.21-.11c1.27-1.13,2.2-1.91,2.8-2.36l.08-.1.4-.35.54-.28c.06,0,.09-.02.08-.05l.49-.4.29-.2.13-.06.6-.15c.61-.3,1.08-.51,1.39-.63l.37-.26.44-.04.25-.11.14.07c.46-.05.8-.07,1.01-.06l.04-.05.13-.06.09.04.13-.06.04-.05.27.06v-.04s.04,0,.04,0l-.03.09.14.07h.13s.05.07.05.07h.04s.27.1.27.1l.05.04c.28.18.45.34.49.48l.14.03-.04.09h.04s-.04.04-.04.04l.02.22.06.17-.06.31-.07.14.03.26-.11.67-.29.6-.39.48-.45.35-.37.3-1.45.94-.2.2-.3.12c-.79.67-1.78,1.4-3,2.2l-.03.09-1.2.74-.53.45-1.09.59-.8.39-1.16.34-.69.11-.3.03-.28-.1-.11-.21.07-.14.24-.64.55-.63.54-.28.35-.04.31.06.36.05.57-.06.52-.14.54-.28.17-.02.07-.14,1.22-.56,1.12-.69.54-.36.19-.28.54-.28.07-.18.63-.28.16-.19.52-.49,1.8-1.86.15-.24.06-.31.07-.14.15-.68-.05-.04-.05-.08-.11-.21-.24-.24-.32-.1-.31-.06-.48.05-.3.07-.18-.03c-.62.21-1.64.74-3.05,1.59l-.5.31-.12.14-.2.2-.18-.02s-.05.05-.08.05v.09s-.24.11-.24.11l-.08.1h-.09s-.91.63-.91.63l-.44.44-.27.34-.42.18-.17.1c-.06.04-.4.36-1.05.99l-.19.28-.51.58-.27.34-.44.49-.55.67-.54.76-.12.14-.22.42-.26.47-.39.48Z"/><path class="cls-1" d="m562.7,53.83l-.33.25c-.19.17-.46.43-.8.79-.35.36-.53.56-.56.59l-.08.1-.28.29-.19.33-.11.23-.21.07-.03.18-.21.15-.03.14-.17.02-.66.9v.09s-.07.1-.07.1l-.14.37-.11.19-.11.23c-.14.4-.12.7.05.92l.15.16.23.11.27.06.05.04c.27.06.75.03,1.44-.1l.54-.28.34-.08.57-.06.68-.24.35-.04.38-.17.08-.05,1.1-.42.17-.02.68-.29.29-.16.38-.22.24-.24,1.02-.32.34-.17.2-.2.8-.35c.37-.15.86-.37,1.48-.64.62-.27,1.04-.46,1.26-.57l1.3-.66h.13s.25-.13.25-.13l.3-.12,1.09-.51.51-.14c.9-.39,1.43-.63,1.6-.74l1.22-.61v-.09s.08.04.08.04c.06,0,.14-.04.25-.11l.25-.16.03-.09,1.72-.88c.19-.11.85-.54,1.98-1.3l.12-.15.13-.06.26-.03.15.2-.12.15-.48.49-.46.22c-1.23.92-2.33,1.63-3.31,2.14v.13s-.07.1-.07.1l-.35.04-.63.29-.46.27-.17.02-.38.17-1.05.55-.04.05h-.09s-1.13.65-1.13.65l-.71.34h-.04s-.17.11-.17.11l-.21.15-.46.22-.13.06-.21.07-.26.07-.46.22-1.35.62-.38.21-.17.02-1.41.85-1.94.81-1.39.63-1.09.55-1.21.65-.76.3-.99.19-.31.03-.12.1-.8-.05-.82-.23h-.09s-.68-.14-.68-.14l-.24-.2-.02-.22-.11-.21-.07-.26.07-.23c-.03-.32-.04-.57-.03-.75l-.1-.08v-.13s-.07-.08-.07-.08l.13-.06-.03-.26h-.04s0-.04,0-.04h.09s.03-.14.03-.14v-.13s.03-.05.03-.05v-.04s.05-.31.05-.31l.31-.43.07-.18.08-.05v.04s.15-.28.15-.28v-.04s.16-.15.16-.15l.08-.05.35-.48.08-.14.31-.38.22-.42.12-.1.31-.38.25-.11.08-.1.11-.23.2-.2.34-.12c.13-.13.46-.41.97-.85l.04-.09.08-.05.27-.34.13-.06c.11-.07.27-.2.49-.4l.24-.29.3-.12.16-.15h.04s1.96-1.48,1.96-1.48l.28-.29.91-.58.33-.25,1.03-.68.08-.05,1.16-.69.29-.21.37-.26.31-.38.21-.15.52-.05.16-.19.13-.06.03-.09.03-.14.13-.06.03-.09.04-.05.21-.11v-.04s.03-.09.03-.09l.05.08h.13s.13-.07.13-.07h.09s.3-.08.3-.08l.52-.05.05.08.5-.31.7-.07.15.16c.09,0,.13.02.14.07l.25.24v.31s.28.24.28.24l.07.26.02.22-.31.43-.49.4h-.13s-.63-.1-.63-.1l-.6-.29-.3.12-.09.41-.24.24-.33-.23-.06-.17-.68.24-1.2.78-.51.18-.45.31-.3.08-.95.67-.22.02-.2.24-.26.03-.5.27-.82.57-.11.19-.1-.08-.58.37-.13.06-.45.35-.23.33-.29.21-.41.26-.08.1-.52.49-.41.35-.2.24Z"/><path class="cls-1" d="m602.06,52.52l-.23.73.03.31-.15.28-.04.05-.06.31.05.08-.11.23c-.02.12-.01.29.01.53l.07.26.15.16.2.2.23.11.23.07c.09,0,.24-.05.47-.14l.34-.17.08-.1h.13s1.49-1,1.49-1l.17-.06.21-.11,1.46-1.21h.04s.08-.06.08-.06l.81-.7.11-.19.17-.02.24-.25.5-.31.61-.55.12-.14.41-.31.04-.05.64-.68s.07-.05.13-.06l.08-.1.17-.1.2.2.02.17-.12.1-.37.26-.57.45-.16.19-.48.45c-.4.42-.88.88-1.45,1.38l-.36.39h-.13s-.2.21-.2.21l-.11.19-.08.05-.11.23-.24.2-.17.1-.24.25-.12.14-.41.31-.16.19-.25.11-.34.12-.08.1-.41.26-.65.59-.12.1-.24.25-.12.1h-.09s-.12.11-.12.11l-.33.21-.3.12-.43.09c-.34.15-.52.23-.55.23-.17.02-.29.01-.35,0l-.26.07-.24-.15-.1-.12-.05-.04-.3-.32v.04s-.2-.24-.2-.24l-.04-.83-.04-.79v-.31s-.07-.35-.07-.35l.04-.09.25-.16.07-.18.15-.24.03-.18.23-.33.07-.18.07-.14.03-.53.25-.6c.03-.27.12-.65.26-1.15.14-.5.23-.82.28-.98l.1-.71c.29-.65.4-1.17.32-1.58l.04-.09v-.31s-.23-.2-.23-.2c-.26.03-.64.18-1.14.47l-.62.42-.3.12-.45.31-.32.3-.08.09-.33.21-.28.29-.79.48-.21.11c-.11.07-.28.19-.49.36l-.12.14-2.18,1.5-.19.33-.22.02-.11.23-.16.19-.27.38-.43.13-.63.73-1.28,1.32-1.04,1.08-.97.85-.2.15-.29.21-.23.29v.13s-.26-.06-.26-.06l-.66.42-.45.35-.43.13-.78.12-.16.19-.31.03-.24-.2-.13-.38.03-.58.15-.68.06-.31.29-.65.18-.42.19-.68.04-.09.11-.23.09-.36v-.44l.08-.54.33-.61.11-.67.1-.32.18-.37.26-.47.15-.28.14-.32.61-.94.28-.73.03-.18.04-.05.03-.14.13-.06.45-.75.07-.14.07-.18h.04s.51-1.03.51-1.03l.1-.27.19-.28.26-.47.13-.45.15-.28.43-.53c.24-.49.44-.87.59-1.12l.61-1.38.29-.25c.45-.81,1.14-2.03,2.1-3.65l.11-.19.07-.18.14-.41.32-.34.22-.46.14-.32v-.31s.13-.1.13-.1l.36-.39.19-.33.14-.32.27-.82.18-.41.23-.38.27-.38.31-.83.03-.18.07-.23.12-.14v-.13s.16-.41.16-.41l.04-.05h.04s.11-.24.11-.24l.11-.19.08-.05.03-.09.26-.47.27-.42.15-.28.08-.05-.04.09.04-.05v-.04s.1-.32.1-.32l.03-.18.28-.29.11-.28.11-.19.07-.14.46-.71.18-.42.13-.41.07-.18.06-.27.11-.19-.07-.26.03-.14.34-.12.48-.49.18-.37.56-.59.23-.38.15-.28-.02-.17.16-.15.07.26.31-.43.33-.21.38.31.19.55-.49,1.68-.91,1.5-.35.48-.87,1.01-.44.4-1.56,2.8.05.04-.18.37-.25.55-.18.42-.23.29-.36.39-1.47,2.48.02.17-.33.65-.14.32-.2.2-.23.38-.33.65-.92,1.33v.31s-.6.72-.6.72l-.34.56-.06.27-.53.89-.36.79-.32.34-1.71,3.17c-.44.87-.79,1.52-1.04,1.96l-.03.18-.08.1-.11.19c-.49.93-.85,1.64-1.06,2.13l-.03.09-.08.05-.32.74.04.35-.35.92-.18.81-.4,1.23-.23.82-.04.44-.24.64-.02.62.2.24.18.07.22-.02.54-.36.23-.29.08-.05.11-.19.29-.16.15-.24.24-.24.16-.19.45-.31.17-.11.32-.3,1.27-.97.32-.34.16-.15.24-.29.17-.1.54-.36,1.33-1.19.07-.14.31-.38.66-.42.49-.4.13-.06c.29-.26.74-.63,1.34-1.1l.51-.62.33-.25.11-.19.21-.07.12-.14.32-.3.38-.13.98-.36.17-.02c.73-.34,1.5-.39,2.32-.15.12.05.19.1.19.16l.23.11.37.18.11.25v.35s-.21.59-.21.59l-.04.05c-.14.37-.36,1.07-.67,2.1-.02.09-.18.58-.47,1.46l.04.39-.33.61Z"/><path class="cls-1" d="m627.63,46.18c-.03.3-.06.52-.11.67l-.14.37s0,.09.02.17c0,.09,0,.15-.03.18l-.22.46-.26.47-.37.3-.39.48-.15.24-.2.24-.32.3-.08.05c-.56.59-1.35,1.28-2.39,2.09v.09s-.12.01-.12.01l-.45.35v.04s-.07.1-.07.1l-.17.02s-.05.05-.08.05v.13s-.16.02-.16.02l-.32.3h-.04s-.2.24-.2.24l-.3.12-.15.24-.28.25-.17.06-.48.09-.16.11-.26.07h-.09c-1.06.53-1.68.82-1.85.9l-.16.15-.13.06-.15.24-.12.06-.32-.06-.3.03-.83.04h-.79s0-.05,0-.05c-.03,0-.06.01-.08.03s-.06.03-.09.03c-.26,0-.49-.04-.67-.11-.03-.03-.16-.09-.37-.18-.21-.1-.41-.19-.58-.29-.17-.1-.26-.19-.27-.28l-.04-.39-.13.06-.07-.26.22-.81.23-.77.15-.28.47-.58.28-.25.07-.14.69-.6.59-.72.11-.23.16-.19.88-.84.24-.25.21-.07.08-.1.33-.25.07-.14.05.08.97-.89.19-.24.13-.06.37-.3.27-.38.36-.39.59-.28.52-.54.33-.21.37-.26c.11-.1.29-.25.55-.45.26-.2.46-.35.59-.46l-.62-.02c-.4.1-.67.16-.82.17l-.12.06-.04.05-.14-.03-.52.05c-.78.17-1.22.26-1.34.27h-.04s-1,.15-1,.15l-.54-.08-.28-.15-.15-.21v-.31s.31-.56.31-.56l.33-.17.43-.13.43-.09.36.09.67.11c.73-.07,1.43-.09,2.11-.04l.47-.13.7-.03.81-.21.14.03.73-.16c.08-.04.21-.12.37-.26l.37-.3.33-.21.12-.06.21-.15.34-.08.39-.08c.4-.1.71-.14.91-.14l.3-.07.14.12c.15.01.32.09.51.21l1.21-.25.04-.05.51-.18.65-.11.68-.29.26-.07.43-.09.87-.09.34-.08h.53s.04-.01.04-.01c.26-.03.45-.06.56-.1.06,0,.17-.02.35-.06.17-.03.3-.05.39-.06l.17-.06.08-.05h.09s.1.07.1.07l.26-.03.25-.11.31-.03h.4s.09,0,.09,0l.3-.07.27.1h.13s.17-.07.17-.07h.35s.18.03.18.03c.59.03,1.01.07,1.25.14l.19.11.17-.02.15.16c.06.02.33.16.79.4h.09s.14.11.14.11l.23.06.16.25.2.24v.13s-.23.25-.23.25l-.1.32-.32.74-.15.28v.04c-.05.06-.07.11-.07.14l-.15.28-.25.11-.04-.35.07-.14v-.09c-.01-.06.05-.25.2-.59l.06-.23.23-.82-.05-.08s0-.06,0-.09l-.15-.2-.46-.17-.38-.23-.67-.11c-.65-.08-1.62-.06-2.9.07l-.65.07-.52.1c-.17.02-.38.06-.62.13-.24.07-.41.11-.5.12-1.39.23-2.88.54-4.49.94l-.08.05-.38.13-.2.15-.7.03c-.2.05-.54.13-1.01.26-.47.12-.85.21-1.14.27l-.33.17-.35.04-.78.17-.21.15c.27.06.66.17,1.18.32h.09s.14.11.14.11l.09.04.19.11.37.18.58.51.16.29.27.5.04.79Zm-1.88,1.91c.38-.63.61-1.1.69-1.44l-.03-.26.13-.41-.02-.62v-.04s-.27-.41-.27-.41l-.29-.24-.33-.19-.37-.18-.32-.1-.41-.09-.37-.18-.27-.06-.09-.04c-.19.14-.48.37-.85.7-.38.33-.67.6-.89.79l-.36.34-.28.29-1.48,1.08-.41.35-.29.21-.82.65-.04.05-.2.2-.62.42-.49.4-.45.35-.2.2-.57.5-.04.05-.42.62-.34.56-.19.33-.04.05h-.04c-.31.42-.51.81-.59,1.17v.09s-.02.18-.02.18l-.06.23.03.26-.04.09-.03.14c.1.4.24.67.43.79h.09s.28.14.28.14c.03,0,.07,0,.13,0,.06,0,.1.01.13,0,.91-.03,1.95-.32,3.13-.85.48-.2,1.08-.49,1.81-.89l.04-.09h.13s.5-.33.5-.33l.31-.38.7-.47.17-.06h.09s1.26-1.06,1.26-1.06l.12-.14.08-.05c.22-.2.54-.52.96-.98l.11-.19.08-.14.24-.24.23-.33.11-.23.17-.06.07-.18.12-.14.08-.14h.09Zm.62-6.01l1.29-.35c-.22-.1-.65.02-1.29.35Z"/></g></svg>