<?xml version="1.0" encoding="UTF-8"?><svg id="_レイヤー_2" xmlns="http://www.w3.org/2000/svg" viewBox="0 0 910.5 28.35"><defs><style>.cls-1{fill:#fff;}</style></defs><g id="_レイヤー_4"><path class="cls-1" d="m11.46,6.03c-4.23.48-5.28.57-8.79.72-.24-1.2-.57-2.01-1.23-3.15,6.54-.03,12.81-.75,17.37-2.04,1.59-.42,2.4-.75,3.3-1.26l2.25,3c-.99.24-1.02.27-1.92.51-3.18.93-4.83,1.32-7.44,1.74v6.27h8.52c1.56,0,2.55-.06,3.48-.21v3.51c-1.08-.15-2.07-.21-3.45-.21h-8.55v9.72c0,1.83.06,2.73.21,3.69h-3.96c.15-1.02.21-1.92.21-3.75v-9.66H3.42c-1.38,0-2.28.06-3.42.21v-3.51c1.02.15,1.95.21,3.42.21h8.04v-5.79Z"/><path class="cls-1" d="m55.35,18.93h8.67c1.44,0,2.58-.06,3.51-.18v2.97c-.99-.12-2.07-.18-3.51-.18h-6.06c2.52,1.77,5.64,2.85,10.17,3.48-.75.99-1.11,1.65-1.65,2.94-2.67-.66-4.17-1.11-5.76-1.8-2.25-.96-3.75-1.92-5.43-3.42v.18q0,.09.03.36c0,.18,0,.42.03.72q0,.12.03.69v1.11c0,1.32.03,1.8.18,2.55h-3.51c.15-.87.18-1.53.18-2.55v-1.08c.03-.45.06-.81.06-1.17,0-.18.03-.36.06-.81-3.21,2.76-5.55,3.9-10.56,5.25-.54-1.2-.93-1.83-1.77-2.76,4.2-.72,7.35-1.89,9.78-3.69h-5.7c-1.44,0-2.49.06-3.51.18v-2.97c.93.12,1.98.18,3.51.18h8.16v-1.59h-4.98c-.9,0-1.86.03-2.76.09.06-.84.09-1.44.09-2.46v-4.44h-.81c-1.65,0-2.49.03-3.42.15v-2.91c.81.15,1.56.18,2.97.18h1.26c0-.75-.03-1.2-.12-1.71h3.12c.03-.42.06-.81.06-1.32h-3.78c-1.44,0-2.52.06-3.48.15v-2.94c.99.12,1.98.18,3.48.18h3.78v-.33c0-.54-.03-.99-.15-1.62h3.39c-.09.69-.12,1.05-.12,1.62v.33h6.09v-.33c0-.54-.03-.96-.12-1.62h3.39c-.09.57-.12,1.02-.12,1.62v.33h3.96c1.56,0,2.52-.06,3.48-.18v2.94c-.99-.09-2.04-.15-3.48-.15h-3.96c0,.6,0,.96.06,1.38h3.18c-.12.54-.15,1.05-.15,1.65h.93c1.59,0,2.52-.06,3.42-.18v2.91c-.9-.12-1.77-.15-3.42-.15h-.93v1.5c0,.9.03,1.47.12,1.95-.81-.03-1.83-.06-2.79-.06h-5.82c-1.02,0-1.8.03-2.79.06.06-.48.09-1.08.09-1.74v-1.71h-4.17v4.41h15.09c1.77,0,2.49-.03,3.27-.15v2.7c-.93-.12-1.65-.15-3.24-.15h-7.53v1.59Zm-7.53-12.42c-.03.36-.06.81-.06,1.44h4.17c0-.66-.03-1.05-.12-1.65h3.21c-.06.48-.09.9-.09,1.65h5.19c0-.63-.03-.93-.06-1.44h-3.24c.06-.69.06-.84.06-1.59h-6.09c0,.81,0,1.02.09,1.59h-3.06Zm7.11,5.1h5.19v-1.08h-5.19v1.08Z"/><path class="cls-1" d="m92.46,2.7c0-.87-.09-1.74-.18-2.22h3.78c-.15.66-.21,1.38-.21,2.19v1.5h8.49c1.62,0,2.7-.06,3.78-.21v3.42c-.99-.15-1.83-.18-3.69-.18h-19.89c-1.41,0-2.55.06-3.69.18v-3.42c1.17.15,2.25.21,3.78.21h7.83v-1.47Zm0,7.38c0-.78-.03-1.53-.12-2.19h3.6c-.09.36-.12,1.08-.12,2.19v.36h6.96c1.35,0,2.04-.03,2.94-.12-.09.81-.12,1.5-.12,2.58v8.85c0,2.7-.87,3.39-4.38,3.39-.69,0-1.26-.03-2.49-.12-.18-1.38-.27-1.8-.81-3.21,1.35.21,2.31.3,2.94.3,1.23,0,1.5-.15,1.5-.93v-7.8h-6.54v11.13c0,1.47.06,2.49.21,3.69h-3.78c.15-1.23.21-2.28.21-3.66v-11.16h-5.94v8.61c0,1.65.03,2.55.18,3.54h-3.69c.12-1.14.18-2.13.18-3.51v-9.12c0-.93-.03-1.71-.12-2.58.96.09,1.8.12,3.09.12h6.3v-.36Z"/><path class="cls-1" d="m132.84,15.84l-2.28.75c-.12-.6-.18-.81-.27-1.23q-1.2.15-1.74.21v9.57c0,1.41.06,2.25.18,3.15h-3.21c.12-.9.18-1.71.18-3.15v-9.3q-1.77.15-2.97.21c-.63.06-.93.09-1.32.18l-.33-3.09c.48.06.72.09,1.23.09.06,0,.72,0,1.05-.03.72-.9,1.2-1.59,1.5-2.01-1.2-1.89-1.86-2.73-3.57-4.68l1.5-2.52c.3.36.63.72.96,1.14,1.05-1.74,1.92-3.78,2.16-4.95l2.82,1.2c-.18.3-.27.45-.54.99-1.11,2.22-1.86,3.51-2.76,4.83.6.78.75.96,1.14,1.5,1.35-2.13,2.58-4.38,2.85-5.25l2.73,1.53c-.21.27-.42.57-.75,1.11-1.35,2.22-3.33,5.01-4.92,6.99q2.37-.15,3.09-.24c-.33-.96-.48-1.29-.87-2.16l2.07-.69c.57,1.32.78,1.83,1.11,2.79v-2.76c.84.12,1.59.15,2.85.15h7.92c.03-.48.03-.87.06-1.17q0-.3.03-.69h-6.36c-1.38,0-1.92.03-2.73.12v-2.85c.75.12,1.29.15,2.73.15h6.42q0-.33.03-1.74h-6.75c-1.38,0-2.01.03-2.91.12V1.23c.84.12,1.65.15,3,.15h7.17c1.2,0,1.98-.03,2.79-.12-.06.36-.06.51-.09.96q-.03.51-.09,1.71c0,.18,0,.6-.03,1.2q0,.87-.09,2.31c0,.36-.03,1.17-.06,2.73h.24c1.29,0,2.04-.03,2.88-.15v2.97c-.84-.12-1.65-.15-2.85-.15h-4.29c.51,1.77.81,2.58,1.38,3.75,1.26-1.05,1.98-1.83,3.03-3.21l2.34,1.86c-1.62,1.74-2.58,2.64-3.96,3.75,1.5,2.13,2.88,3.48,4.98,4.92-.84.9-1.41,1.68-2.04,2.91-3-2.49-4.38-4.59-6.06-8.94.09,1.29.15,2.1.15,2.4l.03,4.23c0,1.62-.3,2.61-.96,3.09-.48.36-1.23.48-2.64.48-.6,0-1.23-.03-2.34-.09-.12-1.47-.27-1.98-.78-3.18,1.32.21,2.01.3,2.79.3s.96-.15.96-.78v-2.85q-1.53,1.14-4.59,3.15c-.42.27-.81.54-1.47,1.05l-.78-1.83-1.71.63q-.45-4.59-.96-6.9l2.13-.48c.51,2.1.66,2.85.93,5.04,2.64-1.29,3.81-2.01,6.45-3.84v-5.46h-3.9c-1.32,0-2.04.03-2.79.15l.9,2.85Zm-8.04,1.74c-.27,4.89-.39,6.03-1.05,9.24l-2.67-.93c.69-2.61,1.02-5.04,1.17-8.79l2.55.48Zm10.35-3.93c1.38,1.62,2.01,2.49,2.85,4.02l-2.43,1.56c-.78-1.68-1.47-2.7-2.79-4.26l2.37-1.32Z"/><path class="cls-1" d="m188.79,26.82c-.87-.12-1.74-.18-3.27-.18h-19.08v1.41h-3.54c.12-1.02.18-2.01.18-3.48V4.95c0-1.26-.03-2.22-.12-3.21.99.12,1.83.15,3.24.15h18.63c1.71,0,2.61-.06,3.54-.21v3.51c-1.05-.15-1.86-.18-3.51-.18h-18.42v18.51h19.05c1.71,0,2.52-.03,3.3-.18v3.48Zm-4.53-4.53c-2.73-2.79-3.99-3.99-6.3-5.94-2.73,2.76-4.68,4.26-8.52,6.51-.72-.93-1.44-1.71-2.4-2.58,3.51-1.83,5.97-3.57,8.43-5.97-2.1-1.65-3.99-2.94-6.93-4.74l2.28-2.34c4.02,2.64,4.05,2.67,6.81,4.68,1.86-2.28,3.36-4.86,3.84-6.51l3.3,1.56c-.42.63-.48.72-.93,1.53-1.14,2.07-2.16,3.57-3.66,5.4,2.31,1.83,4.05,3.33,6.63,5.73l-2.55,2.67Z"/><path class="cls-1" d="m213.99,4.17c0-1.29-.06-2.4-.21-3.51h3.9c-.15,1.08-.21,2.16-.21,3.51v5.43h5.97c1.71,0,2.73-.06,3.87-.18v3.51c-1.17-.12-2.28-.18-3.87-.18h-5.97v10.86h7.86c1.71,0,3.12-.06,4.2-.18v3.57c-1.2-.15-2.52-.21-4.2-.21h-18.6c-1.71,0-3.09.06-4.29.21v-3.57c1.11.12,2.49.18,4.29.18h7.26v-10.86h-5.43c-1.59,0-2.76.06-3.9.18v-3.51c1.05.12,2.28.18,3.9.18h5.43v-5.43Z"/><path class="cls-1" d="m249.3,5.79c-1.32,1.98-2.64,3.51-4.47,5.22-.78-.99-1.41-1.62-2.34-2.34,2.55-2.25,4.2-4.32,5.43-6.78.39-.75.57-1.26.66-1.89l3.6.54q-.27.51-1.05,2.1h13.83c1.71,0,2.76-.06,3.75-.21v3.54c-.99-.12-2.16-.18-3.75-.18h-15.66Zm10.05,21.6c-1.8-1.74-3.15-2.97-5.22-4.62-2.31,1.98-4.35,3.27-8.67,5.4-.6-1.05-1.05-1.62-2.25-2.82,4.08-1.74,6.12-2.85,8.31-4.56-1.83-1.35-2.85-2.01-5.22-3.42l2.19-2.01c2.19,1.26,3.18,1.89,5.31,3.33,1.41-1.5,2.25-2.73,2.61-3.84l3.21,1.53c-.3.33-.63.78-1.29,1.68-.72,1.02-1.2,1.65-1.95,2.49,1.83,1.44,3.33,2.67,5.22,4.35l-2.25,2.49Zm-11.64-12.87c-1.56,0-2.55.06-3.45.18v-3.15c.69.12,1.41.15,2.58.15h15.24c1.98,0,2.61-.03,3.51-.12-.12.96-.15,1.74-.15,2.73,0,3.18.3,5.79.84,7.71.36,1.17.54,1.56,1.05,2.04.42-.57.63-1.98.72-4.44.99.93,1.59,1.32,2.58,1.8-.48,4.71-1.41,6.63-3.24,6.63-1.35,0-2.88-1.56-3.72-3.84-.93-2.46-1.32-5.28-1.38-9.69h-14.58Zm.72-7.38c.39.06,1.35.12,2.25.12h12.57c1.5,0,2.52-.06,3.18-.15v2.97c-.9-.12-1.68-.15-3.18-.15h-11.97c-1.23,0-2.04.03-2.85.12v-2.91Z"/><path class="cls-1" d="m298.32,21.03c0,1.05.06,2.07.15,2.88h-3.18v-1.59h-7.83v2.61h-3.18c.12-1.05.18-2.4.18-4.08V4.71c0-1.38-.03-2.16-.12-3.12.93.09,1.74.12,3.18.12h7.74c1.44,0,2.22-.03,3.18-.12-.06.69-.09,1.26-.12,2.4h8.76c1.62,0,2.82-.06,3.81-.18v3.45c-.9-.12-1.71-.15-3.54-.15v17.34c0,1.5-.21,2.19-.81,2.64-.54.45-1.53.63-3.27.63-.84,0-2.34-.03-3.36-.09-.12-1.26-.27-1.98-.66-3.21,1.41.15,2.55.24,3.6.24.99,0,1.2-.12,1.2-.66V7.11h-5.73v13.92Zm-10.83-10.74h2.46v-5.64h-2.46v5.64Zm0,9.06h2.46v-6.12h-2.46v6.12Zm5.34-9.06h2.49v-5.64h-2.49v5.64Zm0,9.06h2.49v-6.12h-2.49v6.12Z"/><path class="cls-1" d="m331.68,13.53c-1.44,0-2.46.06-3.27.15v-2.13c-1.44.84-1.98,1.14-3.27,1.71q-.9-1.68-1.98-3.18c2.85-1.11,5.28-2.43,7.26-3.96.99-.78,2.37-2.07,3.3-3.15.63-.69.96-1.11,1.62-2.16h3.81c1.68,2.28,3.12,3.72,5.34,5.31,2.49,1.77,4.47,2.79,7.35,3.81-1.08,1.56-1.44,2.22-1.92,3.45-1.35-.63-2.22-1.11-3.57-1.89v2.19c-.87-.09-1.8-.15-3.18-.15h-4.23v3.39h4.86c1.56,0,2.52-.06,3.3-.15v3.36c-.81-.09-1.83-.15-3.3-.15h-4.86v4.05h7.8c1.59,0,2.88-.06,3.81-.18v3.51c-.99-.15-2.25-.21-3.78-.21h-18.72c-1.53,0-2.76.06-3.75.21v-3.51c.87.12,2.16.18,3.84.18h7.44v-4.05h-4.41c-1.5,0-2.52.06-3.33.15v-3.36c.93.12,1.83.15,3.33.15h4.41v-3.39h-3.9Zm11.64-3.03c.63,0,.84,0,1.41-.03-3.3-2.19-5.19-3.93-7.38-6.81-1.74,2.58-3.9,4.62-7.23,6.81.6.03.87.03,1.32.03h11.88Z"/><path class="cls-1" d="m371.85,26.07c.18-1.17.24-2.34.24-3.9V5.64h-1.44c-1.11,0-1.98.06-3.09.18v-3.81c.93.15,1.59.18,3,.18h2.76c1.53,0,1.98-.03,3.06-.15-.18,1.77-.24,3.15-.24,4.95v15.18c0,1.59.06,2.67.24,3.9h-4.53Z"/><path class="cls-1" d="m399.15,24.12c-.9-.9-1.59-1.95-1.98-3.03-.78-2.13-1.17-4.47-1.17-6.9,0-3.18.72-6.48,1.83-8.31,1.62-2.7,4.32-4.17,7.65-4.17,2.55,0,4.74.84,6.33,2.43.9.9,1.59,1.95,1.98,3.03.78,2.1,1.17,4.5,1.17,6.96,0,3.69-.81,6.93-2.22,8.88-1.68,2.34-4.17,3.54-7.29,3.54-2.55,0-4.71-.84-6.3-2.43Zm9.57-2.31c1.35-1.41,2.1-4.2,2.1-7.71s-.75-6.21-2.1-7.68c-.72-.81-1.92-1.26-3.27-1.26-1.44,0-2.49.48-3.36,1.53-1.32,1.56-1.98,4.02-1.98,7.29s.57,5.76,1.53,7.14c.93,1.32,2.19,1.95,3.84,1.95,1.32,0,2.49-.45,3.24-1.26Z"/><path class="cls-1" d="m430.44,11.91c-.93-.96-1.47-2.43-1.47-3.96,0-3.84,3.24-6.27,8.37-6.27,3.63,0,6.3,1.17,7.59,3.27.51.84.81,1.92.81,3,0,2.79-1.59,4.83-4.32,5.61,1.35.18,2.25.57,3.24,1.41,1.41,1.14,2.1,2.7,2.1,4.68,0,4.47-3.36,6.93-9.51,6.93-3.48,0-5.88-.75-7.59-2.4-1.11-1.08-1.74-2.7-1.74-4.5,0-2.1.81-3.75,2.46-4.92.99-.69,1.74-.99,2.97-1.2-1.26-.33-2.04-.78-2.91-1.65Zm12.09,7.44c0-2.49-1.95-3.99-5.19-3.99s-5.22,1.53-5.22,4.02,1.92,3.9,5.16,3.9,5.25-1.41,5.25-3.93Zm-9.54-10.98c0,2.19,1.68,3.57,4.41,3.57s4.29-1.35,4.29-3.54-1.68-3.48-4.35-3.48-4.35,1.35-4.35,3.45Z"/><path class="cls-1" d="m486.87,26.82c-.87-.12-1.74-.18-3.27-.18h-19.08v1.41h-3.54c.12-1.02.18-2.01.18-3.48V4.95c0-1.26-.03-2.22-.12-3.21.99.12,1.83.15,3.24.15h18.63c1.71,0,2.61-.06,3.54-.21v3.51c-1.05-.15-1.86-.18-3.51-.18h-18.42v18.51h19.05c1.71,0,2.52-.03,3.3-.18v3.48Zm-4.53-4.53c-2.73-2.79-3.99-3.99-6.3-5.94-2.73,2.76-4.68,4.26-8.52,6.51-.72-.93-1.44-1.71-2.4-2.58,3.51-1.83,5.97-3.57,8.43-5.97-2.1-1.65-3.99-2.94-6.93-4.74l2.28-2.34c4.02,2.64,4.05,2.67,6.81,4.68,1.86-2.28,3.36-4.86,3.84-6.51l3.3,1.56c-.42.63-.48.72-.93,1.53-1.14,2.07-2.16,3.57-3.66,5.4,2.31,1.83,4.05,3.33,6.63,5.73l-2.55,2.67Z"/><path class="cls-1" d="m504.21,4.32c-1.35,0-2.46.06-3.69.18V1.2c1.11.12,2.22.18,3.63.18h19.8c1.35,0,2.52-.06,3.69-.18v3.3c-1.08-.12-2.43-.18-3.66-.18h-8.46v2.67h3.57c1.08,0,1.77-.03,2.46-.12-.09.66-.12,1.29-.12,2.25v10.74c0,1.11.03,1.56.12,2.22-.78-.09-1.26-.12-2.64-.12h-9.69c-1.44,0-1.92.03-2.7.12.09-.72.12-1.14.12-2.22v-10.74c0-.96-.03-1.5-.12-2.25.69.09,1.38.12,2.46.12h3.48v-2.67h-8.25Zm22.74,3.12c-.12,1.05-.18,2.31-.18,3.36v13.44c0,1.56.06,2.76.21,4.02h-3.48v-1.41h-18.93v1.41h-3.42c.12-1.26.18-2.4.18-3.99v-13.5c0-1.2-.06-2.25-.18-3.33h3.48c-.09.69-.12,1.32-.12,2.67v13.83h19.08v-13.89c0-1.2-.03-1.86-.15-2.61h3.51Zm-17.4,2.34v3.15h2.91v-3.15h-2.91Zm0,5.85v3.66h2.91v-3.66h-2.91Zm5.97-2.7h3.03v-3.15h-3.03v3.15Zm0,6.36h3.03v-3.66h-3.03v3.66Z"/><path class="cls-1" d="m553.17,18.72c-1.71,3.87-3.63,5.64-6.09,5.64-3.42,0-5.88-3.48-5.88-8.31,0-3.3,1.17-6.39,3.3-8.73,2.52-2.76,6.06-4.2,10.32-4.2,7.2,0,11.88,4.38,11.88,11.13,0,5.19-2.7,9.33-7.29,11.19-1.44.6-2.61.9-4.71,1.26-.51-1.59-.87-2.25-1.83-3.51,2.76-.36,4.56-.84,5.97-1.65,2.61-1.44,4.17-4.29,4.17-7.5,0-2.88-1.29-5.22-3.69-6.66-.93-.54-1.71-.78-3.03-.9-.57,4.71-1.62,8.85-3.12,12.24Zm-4.41-10.74c-2.52,1.8-4.08,4.89-4.08,8.1,0,2.46,1.05,4.41,2.37,4.41.99,0,2.01-1.26,3.09-3.84,1.14-2.7,2.13-6.75,2.49-10.14-1.56.18-2.64.6-3.87,1.47Z"/><path class="cls-1" d="m582.9,13.11c-1.26,0-1.95.03-2.73.12v-3.21c.75.12,1.38.15,2.79.15h.72c-.42-1.68-.72-2.46-1.32-3.54l2.64-.66h-1.41c-1.32,0-2.01.03-2.82.12v-3.21c.75.12,1.44.15,2.88.15h2.28v-.45c0-1.02-.03-1.44-.15-2.19h3.63c-.12.72-.15,1.11-.15,2.19v.45h2.04c1.41,0,2.01-.03,2.79-.15v3.21c-.81-.09-1.53-.12-2.82-.12h-1.23l2.55.72q-.18.39-.45,1.05-.18.3-.51,1.11c-.21.51-.33.72-.66,1.32h.6c1.35,0,1.98-.03,2.76-.15v3.21c-.84-.09-1.47-.12-2.76-.12h-2.43v2.13h2.31c1.29,0,1.95-.03,2.73-.15v3.15c-.78-.09-1.47-.12-2.73-.12h-1.11c.9,1.05,1.65,1.68,3.09,2.64-.66,1.11-.99,1.74-1.44,2.85-1.5-1.35-1.98-1.86-2.94-3.24q.03.39.06,1.17c0,.09.03,1.02.03,1.17v3c0,1.05.06,1.77.18,2.49h-3.45c.09-.69.15-1.41.15-2.37v-3c0-.57.03-1.35.09-2.04-1.23,2.31-2.61,3.87-4.95,5.55-.42-1.23-.84-2.07-1.53-3.06,2.28-1.41,3.96-3.06,5.25-5.16h-1.95c-1.29,0-1.92.03-2.73.15v-3.18c.78.12,1.38.15,2.79.15h3.03v-2.13h-3.12Zm2.31-7.14c.66,1.29.9,1.92,1.29,3.48l-2.67.72h4.11c.84-1.56,1.23-2.52,1.68-4.2h-4.41Zm20.04,3.63c1.32,0,2.07-.06,2.73-.18v3.33c-.75-.09-1.23-.12-2.4-.12h-.75v12.09c0,1.8.03,2.64.18,3.54h-3.51c.15-.93.18-1.8.18-3.54v-12.09h-3.21c-.03,3.81-.39,6.96-1.11,9.69-.6,2.34-1.53,4.44-2.67,6.03-1.2-.99-1.71-1.32-2.97-1.98,2.85-3.48,3.6-7.41,3.6-18.78,0-2.52-.03-3.48-.18-4.68,3.39-.09,8.58-1.41,10.11-2.55l2.46,2.91c-.33.09-.45.15-.99.33-2.4.9-4.29,1.35-8.22,2.04v3.96h6.75Z"/><path class="cls-1" d="m621.39,5.79c1.08.18,2.28.27,4.02.27.36,0,.69,0,1.38-.03.27-1.44.57-3.75.57-4.59,0-.12,0-.3-.03-.54l3.96.36q-.21.69-.57,2.88c-.15.84-.18,1.02-.3,1.71,2.22-.21,3.63-.45,5.13-.9l.15,3.45q-.24.03-.96.15c-1.53.3-3.93.6-4.92.63-.33,1.86-1.08,5.04-1.86,7.77-.87,3.12-1.38,4.62-3.36,9.93l-3.78-1.47c2.07-3.81,4.38-10.8,5.37-16.14-.21.03-.33.03-.39.03h-1.74c-.15,0-.45,0-.96-.03-.54-.03-.96-.03-1.2-.03-.15,0-.3,0-.57.03l.06-3.48Zm14.88,11.64c-1.2,1.5-1.56,2.25-1.56,3.3,0,1.53,1.5,2.31,4.5,2.31,2.19,0,5.07-.48,6.81-1.11l.27,3.69c-.54.06-.78.09-1.47.21-2.49.36-3.81.48-5.58.48-2.67,0-4.59-.39-6.03-1.2-1.29-.75-2.13-2.19-2.13-3.69,0-1.59.57-2.94,2.22-5.19l2.97,1.2Zm8.91-3.93c-1.44-.15-2.28-.21-3.78-.21-2.97,0-4.95.21-7.92.87l-.27-3.3c4.26-.81,5.7-.96,8.94-.96.81,0,1.08,0,2.97.03l.06,3.57Z"/><path class="cls-1" d="m670.71,1.23q-.18.57-.48,2.01c-.15.72-.3,1.32-.63,2.64,2.07-.21,3.63-.48,4.8-.84l.09,3.45c-.33.03-.39.03-.96.15-1.08.18-2.91.39-4.77.54-.87,3-1.95,5.85-3.3,8.7-.69,1.47-.96,2.01-2.1,4.11q-.39.72-.57,1.08l-3.45-1.92c1.05-1.38,1.89-2.73,2.91-4.8,1.17-2.4,1.68-3.63,2.82-7.08-1.35.03-1.53.03-1.89.03-.39,0-.57,0-1.2-.03l-1.59-.03v-3.42c1.08.21,2.22.27,4.05.27.36,0,.87,0,1.53-.03.51-2.13.84-3.93.9-5.22l3.84.39Zm13.59,24.3c-1.08-1.29-2.82-2.7-4.59-3.72.03.27.06.48.06.6,0,1.11-.51,2.4-1.29,3.18-1.05,1.08-2.85,1.68-4.98,1.68-3.96,0-6.54-1.98-6.54-5.04s2.67-5.16,6.48-5.16c.9,0,1.53.06,2.79.27-.09-1.38-.15-2.55-.15-3.45,0-1.17.06-2.04.24-3.03l3.48.18c-.3,1.11-.36,1.8-.36,3.03s.06,2.4.27,4.11c2.16.96,2.46,1.11,4.74,2.76.45.3.57.42,1.05.81q.24.24.45.42l-1.65,3.36Zm-10.65-5.49c-1.95,0-3.21.81-3.21,2.07s1.08,1.95,2.94,1.95c2.04,0,3.03-.84,3.03-2.52,0-.3-.06-1.02-.06-1.02-1.05-.36-1.77-.48-2.7-.48Zm10.8-8.31c-2.61-1.74-5.28-3.03-8.64-4.2l1.8-2.91c3.54,1.35,5.79,2.4,8.46,4.02l-1.62,3.09Z"/><path class="cls-1" d="m701.37,18.93c0-1.23,0-1.29.06-3.18-.57.72-1.17,1.35-1.98,2.01-.36-1.47-.63-2.31-1.14-3.33,1.77-1.35,3.03-2.67,4.44-4.71.84-1.2,1.2-1.89,1.56-2.85l2.7,1.86c-.33.45-.48.69-.87,1.38-.15.27-.69,1.08-1.59,2.43v12.27c0,1.65.03,2.58.15,3.42h-3.51c.12-.99.18-1.92.18-3.51v-5.79Zm5.22-16.8c-.36.45-.48.57-.87,1.11-1.92,2.46-3.33,3.84-5.55,5.46-.48-1.23-.78-1.8-1.47-2.91,2.4-1.56,4.23-3.54,5.16-5.49l2.73,1.83Zm2.85,16.86c-1.05,0-1.89.03-2.64.12v-3.12c.75.09,1.47.12,2.64.12h1.35v-.18c0-.9-.03-1.44-.15-2.25h3.42c-.12.72-.15,1.32-.15,2.22v.21h1.53c1.14,0,1.83-.03,2.61-.12v3.12c-.78-.09-1.56-.12-2.61-.12h-1.53v3.06c1.77-.27,2.55-.42,4.65-.93l.03,2.76c-3.06.81-6.81,1.53-10.89,2.07-.69.09-.99.12-1.59.27l-.42-3.3c.18.03.3.03.39.03.9,0,2.25-.12,4.71-.45v-3.51h-1.35Zm11.01-7.35c-.72,0-1.05,0-1.98.09v1.29c-.75-.09-1.44-.12-2.43-.12h-7.14c-1.05,0-1.77.03-2.55.12v-3.12c.75.09,1.5.12,2.52.12h1.92v-3.03h-1.08c-1.11,0-1.86.03-2.64.12v-3.12c.75.12,1.35.15,2.64.15h1.08v-1.2c0-.93-.06-1.62-.18-2.25h3.48c-.12.72-.18,1.35-.18,2.34v1.11h1.38c1.29,0,1.83-.03,2.61-.15v3.12c-.78-.09-1.53-.12-2.61-.12h-1.38v3.03h2.1c.93,0,1.35,0,1.98-.06v-1.38c.75.09,1.35.12,2.43.12h3.87c1.14,0,1.68-.03,2.43-.12v3.18c-.81-.09-1.47-.12-2.43-.12v13.11c0,1.2-.27,2.01-.81,2.46s-1.38.6-3.21.6c-.42,0-.69,0-2.79-.09-.12-1.5-.27-2.22-.69-3.24,2.25.27,2.73.3,3.48.3.66,0,.87-.12.87-.57v-12.57h-.69Zm-1.8-9.51c.69.09,1.5.15,2.28.15h3.09c1.11,0,1.71-.03,2.34-.12v3.18c-.72-.09-1.41-.12-2.37-.12h-3.03c-.78,0-1.56.03-2.31.15v-3.24Z"/><path class="cls-1" d="m747.84,6.15c-.99-2.01-1.56-2.85-2.94-4.5l3.03-1.32c1.38,1.86,1.98,2.82,2.91,4.56l-2.73,1.26h6.81c1.23-1.89,2.07-3.54,2.85-5.67l3.42,1.11c-1.8,3.15-1.92,3.36-2.79,4.56h4.5c1.62,0,2.58-.06,3.45-.18v3.42c-.96-.12-2.07-.18-3.39-.18h-5.13v14.55h5.43c1.68,0,2.67-.06,3.54-.18v3.48c-1.02-.12-2.13-.18-3.54-.18h-20.07c-1.38,0-2.49.06-3.51.18v-3.48c.87.12,1.86.18,3.51.18h5.13v-14.55h-4.68c-1.32,0-2.37.06-3.42.18v-3.42c.87.12,1.83.18,3.45.18h4.17Zm-3.9,5.01c1.5,3.27,2.28,5.43,3.27,9.3l-3.12,1.17c-.96-4.23-1.62-6.18-3.15-9.45l3-1.02Zm10.59,12.6v-14.55h-2.91v14.55h2.91Zm10.86-11.28c-1.35,3.99-2.22,6-3.99,9.36l-2.91-1.29c1.8-3.15,2.7-5.34,3.75-9.24l3.15,1.17Z"/><path class="cls-1" d="m792.39,18.72c-1.71,3.87-3.63,5.64-6.09,5.64-3.42,0-5.88-3.48-5.88-8.31,0-3.3,1.17-6.39,3.3-8.73,2.52-2.76,6.06-4.2,10.32-4.2,7.2,0,11.88,4.38,11.88,11.13,0,5.19-2.7,9.33-7.29,11.19-1.44.6-2.61.9-4.71,1.26-.51-1.59-.87-2.25-1.83-3.51,2.76-.36,4.56-.84,5.97-1.65,2.61-1.44,4.17-4.29,4.17-7.5,0-2.88-1.29-5.22-3.69-6.66-.93-.54-1.71-.78-3.03-.9-.57,4.71-1.62,8.85-3.12,12.24Zm-4.41-10.74c-2.52,1.8-4.08,4.89-4.08,8.1,0,2.46,1.05,4.41,2.37,4.41.99,0,2.01-1.26,3.09-3.84,1.14-2.7,2.13-6.75,2.49-10.14-1.56.18-2.64.6-3.87,1.47Z"/><path class="cls-1" d="m819.3,5.37c.69.12,1.26.15,2.31.15h4.41c1.11,0,1.68-.03,2.28-.12v3.06c-.57-.09-.93-.12-2.16-.12h-4.53c-1.02,0-1.62.03-2.31.12v-3.09Zm20.88,0q-2.37.48-3.66.69c-.3-1.05-.51-1.53-1.02-2.49q-.21.42-.93,2.07c-.36.84-.45.99-1.41,2.94q-.48.99-.9,1.86h1.08c.87,0,1.47-.03,1.92-.09-.06.27-.06.33-.57,5.07-.24,1.95-.66,3.93-1.23,5.82,2.01,2.52,4.5,3.3,10.74,3.3,1.08,0,1.77-.03,3.3-.15-.51,1.38-.66,2.04-.78,3.18q-2.1.03-2.58.03c-6.09,0-9.21-.96-11.82-3.63-.78,1.59-1.47,2.67-2.67,4.14-.63-.99-1.11-1.56-1.83-2.16q.03,1.26.09,1.8h-2.67v-1.02h-2.52v1.47h-2.79c.12-.96.15-1.83.15-2.97v-4.38c0-1.02-.03-1.59-.12-2.46.66.03,1.14.06,2.1.06h3.99c1.11,0,1.41-.03,1.86-.09-.09.6-.09.96-.09,2.28v4.77c1.17-1.26,1.89-2.34,2.64-3.96-.72-1.29-1.17-2.34-2.04-4.68-.27-.75-.33-.87-.51-1.29l2.67-1.05c.24,1.29.48,2.13,1.02,3.57.3-1.5.45-2.43.66-4.95h-2.88q-.84.03-.87.03-.42.03-.66.03c2.13-3.78,3-5.58,4.08-8.52h-1.71c-.63,0-1.08.03-1.56.12V1.74c.54.06,1.08.09,1.95.09h1.98c.96,0,1.32-.03,1.77-.09l1.32,1.47v.03c1.68-.18,2.43-.27,3.66-.54,2.61-.54,4.17-1.11,5.73-2.1l1.8,2.73c-1.74.75-2.52,1.02-3.84,1.38v5.37h1.62c.9,0,1.44-.03,1.98-.15v3.06c-.63-.09-1.14-.12-1.86-.12h-1.74v6.57h1.35c1.08,0,1.65-.03,2.34-.12v3.09c-.72-.12-1.32-.15-2.34-.15h-7.62c-.87,0-1.32.03-1.92.09v-3.03c.42.06.75.09,1.32.12v-8.76c0-.93-.06-1.68-.15-2.31h2.97c-.12.63-.15,1.32-.15,2.25v8.82h1.35V5.37Zm-19.92-4.2c.75.12,1.26.15,2.4.15h2.76c1.14,0,1.65-.03,2.4-.15v2.91c-.66-.09-1.35-.12-2.4-.12h-2.76c-1.05,0-1.68.03-2.4.12V1.17Zm0,8.76c.6.06.93.09,1.86.09h3.66c.96,0,1.23,0,1.8-.09v2.82c-.6-.06-.93-.09-1.8-.09h-3.66c-.93,0-1.2,0-1.86.09v-2.82Zm0,4.23c.6.06.93.09,1.86.09h3.63c.96,0,1.26,0,1.83-.09v2.82c-.6-.06-.93-.09-1.86-.09h-3.63c-.9,0-1.2,0-1.83.09v-2.82Zm2.46,9.93h2.52v-3.03h-2.52v3.03Z"/><path class="cls-1" d="m866.16,9.39c-1.23,2.58-2.43,4.38-4.08,6.3-.78-1.14-1.47-1.86-2.46-2.55,2.25-2.28,4.05-5.43,5.07-8.76.39-1.29.54-1.92.66-2.79l3.42.84q-.06.24-.27.78c-.09.21-.09.24-.3.99-.15.45-.42,1.2-.81,2.25h4.89v-2.28c0-1.56-.06-2.49-.21-3.6h3.84c-.12.99-.18,1.98-.18,3.57v2.31h6.24c1.53,0,2.82-.06,4.05-.18v3.3c-1.29-.12-2.52-.18-3.96-.18h-6.33v5.52h5.19c1.5,0,2.7-.06,3.69-.18v3.3c-1.08-.12-2.28-.18-3.69-.18h-5.19v6.36h7.2c1.71,0,2.97-.06,4.17-.21v3.42c-1.41-.15-2.49-.21-4.08-.21h-18.36c-1.56,0-2.85.06-4.26.21v-3.42c1.29.15,2.58.21,4.17.21h7.71v-6.36h-4.62c-1.41,0-2.61.06-3.63.18v-3.3c.96.12,1.95.18,3.6.18h4.65v-5.52h-6.12Z"/><path class="cls-1" d="m910.5,22.98c0,2.82-2.28,5.1-5.07,5.1s-5.07-2.28-5.07-5.1,2.28-5.07,5.07-5.07,5.07,2.28,5.07,5.07Zm-7.8,0c0,1.53,1.23,2.76,2.73,2.76s2.73-1.23,2.73-2.76-1.23-2.73-2.73-2.73-2.73,1.23-2.73,2.73Z"/></g></svg>