<?xml version="1.0" encoding="UTF-8"?><svg id="_レイヤー_2" xmlns="http://www.w3.org/2000/svg" viewBox="0 0 639.86 76.95"><defs><style>.cls-1{fill:#fff;}</style></defs><g id="_レイヤー_4"><polygon points="512.71 0 0 0 0 76.95 639.86 76.95 512.71 0"/><path class="cls-1" d="m141.75,35.72c.1-.17.23-.4.39-.68.16-.28.29-.49.42-.62.12-.14.25-.21.39-.21.28,0,.96.49,2.05,1.48,1.09.99,1.78,1.74,2.05,2.26.1.21.05.38-.16.52-.45.38-1.16.62-2.13.73v13.99c1.14,1.39,2.38,2.42,3.69,3.1,1.32.68,2.89,1.13,4.71,1.35,1.82.23,4.27.34,7.36.34,7.6,0,14.01-.07,19.25-.21.28,0,.42.12.42.36,0,.21-.12.36-.36.47-1.08.24-1.75,1.04-2.03,2.39-.1.24-.26.36-.47.36h-16.75c-3.19,0-5.77-.19-7.73-.57-1.96-.38-3.63-1.08-5.02-2.11-1.39-1.02-2.67-2.52-3.85-4.5-1.01,1.14-2.23,2.41-3.67,3.8-1.44,1.39-2.66,2.5-3.67,3.33l.05.31c0,.24-.09.49-.26.73-.07.07-.16.1-.26.1-.14,0-.24-.09-.31-.26l-1.87-3.64c-.1-.24-.05-.42.16-.52,2.25-1.07,4.73-2.39,7.44-3.95v-15.35h-2.45c-1.35.03-2.69.24-4.01.62h-.16c-.14,0-.26-.09-.36-.26l-.83-1.82-.05-.21c0-.07.03-.13.1-.18.07-.05.16-.06.26-.03,1.53.17,3,.28,4.42.31h2.39l.83-1.46Zm-6.35-18.88c.14-.14.33-.17.57-.1,3.05,1.04,5.31,2.32,6.76,3.85,1.46,1.53,2.18,2.95,2.18,4.27,0,.62-.16,1.14-.49,1.53-.33.4-.74.6-1.22.6-.42,0-.82-.12-1.2-.36-.17-.07-.28-.21-.31-.42-.42-1.39-1.22-2.9-2.42-4.53-1.2-1.63-2.47-3.07-3.82-4.32-.21-.21-.23-.38-.05-.52Zm38.76,13.21c.1-.14.26-.36.47-.65.21-.29.39-.52.55-.68.16-.16.3-.23.44-.23.28,0,.99.48,2.13,1.43,1.14.95,1.84,1.67,2.08,2.16.03.17.03.35,0,.52-.21.38-.61.57-1.2.57h-8.64v9.57c.07,4.34.21,8.31.42,11.91,0,.21-.07.38-.21.52-.76.69-1.73,1.04-2.91,1.04-.24,0-.48-.11-.7-.34-.23-.23-.34-.46-.34-.7.14-2.05.26-4.03.36-5.96.1-1.92.17-4.45.21-7.57v-8.48h-10.3c-.1,4.37-.72,8.38-1.85,12.04-1.13,3.66-3.23,6.88-6.32,9.65-.24.17-.45.17-.62,0l-.1-.1c-.17-.17-.17-.36,0-.57,2.29-3.09,3.81-6.5,4.58-10.25.76-3.75,1.14-8.01,1.14-12.8v-6.14c0-2.15-.1-4.07-.31-5.77,0-.35.16-.47.47-.36l3.59,1.3c2.67-.66,4.84-1.25,6.5-1.77,3.68-1.18,6.61-2.51,8.79-4.01.21-.17.4-.14.57.1,2.08,2.25,3.12,3.59,3.12,4.01,0,.24-.24.33-.73.26l-1.25-.16c-2.5.59-5.32,1.15-8.48,1.69-3.16.54-6.19.93-9.1,1.17v10.14h16.6l1.04-1.56Z"/><path class="cls-1" d="m210.37,58.72c.03.45.05.8.05,1.04s.02.43.05.57l.05.21c0,.38-.3.76-.88,1.14-.59.38-1.27.57-2.03.57-.28,0-.53-.11-.75-.34-.23-.23-.34-.46-.34-.7.14-2.05.26-4.03.36-5.96.1-1.92.17-4.45.21-7.57v-18.94c0-4.13-.19-7.47-.57-10.04v-.1c0-.14.04-.23.13-.29.09-.05.2-.04.34.03l3.69,1.82h22.47l.83-1.14c.07-.1.19-.27.36-.49.17-.23.33-.39.47-.49.14-.1.28-.16.42-.16.31,0,.97.4,1.98,1.2,1.01.8,1.63,1.44,1.87,1.92.1.17.07.35-.1.52-.49.38-1.13.64-1.92.78v25.86c.07,4.34.21,8.31.42,11.91,0,.21-.07.38-.21.52-.35.35-.82.67-1.43.96-.61.29-1.17.44-1.69.44-.38,0-.61-.26-.68-.78,0-.21.02-.38.05-.52.03-.17.05-.38.05-.62s.03-.57.1-.99v-1.46h-23.31v1.09Zm23.31-20.91v-16.13h-23.31v16.13h23.31Zm-23.31,1.51v16.8h23.31v-16.8h-23.31Z"/><path class="cls-1" d="m275.14,20.69l2.6,1.35c1.46.49,2.18.88,2.18,1.2,0,.21-.21.36-.62.47l-.99.26c-1.73,3.54-3.78,6.72-6.14,9.55-2.36,2.83-4.87,5.14-7.54,6.95-.24.17-.43.16-.57-.05l-.05-.05c-.17-.21-.17-.4,0-.57,2.43-2.53,4.58-5.41,6.45-8.64.87-1.42,1.7-3.12,2.5-5.1.8-1.98,1.35-3.68,1.66-5.1.03-.28.21-.36.52-.26Zm23.41,33.5c-1.84-3.12-4.3-6.42-7.39-9.88-.21-.21-.21-.38,0-.52.17-.17.36-.17.57,0,3.19,2.01,5.79,4.05,7.8,6.11,2.01,2.06,3.46,3.96,4.34,5.7.88,1.73,1.33,3.23,1.33,4.47,0,.76-.15,1.35-.44,1.77-.3.42-.69.62-1.17.62-.38,0-.82-.16-1.3-.47-.14-.07-.24-.21-.31-.42-.59-2.01-1.53-4.13-2.81-6.35-7.8,1.63-17.51,3.26-29.13,4.89-.21.38-.54.68-.99.88-.03.03-.09.05-.16.05-.17,0-.3-.09-.36-.26l-1.56-4.01-.05-.16c0-.07.03-.14.1-.21.07-.07.17-.1.31-.1,2.53-.07,5.17-.19,7.91-.36,1.8-4.2,3.47-8.83,4.99-13.89.49-1.59.9-3.28,1.25-5.05.35-1.77.57-3.35.68-4.73.03-.31.21-.42.52-.31,1.91.52,3.23.94,3.95,1.25s1.09.57,1.09.78c0,.14-.16.28-.47.42l-.94.42c-1.08,3.23-2.47,6.74-4.19,10.53-1.72,3.8-3.53,7.29-5.44,10.48,7.46-.52,14.74-1.07,21.85-1.66Zm1.51-25.41c2.91,3.21,6.26,5.77,10.04,7.67.17.1.26.21.26.31,0,.17-.03.3-.1.36s-.16.12-.26.16c-.59.17-1.12.47-1.59.88-.47.42-.82.88-1.07,1.4-.1.28-.28.33-.52.16-3.5-2.53-6.49-5.62-8.97-9.26-2.48-3.64-4.29-7.63-5.44-11.97h-4.58c-2.22.03-4.7.26-7.44.68h-.1c-.17,0-.31-.09-.42-.26l-.94-1.77-.05-.21c0-.17.12-.26.36-.26,1.87.17,3.97.3,6.29.36h5.67l1.4-2.18c.14-.24.33-.28.57-.1l3.69,2.71c.24.17.31.33.21.47-.59.49-1.68.78-3.28.88,1.25,3.43,3.33,6.75,6.24,9.96Z"/><path class="cls-1" d="m345.79,17.25c.1-.14.26-.36.47-.65.21-.29.42-.44.62-.44.28,0,.86.38,1.74,1.14.88.76,1.45,1.37,1.69,1.82.1.17.07.35-.1.52-.45.38-.99.62-1.61.73v4.47c.1,3.64.21,6.4.31,8.27,0,.17-.05.35-.16.52-.28.28-.7.54-1.27.78-.57.24-1.08.36-1.53.36h-.05c-.28,0-.42-.14-.42-.42v-1.82h-10.35v16.23c.07,4.3.21,8.29.42,11.97,0,.14-.05.31-.16.52-.24.38-.62.7-1.14.96-.52.26-1.08.39-1.66.39-.31,0-.59-.1-.83-.31-.24-.21-.36-.45-.36-.73.14-2.05.26-4.03.36-5.96.1-1.92.17-4.45.21-7.57v-20.97c0-4.09-.19-7.46-.57-10.09v-.1c0-.14.04-.23.13-.26.09-.03.2-.02.34.05l3.49,1.66h9.73l.73-1.09Zm-.31,7.34v-4.68h-10.35v4.68h10.35Zm-10.35,1.56v4.89h10.35v-4.89h-10.35Zm25.8,19.2c.14-.17.28-.36.42-.57.14-.21.29-.4.44-.57.16-.17.3-.26.44-.26.28,0,.88.42,1.82,1.25.94.83,1.53,1.49,1.77,1.98l.05.21c0,.28-.12.49-.36.62-.24.14-.56.21-.94.21h-6.35v3.8c.1,3.16.21,5.5.31,7.02,0,.21-.07.38-.21.52-.24.28-.59.5-1.04.68-.45.17-.97.26-1.56.26-.24,0-.45-.1-.62-.31-.17-.21-.26-.45-.26-.73.14-1.77.26-4.14.36-7.13v-4.11h-6.71c-.35,2.57-1.17,4.91-2.47,7.02-1.3,2.12-3.43,3.92-6.37,5.41-.24.1-.43.05-.57-.16l-.05-.05c-.17-.24-.14-.43.1-.57,2.08-1.63,3.61-3.42,4.58-5.36.97-1.94,1.59-4.04,1.87-6.29h-2.29c-1.18.03-2.34.24-3.49.62h-.16c-.14,0-.26-.09-.36-.26l-.88-1.72-.05-.21c0-.24.14-.33.42-.26,1.46.17,2.95.28,4.47.31h2.45c.03-.45.05-1.11.05-1.98v-5.41h-1.98c-.9.03-1.86.23-2.86.57-.24.1-.42.03-.52-.21l-.94-1.77s-.05-.1-.05-.21c0-.17.14-.26.42-.26,1.87.17,3.97.3,6.29.36h12.85l.99-1.35c.1-.14.25-.34.44-.6.19-.26.36-.46.49-.6.14-.14.28-.21.42-.21.28,0,.88.42,1.82,1.25.94.83,1.53,1.49,1.77,1.98l.05.21c0,.56-.42.83-1.25.83h-5.46v7.39h1.77l.94-1.35Zm-12.23-.62c0,.87-.02,1.53-.05,1.98h6.56v-7.39h-6.5v5.41Zm9.26-11.19c0,.21-.3.44-.88.7-.59.26-1.2.39-1.82.39-.21,0-.38-.1-.52-.31-.14-.21-.21-.45-.21-.73.14-1.28.24-2.91.31-4.89v-2.97c0-3.29-.16-6.16-.47-8.58v-.1c0-.14.04-.23.13-.26.09-.03.2-.02.34.05l3.33,1.51h10.14l.73-1.04c.1-.14.26-.36.47-.65.21-.29.42-.44.62-.44.31,0,.98.38,2,1.14,1.02.76,1.67,1.39,1.95,1.87.1.14.07.3-.1.47-.49.45-1.14.75-1.98.88v37.2c0,1.46-.28,2.56-.83,3.3-.56.75-1.7,1.24-3.43,1.48h-.1c-.17,0-.3-.12-.36-.36-.17-.94-.4-1.56-.68-1.87l-.36-.31c-.59-.49-1.56-.85-2.91-1.09-.24-.07-.36-.21-.36-.42,0-.24.1-.36.31-.36.76,0,1.63.05,2.6.16l1.87.1c.42,0,.7-.08.86-.23.16-.16.23-.42.23-.81v-24.82h-10.87v.99Zm10.87-8.95v-4.68h-10.87v4.68h10.87Zm-10.87,1.56v4.89h10.87v-4.89h-10.87Z"/><path class="cls-1" d="m429.5,17.51c.17-.17.42-.43.73-.78.31-.35.57-.52.78-.52.28,0,.88.51,1.82,1.53.94,1.02,1.53,1.81,1.77,2.37.1.21.05.38-.16.52-.31.14-.97.24-1.98.31-1.56,1.08-3.65,2.26-6.27,3.56-2.62,1.3-5.21,2.47-7.78,3.51,1.42.9,2.46,1.82,3.12,2.76.66.94.99,1.8.99,2.6,0,.62-.19,1.09-.57,1.4h12.02l1.04-1.14c.1-.1.31-.32.62-.65.31-.33.59-.49.83-.49.28,0,.89.47,1.85,1.4.95.94,1.55,1.68,1.79,2.24.1.21.05.38-.16.52-.35.21-.94.33-1.77.36-1.28,1.6-3.04,3.39-5.28,5.38-2.24,1.99-4.36,3.69-6.37,5.07-.17.14-.36.14-.57,0-.21-.14-.21-.31,0-.52,1.32-1.49,2.71-3.23,4.19-5.23,1.47-1.99,2.68-3.79,3.62-5.38h-15.09v21.17c0,1.01-.14,1.85-.42,2.52-.28.68-.83,1.24-1.66,1.69-.83.45-2.05.76-3.64.94h-.1c-.17,0-.3-.12-.36-.36-.17-.9-.61-1.6-1.3-2.08-.97-.59-2.71-1.06-5.2-1.4-.28-.07-.42-.23-.42-.47,0-.1.03-.19.1-.26.07-.07.17-.09.31-.05,4.68.31,7.32.47,7.91.47.52,0,.88-.09,1.09-.26.21-.17.31-.47.31-.88v-21.02h-12.54c-2.22.03-4.7.26-7.44.68h-.16c-.14,0-.26-.09-.36-.26l-.94-1.87s-.05-.1-.05-.21c0-.17.12-.26.36-.26,1.91.17,4.02.3,6.35.36h19.46c-.87-1.46-2.38-3.09-4.53-4.89-2.15-1.8-4.65-3.38-7.49-4.73-.21-.1-.3-.28-.26-.52l.05-.1c.03-.1.1-.18.18-.23.09-.05.2-.06.34-.03,3.29.62,6.35,1.66,9.16,3.12,1.73-1.07,3.5-2.25,5.31-3.51,1.8-1.27,3.35-2.45,4.63-3.56h-18.88c-2.22.03-4.7.26-7.44.68h-.16c-.14,0-.26-.09-.36-.26l-.94-1.82s-.05-.1-.05-.21c0-.17.12-.26.36-.26,1.91.17,4.02.3,6.35.36h22.11l1.14-1.3Z"/><path class="cls-1" d="m494.95,22.25c.14-.17.32-.41.55-.7.23-.29.42-.52.57-.68.16-.16.3-.23.44-.23.31,0,1.05.49,2.21,1.48,1.16.99,1.86,1.73,2.11,2.21.03.17.03.35,0,.52-.21.38-.62.57-1.25.57h-15.82v9.99h13.99l1.14-1.61c.1-.14.28-.37.52-.7.24-.33.44-.57.6-.73.16-.16.3-.23.44-.23.28,0,1,.49,2.16,1.48,1.16.99,1.88,1.74,2.16,2.26.03.17.02.35-.05.52-.21.38-.59.57-1.14.57h-35.53c-2.22.03-4.7.26-7.44.68h-.16c-.14,0-.26-.09-.36-.26l-.88-1.87s-.05-.1-.05-.21c0-.17.12-.26.36-.26,1.91.17,4.02.3,6.35.36h14.51v-9.99h-10.66c-1.73,3.19-3.66,5.84-5.77,7.96-.17.17-.36.19-.57.05l-.1-.05c-.24-.17-.28-.36-.1-.57,1.14-1.8,2.24-4.04,3.28-6.71.62-1.53,1.17-3.29,1.64-5.31.47-2.01.74-3.73.81-5.15,0-.14.04-.24.13-.31.09-.07.2-.07.34,0,3.19.9,4.79,1.56,4.79,1.98,0,.14-.14.26-.42.36l-.88.36c-.66,2.01-1.44,3.95-2.34,5.83h9.88c0-3.29-.16-6.16-.47-8.58v-.1c0-.28.16-.36.47-.26,1.73.49,2.95.89,3.64,1.22.69.33,1.04.62,1.04.86,0,.17-.14.35-.42.52l-.88.57v5.77h10.04l1.14-1.61Zm-24.24,37.51l.1,1.25v.21c0,.31-.3.63-.91.96-.61.33-1.26.49-1.95.49-.21,0-.38-.1-.52-.31-.14-.21-.21-.45-.21-.73.14-1.6.24-3.64.31-6.14v-3.59c0-4.09-.19-7.46-.57-10.09v-.1c0-.14.04-.23.13-.26.09-.03.2-.02.34.05l3.59,1.66h21.75l.83-1.04c.1-.1.29-.31.55-.62.26-.31.49-.47.7-.47.31,0,.96.37,1.95,1.12.99.75,1.6,1.36,1.85,1.85.1.14.07.3-.1.47-.52.45-1.18.75-1.98.88v5.36c.1,4.44.23,7.79.36,10.04,0,.21-.07.38-.21.52-.31.28-.75.54-1.33.78-.57.24-1.08.36-1.53.36-.21,0-.37-.08-.49-.23-.12-.16-.2-.34-.23-.55,0-.21.02-.38.05-.52.03-.1.06-.24.08-.42.02-.17.04-.4.08-.68v-1.2h-22.63v.94Zm0-15.09v12.59h22.63v-12.59h-22.63Z"/></g></svg>