<?xml version="1.0" encoding="UTF-8"?><svg xmlns="http://www.w3.org/2000/svg" viewBox="0 0 1311 98"><defs><style>.cls-1{fill:#fff;}.cls-2{fill:none;isolation:isolate;}.cls-3{mix-blend-mode:multiply;opacity:.5;}</style></defs><g class="cls-2"><g id="_レイヤー_2"><g id="_レイヤー_4"><rect class="cls-3" width="1311" height="98"/><path class="cls-1" d="m144.55,26.04c1.75,3.38,4.95,6.35,7.94,7.73l-.04.19c-.54.06-1.04.44-1.27,1.05-2.92-1.78-5.54-4.99-7.08-8.98v7.86h1.75l.9-1.21s1.02.84,1.67,1.46c-.06.21-.25.31-.52.31h-3.8v3.59c0,.19-.54.48-1.04.48h-.25v-4.07h-4.05l-.15-.56h4.2v-6.75c-1.73,3.28-4.47,6.1-8.02,8.04l-.19-.29c3.16-2.19,5.77-5.54,7.19-8.86h-6.81l-.17-.58h8v-4.53l1.99.23c-.06.29-.21.48-.71.56v3.74h5.29l1-1.25s1.11.86,1.78,1.52c-.04.21-.23.31-.5.31h-7.14Z"/><path class="cls-1" d="m174.53,22.82s1.05.84,1.71,1.46c-.06.21-.23.31-.5.31h-13.66v2.88c0,3.18-.23,7.81-3.26,11.07l-.25-.21c1.99-3.34,2.26-7.31,2.26-10.86v-4.09l1.48.63h5.01v-3.07l1.96.21c-.04.27-.23.46-.71.52v2.34h5.04l.92-1.19Zm-4.07,8.34c6.54,3.93,5.58,8.21,3.89,6.9-.15-.79-.52-1.67-1-2.53-2.55.54-5.95,1.17-10.51,1.94-.13.23-.33.36-.52.4l-.71-1.73c.77-.04,1.9-.11,3.28-.23,1.04-3.05,2.03-7,2.59-9.94l2.17.42c-.06.25-.27.42-.71.44-.71,2.61-2.05,6.16-3.55,9.01,2.19-.17,4.89-.44,7.75-.73-.84-1.4-1.96-2.8-2.93-3.8l.25-.17Z"/><path class="cls-1" d="m198.47,27.27s1.07.86,1.73,1.48c-.06.21-.21.31-.48.31h-16.84l-.13-.58h8.08v-3.68h-4.1c-.65,1.17-1.46,2.24-2.32,3.03l-.27-.19c1.07-1.55,2.03-4.14,2.51-6.48l1.96.56c-.06.21-.29.36-.67.36-.25.71-.56,1.44-.9,2.15h3.8v-3.26l1.98.21c-.04.27-.23.46-.69.54v2.51h3.85l.98-1.19s1.09.82,1.75,1.46c-.04.21-.21.31-.5.31h-6.08v3.68h5.39l.98-1.21Zm-2.17,3.28l1.55,1.19c-.13.15-.44.33-.82.4v5.89c-.02.12-.65.4-1.06.4h-.19v-1.32h-8.69v1c0,.11-.52.42-1.06.42h-.17v-7.81l1.34.61h8.36l.73-.79Zm-.52,5.98v-4.64h-8.69v4.64h8.69Z"/><path class="cls-1" d="m221.72,28.53c-.58.79-1.57,1.3-2.46,1.67-.73.33-2.07.81-3.34,1.36-.12,1.05-.04,2.47-.06,2.78-.04.4-.4.71-.71.69-.31-.02-.56-.31-.58-.69,0-.21.12-1.23.19-2.21-.36.17-.71.38-1,.58-.96.67-1.46,1.71-1.36,2.42.1.77,1.09,1.09,1.73,1.17,1.52.13,2.05.04,3.24-.25,1.04-.25,1.46-.15,1.61.27.21.59-1.04.98-1.63,1.05-.73.12-1.76.17-3.01.04-2.19-.25-2.57-1.27-2.65-2.13-.06-.58.15-1.82,1.61-2.9.38-.27.9-.56,1.5-.84.02-.44.02-.82-.02-1.09-.13-1.04-.44-1.44-1.11-1.5-.82-.08-1.92,1.19-2.53,2.03-.15.21-.29.4-.44.59-.19.25-.61.88-.83,1.04-.21.15-.65-.08-.79-.36-.13-.31-.06-.86.15-1.11.29-.33,1.48-1.21,2.19-2.42.54-.92,1.17-2.24,1.57-3.57-.65.17-1.36.27-2.01.17-.65-.1-1.27-.58-1.59-.84-.06-.06-.1-.13-.06-.17.06-.1.25-.02.35.02.11.04.79.27,1.57.23.44-.04,1.23-.13,2.03-.42.04-.23.08-.44.12-.67.06-.48,0-1.07-.58-1.53-.1-.08-.12-.08-.08-.25.04-.17.19-.17.29-.17.12,0,1.07.13,1.25.36.1.17.12.46.08.79.21.21.67.29,1.11.23.17-.08.83-.19.9.13.11.38-.42.88-1.02,1.21-.27.13-.86.44-1.59.69-.34,1.11-.79,2.42-1.34,3.66.61-.33,1.28-.33,1.84-.17,1.09.29,1.4,1.86,1.4,1.86.29-.67.63-1.5,1.73-2.63.77-.81,2.15-1.67,3.3-1.52,1.25.17,1.73,1.44,1.02,2.4Zm-7.61-4.76c.21-.1.4-.23.59-.36-.02-.08-.06-.15-.19-.23-.08-.06-.15-.08-.23-.1-.04.21-.1.44-.17.69Zm6.67,3.07c-.63-.5-2.03.12-3.03,1.11-.81.81-1.23,1.46-1.69,2.93,0,.02-.02.04-.02.04.9-.42,1.88-.88,2.76-1.42,1.63-.96,2.46-2.26,1.98-2.67Z"/><path class="cls-1" d="m237.3,25.96c-.1.19-.27.27-.73.17-.44.63-1.02,1.34-1.69,2.09l.59.21c-.04.17-.23.31-.56.36v9.3c-.02.11-.56.42-1.04.42h-.21v-9.05c-.94.92-1.98,1.8-3.05,2.53l-.23-.23c2.03-1.9,4.1-4.8,5.1-6.77l1.8.96Zm-.21-3.99c-.12.19-.29.27-.73.17-1.17,1.36-3.28,3.22-5.39,4.43l-.21-.25c1.76-1.46,3.66-3.76,4.62-5.33l1.71.98Zm9.67,4.03s1.04.79,1.65,1.38c-.04.21-.23.31-.48.31h-3.18v8.8c0,1.04-.31,1.76-2.36,1.96-.04-.4-.21-.73-.54-.92-.36-.23-1.02-.4-2.15-.56v-.29s2.69.19,3.22.19c.42,0,.54-.12.54-.42v-8.77h-6.25l-.15-.56h8.8l.9-1.13Zm-8.5-2.7l-.15-.58h6.92l.9-1.11s1.02.79,1.63,1.38c-.04.21-.23.31-.5.31h-8.8Z"/><path class="cls-1" d="m256.71,24.74c.1-.21,1.05.1,1.53.52.38.36.52.67.5,1.07-.02.79-.81,2.82-.58,4.56.25,1.8,1.3,2.63,1.59,2.84.31.21.5.29.59.29.1-.02.21.02.31-.38.27-1.23.58-2.05.67-2.28.08-.21.21-.36.29-.35.08.02.04.25,0,.44-.27,1.25-.17,2.28-.13,2.69.04.4.33.9.35,1.11.02.21.04.5-.23.65-.25.17-1.23.04-2.55-1.15-.48-.44-1.65-1.78-1.86-3.78-.19-1.99.21-3.51.23-4.01.04-.48.13-.82.02-1.15-.11-.33-.34-.61-.65-.88-.06-.04-.12-.1-.08-.19Zm8.69,2.32c0-.08.04-.12.17-.15.12-.04,1.84-.65,3.38.79.77.73,1.15,1.69,1.17,2.17.04.5-.17,1.17-.92,1-.36-.1-.42-.38-.48-.56-.08-.17-.69-2.38-1.73-2.9-.59-.29-1.32-.23-1.44-.23-.08,0-.15-.06-.15-.11Z"/><path class="cls-1" d="m286.5,23.14v14.86c0,.13-.42.5-1.05.5h-.19v-4.95c-1.4.59-3.22,1.36-5.56,2.24-.08.25-.25.38-.44.44l-.77-1.63c.46-.08,1.17-.21,2.03-.4v-11.07h-1.78l-.13-.58h8.08l.9-1.11s1.02.79,1.67,1.38c-.06.21-.25.31-.52.31h-2.23Zm-1.25,0h-3.51v3.11h3.51v-3.11Zm-3.51,6.83h3.51v-3.16h-3.51v3.16Zm0,3.97c1.07-.23,2.28-.52,3.51-.82v-2.59h-3.51v3.41Zm14.23-8.96c-.15.15-.35.21-.77.25-.58,2.78-1.5,5.56-3.11,7.98,1.19,1.67,2.65,3.01,4.37,3.99l-.04.21c-.54.04-1,.36-1.15.88-1.55-1.04-2.84-2.44-3.87-4.14-1.17,1.5-2.65,2.84-4.55,3.91l-.25-.25c1.76-1.27,3.17-2.84,4.26-4.62-1.17-2.26-1.96-5.01-2.36-8.15h-1.34l-.17-.58h6.73l.81-.82,1.44,1.34Zm-6.98.06c.42,2.76,1.27,5.16,2.46,7.15,1.19-2.21,1.96-4.66,2.4-7.15h-4.85Z"/><path class="cls-1" d="m310.92,29.7l1.44,1.19c-.15.13-.38.23-.79.29-.35,3.13-1.15,5.85-2.19,6.64-.56.44-1.34.67-2.28.65.02-.35-.1-.69-.42-.86-.35-.23-1.36-.46-2.26-.59l.02-.33c1.04.1,2.86.27,3.32.27.42,0,.65-.06.88-.23.69-.54,1.36-2.92,1.71-5.72h-5.33l-.17.86c-.33.19-.63.21-1.3.06.46-1.92.96-4.72,1.19-6.27l1.4.71h4.07v-3.76h-6.6l-.17-.58h6.58l.69-.79,1.63,1.23c-.15.15-.48.33-.92.4v4.62c-.02.12-.63.38-1.02.38h-.19v-.96h-4.45c-.15.94-.38,2.3-.61,3.53h5.06l.73-.75Zm7.81-8.32c-.06.27-.21.48-.71.54v16.07c0,.19-.54.5-1,.5h-.23v-17.34l1.94.23Z"/><path class="cls-1" d="m341.61,28.53c-.58.79-1.57,1.3-2.46,1.67-.73.33-2.07.81-3.34,1.36-.12,1.05-.04,2.47-.06,2.78-.04.4-.4.71-.71.69-.31-.02-.56-.31-.58-.69,0-.21.12-1.23.19-2.21-.36.17-.71.38-1,.58-.96.67-1.46,1.71-1.36,2.42.1.77,1.09,1.09,1.73,1.17,1.52.13,2.05.04,3.24-.25,1.04-.25,1.46-.15,1.61.27.21.59-1.04.98-1.63,1.05-.73.12-1.76.17-3.01.04-2.19-.25-2.57-1.27-2.65-2.13-.06-.58.15-1.82,1.61-2.9.38-.27.9-.56,1.5-.84.02-.44.02-.82-.02-1.09-.13-1.04-.44-1.44-1.11-1.5-.82-.08-1.92,1.19-2.53,2.03-.15.21-.29.4-.44.59-.19.25-.61.88-.82,1.04-.21.15-.65-.08-.79-.36-.13-.31-.06-.86.15-1.11.29-.33,1.48-1.21,2.19-2.42.54-.92,1.17-2.24,1.57-3.57-.65.17-1.36.27-2.01.17-.65-.1-1.27-.58-1.59-.84-.06-.06-.1-.13-.06-.17.06-.1.25-.02.35.02.12.04.79.27,1.57.23.44-.04,1.23-.13,2.03-.42.04-.23.08-.44.12-.67.06-.48,0-1.07-.58-1.53-.1-.08-.11-.08-.08-.25.04-.17.19-.17.29-.17.12,0,1.07.13,1.25.36.1.17.12.46.08.79.21.21.67.29,1.11.23.17-.08.82-.19.9.13.11.38-.42.88-1.02,1.21-.27.13-.86.44-1.59.69-.35,1.11-.79,2.42-1.34,3.66.61-.33,1.28-.33,1.84-.17,1.09.29,1.4,1.86,1.4,1.86.29-.67.63-1.5,1.73-2.63.77-.81,2.15-1.67,3.3-1.52,1.25.17,1.73,1.44,1.02,2.4Zm-7.61-4.76c.21-.1.4-.23.59-.36-.02-.08-.06-.15-.19-.23-.08-.06-.15-.08-.23-.1-.04.21-.1.44-.17.69Zm6.67,3.07c-.63-.5-2.03.12-3.03,1.11-.81.81-1.23,1.46-1.69,2.93,0,.02-.02.04-.02.04.9-.42,1.88-.88,2.76-1.42,1.63-.96,2.46-2.26,1.98-2.67Z"/><path class="cls-1" d="m352.81,27.42v10.59c0,.19-.42.5-.98.5h-.23v-16.94l1.3.61h3.72l.63-.69,1.44,1.09c-.12.13-.36.29-.71.35v4.91c-.02.13-.61.4-1.02.4h-.17v-.82h-3.99Zm0-4.66v1.73h3.99v-1.73h-3.99Zm3.99,4.1v-1.8h-3.99v1.8h3.99Zm4.89,6.33v4.2c0,.08-.38.33-.96.33h-.19v-4.53h-2.59c-.21,1.67-.96,3.43-3.53,4.64l-.21-.25c1.84-1.3,2.44-2.86,2.63-4.39h-2.55l-.15-.56h2.74c.02-.25.02-.48.02-.73v-1.99h-2.21l-.15-.56h7.44l.82-1.02s.88.73,1.46,1.29c-.04.19-.21.29-.48.29h-2.09v2.72h.67l.81-1.02s.88.73,1.46,1.29c-.04.19-.23.29-.5.29h-2.44Zm-1.15-.56v-2.72h-2.51v1.99c0,.23,0,.48-.02.73h2.53Zm7.29-10.03c-.13.15-.46.33-.84.4v13.71c0,1-.21,1.61-1.8,1.78-.06-.38-.13-.75-.35-.9-.23-.21-.63-.36-1.32-.48v-.29s1.52.12,1.84.12c.31,0,.4-.12.4-.38v-9.15h-4.16v.36c0,.13-.52.4-1.04.4h-.17v-6.56l1.29.56h3.89l.63-.79,1.63,1.21Zm-6.23.15v1.73h4.16v-1.73h-4.16Zm4.16,4.1v-1.8h-4.16v1.8h4.16Z"/><path class="cls-1" d="m382.24,26.06c-.15.17-.33.23-.75.29-.29,2.47-.73,4.85-1.76,6.92,2.88,2.17,2.3,4.43,1.04,3.66-.25-.86-.86-1.78-1.63-2.63-1.02,1.59-2.49,2.97-4.64,4.01l-.19-.27c1.92-1.19,3.22-2.7,4.12-4.47-.67-.63-1.4-1.23-2.09-1.69-.13.48-.27.92-.4,1.32-.27.17-.77.19-1.29.02.59-1.59,1.42-4.41,2.09-7.08h-2.15l-.17-.58h2.46c.44-1.78.81-3.45.98-4.56l1.84.44c-.08.25-.27.4-.75.4-.17.92-.5,2.24-.88,3.72h2.03l.75-.75,1.4,1.23Zm-4.32.1c-.46,1.78-1,3.74-1.48,5.37.94.36,1.73.75,2.4,1.15.81-1.96,1.19-4.16,1.4-6.52h-2.32Zm10.49-2.03c5.03,2.78,3.99,6.2,2.55,5.04-.1-.52-.31-1.07-.58-1.65-1.9.35-4.35.79-7.6,1.25-.13.23-.31.36-.5.4l-.52-1.63c.54,0,1.3-.04,2.23-.08.71-2.01,1.42-4.58,1.8-6.5l2.11.56c-.08.23-.31.4-.73.4-.58,1.57-1.55,3.72-2.65,5.52,1.59-.1,3.57-.21,5.64-.33-.58-1.05-1.32-2.11-2-2.86l.23-.13Zm1.96,5.91l1.4,1.09c-.13.15-.35.25-.75.31v6.58c0,.1-.48.38-1.02.38h-.21v-1.5h-5.47v1.21c0,.1-.38.38-1,.38h-.19v-8.31l1.42.59h5.18l.63-.75Zm-.58,6.29v-4.97h-5.47v4.97h5.47Z"/><path class="cls-1" d="m414.67,25.75c-.06.56-.82.42-1.11.38-.25-.04-2.92-.44-5.29-.21-.04,1.17-.08,2.51-.06,3.47.4.77.58,1.96.56,3.45-.06,3.8-3.59,4.97-4.01,5.1-.13.06-.25.08-.29,0-.04-.1,0-.19.17-.27,2.97-1.32,3.15-4.41,3.15-4.41-.13.25-.73.73-1.17.71-.88,0-1.32-.98-1.5-1.34-.17-.36-.5-.79-.63-1.82-.1-.63.13-2.09,1.65-2.4.5-.11.92-.06,1.27.12.06-.42.1-1.17.08-2.51-2.3.33-2.95.67-4.33,1.27-.38.17-1.52.79-2.59.12-.46-.27-.84-.69-.96-.82-.15-.15-.21-.33-.13-.4.17-.17.48.08.98.13.52.04,1.25.06,2.01-.12.54-.11,3.05-.59,5.01-.9,0-.46-.04-.98-.06-1.55-.04-.69-.36-1.27-.61-1.48-.19-.15-.44-.21-.42-.36.02-.13.1-.19.25-.25.17-.06.63-.11,1.13.11.56.25.73.44.81.77.06.29-.02.46-.08.67.59.36,1.98,1.17,2.92,1.42,1.21.35,1.96.27,2.36.36.46.08,1,.21.92.77Zm-7.37,5.12c-.02-1.32-.44-1.94-.94-1.92-.23.02-1.61.5-1.3,1.75.29,1.25.92,1.82,1.53,1.82.38,0,.75-.33.71-1.65Zm2.63-6.25c-.15-.1-1.02-.73-1.52-1.09-.04.31-.08.92-.12,1.65.58-.08,1.06-.13,1.32-.13.21,0,.59-.04.61-.11.02-.06-.13-.19-.31-.31Z"/><path class="cls-1" d="m431.15,34.12c.58.17,1.34.94,1.52,1.75v.06l.08-.02c2.74-.98,3.24-5.35-.08-6.04-.38-.1-.71-.12-1-.12-1.19-.02-2.67.46-4.37,3.34-.21.35-.48.84-.71,1.04-.12.1-.27.1-.35.1-.23,0-.44-.11-.5-.21-.31-.44-.1-.9.19-1.38.08-.13.98-1.21,1.34-1.67.12-.15.19-.25.23-.27,1.27-1.59,3.03-4.33,3.97-5.85l.04-.08c.21-.33.54-.84.17-1.15-.02,0-.04-.02-.04-.02-.06-.06-.13-.1-.21-.12-.23-.06-.42.19-.54.36-.15.23-1.02,1.42-1.96,1.82-.17.08-.35.1-.52.1-.34,0-.98-.17-1.23-1.25-.08-.36-.04-.48-.04-.5.15-.08.27.1.35.21.06.1.29.23.54.23.08,0,.17-.02.25-.04.36-.12,1.07-.5,1.98-1.23.48-.38,1.05-.52,1.73-.4.42.08,1.21.35,1.4.86.15.4.06.75-.31,1.13-.23.25-3.87,4.62-4.22,5.26l-.1.19.19-.13c.33-.19,1.44-.96,3.03-.92.35,0,.71.04,1.05.13.42.08.82.21,1.19.38,2.63,1.28,2.51,5.08.1,6.54-1.38.84-3.36,1.3-4.83.46-1.52-.86-.75-2.72.88-2.69.23,0,.5.04.77.11Zm.42,2.11s.04-.04.02-.08c-.19-.73-.5-1.19-1.15-1.3-.1-.02-.17-.02-.27-.02-.56.02-.67.46-.67.71,0,.08.04.15.1.23.29.31,1.09.54,1.61.54.31.02.35-.04.36-.08Z"/><path class="cls-1" d="m458.91,37.38c-.27.12-.59-.15-.83-.36-.23-.21-1-1.02-2.07-1.69-.19,1-.9,2.28-3.05,2.26-1.5,0-2.88-.69-2.88-1.9s1.42-1.99,3.09-1.98c.46,0,1.09.06,1.8.21-.12-1.09-.19-2.19-.23-3.3-.88.17-1.78.27-2.49.19-1.52-.17-2.13-1.05-2.34-1.48-.08-.17-.08-.25-.04-.29.08-.06.19.04.31.11.19.13,1.32.86,2.74.75.5-.04,1.15-.1,1.8-.21,0-1.11.02-2.22.1-3.34-.46.04-.9,0-1.27-.15-.54-.21-1.17-.77-1.4-1.07-.08-.11-.17-.27-.11-.35.04-.04.15-.08.36.06.29.21.69.54,1.4.59.27.02.67-.04,1.13-.13.13-.84.31-1.75-.04-2.53-.15-.35-.65-.77-.61-.94.04-.21.33-.31.65-.25.35.08,1.29.48,1.29,1.32,0,.54-.35,1.52-.46,2.03-.02.06-.02.11-.04.17.5-.13.94-.27,1.11-.33.44-.13.75,0,.81.23.04.23-.06.58-.56.79-.33.13-.88.33-1.52.46-.08.75-.1,1.71-.08,3.03v.23c.58-.15,1.11-.35,1.48-.59.69-.48,0-.94-.29-1.42-.04-.06-.06-.11-.08-.19-.13-.35.19-.1.35.06.31.27.63.4,1.04.5.36.1.69.06.9.27.21.23.25,1.04-.65,1.46-.46.21-1.52.58-2.69.84.12,1.61.38,2.9.48,3.76,1.13.36,2.28.98,2.95,1.96.52.75.04,1.17-.08,1.21Zm-3.89-2.59c-.61-.27-1.28-.44-2.01-.46-1.46-.02-2.23.58-2.23,1.4,0,.38.79.9,1.98.9.79,0,2.17-.35,2.26-1.84Z"/><path class="cls-1" d="m482.39,24.53c-1.07-.15-2.17.25-2.36.36-.36.19-1.4,1.34-1.9,2.84-1.25,3.68-.84,6.12-.13,7.15.65.94,2.15.63,2.99.61.98-.04,1.82.1,1.8.71-.02.56-1.04.67-1.42.69-1.65.11-3.07.13-4.07-1.11-.88-1.09-1.02-2.24-1.04-3.59-.06-4.55,2.93-7.21,2.88-7.33-.04-.1-.27.04-.48.08-.81.21-3.61,1.44-4.41,1.75-.35.13-1.13.67-1.57.73-.86.12-1.9-1.21-1.98-1.32-.1-.11-.12-.27-.04-.36.12-.12.21-.06.38.02.17.08.69.46,1.36.31.67-.15,5.33-1.88,8.42-2.36.59-.08.88-.38,1.71-.56.59-.12,1.67.36,1.86.73.21.38.25.69-.15.86-.13.08-1.25-.13-1.86-.21Zm2.07-2.65c.27.08,2.03.61,2.05,1.8,0,.38-.12.56-.35.63s-.67-.04-.88-.5c-.23-.5-.65-1.27-1.11-1.55-.19-.11-.44-.25-.4-.38.06-.15.42-.06.69,0Zm2.01-1c.27.04,2.11.48,2.15,1.71.02.33-.15.42-.29.48-.23.1-.61.02-.88-.42-.27-.46-.75-1.15-1.23-1.38-.19-.1-.48-.21-.44-.35.04-.15.42-.1.69-.04Z"/><path class="cls-1" d="m510.53,30.68c-.65,6.18-8.15,6.23-8.57,6.29-.61.06-.96.06-.98-.08-.04-.11.5-.17.75-.21,2.13-.35,7.06-1.8,7.44-6.27.4-4.47-2.78-6.27-5.47-6.43-.25-.02-.5-.02-.75,0,.31.63,1.13,2.65-.27,5.95-1.55,3.66-3.8,5.39-4.58,5.29-.81-.1-2.17-1.61-2.32-3.99-.33-4.81,3.66-7.35,6.43-7.79,3.09-.5,8.96,1.02,8.32,7.23Zm-7.9-6.67c-2.36.27-4.68,1.82-5.58,4.56-1.04,3.16.58,4.87.96,5.06.36.19.84-.19.84-.19,2.23-1.63,3.47-4.78,3.72-5.66.25-.9.38-2.7.06-3.78Z"/><path class="cls-1" d="m520.68,27.63v10.38c0,.17-.42.5-1,.5h-.23v-16.94l1.32.61h3.76l.63-.69,1.44,1.09c-.12.13-.38.29-.71.35v5.18c-.02.12-.63.38-1.04.38h-.15v-.86h-4.03Zm0-4.87v1.84h4.03v-1.84h-4.03Zm4.03,4.32v-1.92h-4.03v1.92h4.03Zm6.64,3.03c-.12.15-.38.31-.71.36v5.85c-.02.13-.63.44-1.04.44h-.17v-1.04h-4.66v.81c0,.12-.5.4-1,.4h-.19v-7.79l1.27.59h4.41l.65-.73,1.44,1.09Zm-6.58.17v2.09h4.66v-2.09h-4.66Zm4.66,4.87v-2.21h-4.66v2.21h4.66Zm6.23-12.54c-.13.15-.46.33-.84.4v13.66c0,1.02-.19,1.67-2.01,1.86-.04-.4-.13-.75-.38-.94-.31-.21-.79-.36-1.65-.5v-.31s1.94.15,2.34.15c.36,0,.48-.11.48-.42v-8.88h-4.18v.42c0,.11-.54.38-1.06.38h-.17v-6.81l1.3.56h3.91l.63-.79,1.63,1.21Zm-6.25.15v1.84h4.18v-1.84h-4.18Zm4.18,4.32v-1.92h-4.18v1.92h4.18Z"/><path class="cls-1" d="m548.01,27.77c.04.08,0,.12-.06.31-.1.4-1.59,4.62-1.73,5.66-.08.77.35,2.28.31,2.55-.02.27-.17.54-.38.56-.21.04-.63,0-.92-.48-.27-.5-1.17-1.78-.81-5.5.12-1.17.33-2.34.56-3.49.19-.98.44-1.94.4-2.95-.02-.52-.33-.94-.38-1.05-.08-.13-.06-.25-.02-.29.1-.13.29-.06.46.1.29.27,1.32,1.38,1.21,2.36-.1.86-.52,1.71-.79,2.51-.36,1.04-.67,2.09-.69,3.2,0,.17-.08,1.5.33,1.36.48-.15,2.03-4.28,2.26-4.68.1-.15.19-.23.25-.15Zm10.45,8.13c-.21.29-.48.29-.82.08-.17-.1-.52-.48-.98-.92-.42-.38-.94-.73-1.52-1.02,0,1.17-.27,2.61-2.32,2.67-2.22.06-3.22-.77-3.26-2.03-.06-1.27,1.02-1.9,2.55-2.11.71-.1,1.34-.08,1.94,0-.02-.82-.06-2.92-.1-4.78-.69.15-1.42.23-2.09.11-.81-.13-1.59-1.09-1.69-1.28-.1-.21-.12-.29-.04-.36.1-.06.27.1.38.17.13.11.73.59,1.71.52.56-.04,1.15-.15,1.69-.31-.02-1.13-.04-2.01-.06-2.26-.06-.81-.79-1.13-.96-1.21-.15-.06-.17-.19-.13-.27.04-.1.25-.23,1.06-.21.81.02,1.3.73,1.32.98.04.23-.13.38-.29.84.29.29.79.73,1.19.82.59.13.92.11,1.02.42.1.31.06.71-.67,1.09-.31.17-.9.46-1.61.69,0,.46.02.86.02,1.11.02.65.17,2.7.27,4.12,1.42.42,2.4,1.19,2.84,1.61.27.25.94,1,.56,1.52Zm-4.37-2.28c-.67-.21-1.38-.31-2.07-.31-1.73.04-1.82.94-1.84,1.29-.13,1.25,1.92,1.28,2.49,1.21,1.19-.15,1.4-1.34,1.42-2.19Zm.67-7.25c.21-.08.4-.15.56-.23.17-.08.44-.21.25-.46-.12-.13-.48-.5-.77-.81-.04.35-.04.9-.04,1.5Z"/><path class="cls-1" d="m568.31,35.78c-.5-.61-1.09-1.19-1.34-1.36-.21-.15-.35-.23-.33-.33.04-.13.23-.08.48,0,.23.06,3.28,1.07,3.99,2.8.21.48.04,1.25-.65,1.4-.29.06-.63-.11-.96-.65-.08-.15-.77-1.34-1.19-1.86Z"/><path class="cls-1" d="m599.92,33.33c1.53,2.26,4.56,3.4,8.15,3.86l-.02.21c-.52.13-.88.52-1.06,1.13-3.62-.82-6.18-2.3-7.56-5.2h-.48c-.69,2.3-2.53,3.97-8.59,5.18l-.15-.36c4.83-1.29,6.66-2.78,7.37-4.81h-6.94l-.17-.56h7.29c.19-.73.27-1.53.31-2.42l1.96.21c-.04.25-.23.46-.65.5-.06.59-.13,1.17-.25,1.71h5.98l.94-1.17s1.06.82,1.73,1.42c-.06.21-.25.31-.52.31h-7.33Zm-9.55-4.1c.81-.11,2.13-.35,3.7-.65v-2.4h-2.74l-.15-.56h2.9v-2.05h-3.09l-.15-.56h3.24v-1.99l1.92.19c-.06.27-.23.44-.71.52v1.29h1.4l.79-1.04s.94.75,1.53,1.3c-.06.21-.25.29-.52.29h-3.2v2.05h1.25l.79-1s.94.71,1.5,1.25c-.06.21-.23.31-.5.31h-3.03v2.15l3.55-.71.08.33c-1.59.56-3.87,1.32-7.12,2.3-.08.23-.23.36-.4.44l-1.02-1.46Zm8.86-6.5l-.17-.58h6.39l.71-.75,1.44,1.19c-.13.13-.36.21-.75.29-.13,3.99-.52,6.12-1.25,6.81-.46.42-1.11.61-1.82.61,0-.36-.06-.67-.31-.88-.23-.19-.86-.35-1.48-.44l.02-.35c.65.06,1.76.15,2.15.15.33,0,.46-.04.61-.17.44-.4.71-2.42.86-5.89h-2.61c-.21,2.99-.94,5.81-5.66,7.84l-.27-.31c3.95-2.15,4.43-4.83,4.56-7.54h-2.44Z"/><path class="cls-1" d="m614.13,36.71c.59-1.34,1.17-3.38,1.44-5.27l1.73.46c-.08.23-.27.4-.69.42-.5,1.69-1.27,3.41-2.19,4.56l-.29-.17Zm5.39-9.53c3.68,1.92,2.63,4.41,1.44,3.47-.08-.44-.27-.94-.5-1.46-.5.11-1.04.23-1.61.35v8.55c0,.11-.42.42-1.02.42h-.19v-8.73c-.75.15-1.57.31-2.46.46-.12.23-.29.36-.5.38l-.4-1.44c.46,0,1.17-.04,2.05-.1,1.19-1.76,2.51-4.16,3.3-5.93l1.8.71c-.1.21-.36.36-.75.33-.88,1.42-2.34,3.34-3.74,4.85.98-.08,2.11-.17,3.3-.27-.31-.54-.65-1.07-.96-1.48l.23-.13Zm-.11-5.54c-.08.19-.31.35-.69.33-.65,1.02-1.4,2.11-2.15,2.92,1.53,1.15.84,2.51-.08,1.9-.27-.88-1.21-1.98-2.01-2.61l.19-.17c.61.17,1.09.38,1.48.61.5-1.02,1.02-2.4,1.42-3.66l1.84.69Zm.42,9.76c3.36,2.28,2.19,4.81,1.04,3.76-.1-1.15-.75-2.69-1.3-3.68l.27-.08Zm11.93-5.95c-.13.15-.38.27-.81.31-.15,6.04-.58,10.66-1.53,11.8-.58.63-1.34.92-2.36.92,0-.4-.08-.75-.38-.96-.35-.25-1.38-.46-2.28-.63l.02-.35c1.02.12,2.72.29,3.2.29.44,0,.59-.08.82-.29.75-.71,1.11-5.33,1.29-10.95h-5.83c-.61,1.19-1.3,2.24-2.05,3.07l-.29-.19c1.04-1.82,2.01-4.66,2.53-7.42l1.96.58c-.1.23-.31.38-.69.38-.35,1.05-.75,2.09-1.19,3.05h5.35l.75-.84,1.5,1.25Zm-7.71,2.74c4.33,2.19,3.11,5.31,1.78,4.18-.12-1.34-1.11-3.03-1.99-4.07l.21-.11Z"/><path class="cls-1" d="m650.73,37.38c-.27.12-.59-.15-.82-.36-.23-.21-1-1.02-2.07-1.69-.19,1-.9,2.28-3.05,2.26-1.5,0-2.88-.69-2.88-1.9s1.42-1.99,3.09-1.98c.46,0,1.09.06,1.8.21-.11-1.09-.19-2.19-.23-3.3-.88.17-1.78.27-2.49.19-1.52-.17-2.13-1.05-2.34-1.48-.08-.17-.08-.25-.04-.29.08-.06.19.04.31.11.19.13,1.32.86,2.74.75.5-.04,1.15-.1,1.8-.21,0-1.11.02-2.22.1-3.34-.46.04-.9,0-1.27-.15-.54-.21-1.17-.77-1.4-1.07-.08-.11-.17-.27-.12-.35.04-.04.15-.08.36.06.29.21.69.54,1.4.59.27.02.67-.04,1.13-.13.13-.84.31-1.75-.04-2.53-.15-.35-.65-.77-.61-.94.04-.21.33-.31.65-.25.35.08,1.28.48,1.28,1.32,0,.54-.34,1.52-.46,2.03-.02.06-.02.11-.04.17.5-.13.94-.27,1.11-.33.44-.13.75,0,.81.23.04.23-.06.58-.56.79-.33.13-.88.33-1.52.46-.08.75-.1,1.71-.08,3.03v.23c.58-.15,1.11-.35,1.48-.59.69-.48,0-.94-.29-1.42-.04-.06-.06-.11-.08-.19-.13-.35.19-.1.35.06.31.27.63.4,1.04.5.36.1.69.06.9.27.21.23.25,1.04-.65,1.46-.46.21-1.52.58-2.69.84.12,1.61.38,2.9.48,3.76,1.13.36,2.28.98,2.95,1.96.52.75.04,1.17-.08,1.21Zm-3.89-2.59c-.61-.27-1.29-.44-2.01-.46-1.46-.02-2.22.58-2.22,1.4,0,.38.79.9,1.98.9.79,0,2.17-.35,2.26-1.84Z"/><path class="cls-1" d="m670.66,24.79c.08.15.08.44-.36.77-.67.5-1.53,1.02-2.46,1.4-.71,3.3-1.71,7.88-1.92,8.55-.33,1.04-.56,1.25-1.09,1.07-.54-.19-.65-.77-.34-1.34.06-.13.61-1.42.94-2.34.54-1.44,1.11-3.32,1.53-5.62-.65.21-1.3.33-1.88.31-.42-.02-1.13-.4-1.63-.92-.15-.15-.12-.27-.12-.27.08-.11.23,0,.38.04.15.06,1.17.42,2.67-.1.19-.06.36-.13.56-.21.08-.04.15-.06.23-.1.08-.56.15-1.15.21-1.75.02-.15.1-.98-.1-1.38-.17-.38-.75-.65-.81-.73-.06-.08-.08-.12-.04-.21.04-.15.92,0,1.32.23.4.21.98.46.83,1.3l.02.02s.31.44.77.67c.21.11.46.21.71.27.19.06.46.11.58.33Zm-1.57,0c0-.23-.25-.46-.44-.69l-.15-.15c-.08.33-.19.88-.35,1.57.19-.1.36-.19.56-.29.15-.1.38-.21.38-.44Zm8.31,10.91c.31,1-1.3,1.05-2.65,1.04-1.63-.04-3.15-.63-3.7-1.73-.56-1.09-.15-2.17-.1-2.36.1-.29.27-.5.38-.48.11.04.02.25,0,.63-.02.17-.06,1.13.71,1.8.5.46,1.65.9,3.2.71,1.59-.17,1.98-.11,2.15.38Zm.48-8.4c-.17.4-1.3.44-1.9.63-.4.13-.9.42-1.13.56-.12.08-.29.1-.31.04-.02-.04-.04-.1.04-.19.11-.15.98-.71,1.4-1.19.13-.15.23-.27.23-.4,0-.11-.19-.29-.27-.36-.67-.52-1.67-.52-2.11-.44-.21.02-.36-.06-.4-.13-.04-.1.06-.23.17-.27,1.38-.58,2.82-.15,3.49.31.67.46.86,1.27.79,1.46Z"/><path class="cls-1" d="m691.88,27.77c.04.08,0,.12-.06.31-.1.4-1.59,4.62-1.73,5.66-.08.77.35,2.28.31,2.55-.02.27-.17.54-.38.56-.21.04-.63,0-.92-.48-.27-.5-1.17-1.78-.81-5.5.12-1.17.33-2.34.56-3.49.19-.98.44-1.94.4-2.95-.02-.52-.33-.94-.38-1.05-.08-.13-.06-.25-.02-.29.1-.13.29-.06.46.1.29.27,1.32,1.38,1.21,2.36-.1.86-.52,1.71-.79,2.51-.36,1.04-.67,2.09-.69,3.2,0,.17-.08,1.5.33,1.36.48-.15,2.03-4.28,2.26-4.68.1-.15.19-.23.25-.15Zm10.45,8.13c-.21.29-.48.29-.82.08-.17-.1-.52-.48-.98-.92-.42-.38-.94-.73-1.52-1.02,0,1.17-.27,2.61-2.32,2.67-2.23.06-3.22-.77-3.26-2.03-.06-1.27,1.02-1.9,2.55-2.11.71-.1,1.34-.08,1.94,0-.02-.82-.06-2.92-.1-4.78-.69.15-1.42.23-2.09.11-.81-.13-1.59-1.09-1.69-1.28-.1-.21-.12-.29-.04-.36.1-.06.27.1.38.17.13.11.73.59,1.71.52.56-.04,1.15-.15,1.69-.31-.02-1.13-.04-2.01-.06-2.26-.06-.81-.79-1.13-.96-1.21-.15-.06-.17-.19-.13-.27.04-.1.25-.23,1.05-.21.81.02,1.3.73,1.32.98.04.23-.13.38-.29.84.29.29.79.73,1.19.82.59.13.92.11,1.02.42.1.31.06.71-.67,1.09-.31.17-.9.46-1.61.69,0,.46.02.86.02,1.11.02.65.17,2.7.27,4.12,1.42.42,2.4,1.19,2.84,1.61.27.25.94,1,.56,1.52Zm-4.37-2.28c-.67-.21-1.38-.31-2.07-.31-1.73.04-1.82.94-1.84,1.29-.13,1.25,1.92,1.28,2.49,1.21,1.19-.15,1.4-1.34,1.42-2.19Zm.67-7.25c.21-.08.4-.15.56-.23.17-.08.44-.21.25-.46-.12-.13-.48-.5-.77-.81-.04.35-.04.9-.04,1.5Z"/><path class="cls-1" d="m727.88,28.86c-.15.13-.36.19-.79.21-1.04,1.25-3.07,2.93-4.6,3.93l-.21-.15c.98-1.04,2.32-2.74,3.11-4.03h-5.79v7.81c0,1.02-.29,1.73-2.36,1.92-.04-.4-.21-.73-.52-.92-.36-.23-1.02-.4-2.15-.54v-.29s2.69.19,3.2.19c.4,0,.54-.13.54-.42v-7.75h-8.02l-.15-.58h9.95c-.61-.98-2.32-2.53-4.76-3.61l.12-.31c1.61.31,2.8.75,3.66,1.19,1.21-.71,2.78-1.75,3.82-2.61h-10.43l-.17-.56h10.99l.94-.84,1.5,1.44c-.15.13-.4.17-.86.19-1.27.86-3.61,1.92-5.39,2.61,1.67,1.02,1.8,2.13,1.36,2.49h4.62l.88-.84,1.52,1.46Z"/><path class="cls-1" d="m734.02,36.71c.59-1.34,1.17-3.38,1.44-5.27l1.73.46c-.08.23-.27.4-.69.42-.5,1.69-1.27,3.41-2.19,4.56l-.29-.17Zm5.39-9.53c3.68,1.92,2.63,4.41,1.44,3.47-.08-.44-.27-.94-.5-1.46-.5.11-1.04.23-1.61.35v8.55c0,.11-.42.42-1.02.42h-.19v-8.73c-.75.15-1.57.31-2.46.46-.12.23-.29.36-.5.38l-.4-1.44c.46,0,1.17-.04,2.05-.1,1.19-1.76,2.51-4.16,3.3-5.93l1.8.71c-.1.21-.36.36-.75.33-.88,1.42-2.34,3.34-3.74,4.85.98-.08,2.11-.17,3.3-.27-.31-.54-.65-1.07-.96-1.48l.23-.13Zm-.11-5.54c-.08.19-.31.35-.69.33-.65,1.02-1.4,2.11-2.15,2.92,1.53,1.15.84,2.51-.08,1.9-.27-.88-1.21-1.98-2.01-2.61l.19-.17c.61.17,1.09.38,1.48.61.5-1.02,1.02-2.4,1.42-3.66l1.84.69Zm.42,9.76c3.36,2.28,2.19,4.81,1.04,3.76-.1-1.15-.75-2.69-1.3-3.68l.27-.08Zm11.93-5.95c-.13.15-.38.27-.81.31-.15,6.04-.58,10.66-1.53,11.8-.58.63-1.34.92-2.36.92,0-.4-.08-.75-.38-.96-.35-.25-1.38-.46-2.28-.63l.02-.35c1.02.12,2.72.29,3.2.29.44,0,.59-.08.82-.29.75-.71,1.11-5.33,1.29-10.95h-5.83c-.61,1.19-1.3,2.24-2.05,3.07l-.29-.19c1.04-1.82,2.01-4.66,2.53-7.42l1.96.58c-.1.23-.31.38-.69.38-.34,1.05-.75,2.09-1.19,3.05h5.35l.75-.84,1.5,1.25Zm-7.71,2.74c4.33,2.19,3.11,5.31,1.78,4.18-.11-1.34-1.11-3.03-1.99-4.07l.21-.11Z"/><path class="cls-1" d="m774.28,30.68c-.65,6.18-8.15,6.23-8.57,6.29-.61.06-.96.06-.98-.08-.04-.11.5-.17.75-.21,2.13-.35,7.06-1.8,7.44-6.27.4-4.47-2.78-6.27-5.47-6.43-.25-.02-.5-.02-.75,0,.31.63,1.13,2.65-.27,5.95-1.55,3.66-3.8,5.39-4.58,5.29-.81-.1-2.17-1.61-2.32-3.99-.33-4.81,3.66-7.35,6.43-7.79,3.09-.5,8.96,1.02,8.32,7.23Zm-7.9-6.67c-2.36.27-4.68,1.82-5.58,4.56-1.04,3.16.58,4.87.96,5.06.36.19.84-.19.84-.19,2.22-1.63,3.47-4.78,3.72-5.66.25-.9.38-2.7.06-3.78Z"/><path class="cls-1" d="m798.61,24.6c-.13.15-.44.31-.81.38v8.55c-.02.11-.67.42-1.09.42h-.19v-1.38h-5.03v5.43c0,.19-.56.54-1.04.54h-.25v-5.96h-4.93v1.19c0,.13-.52.44-1.05.44h-.21v-10.68l1.38.63h4.81v-3.2l1.98.23c-.06.27-.21.46-.69.54v2.44h4.85l.69-.79,1.57,1.23Zm-13.33.13v3.34h4.93v-3.34h-4.93Zm4.93,7.27v-3.4h-4.93v3.4h4.93Zm1.29-7.27v3.34h5.03v-3.34h-5.03Zm5.03,7.27v-3.4h-5.03v3.4h5.03Z"/><path class="cls-1" d="m821.15,33.27c-2,2.24-4.97,4.1-7.79,3.53-1.84-.38-2.92-1.53-2.97-4.26-.12-4.22.5-6.23.36-8.11-.11-1.3-.44-1.48-.79-1.67-.15-.1-.23-.35.13-.4.36-.06.75.02,1.09.19.75.35.94,1.53.86,2.21-.04.35-.12.88-.15,1.38-.29,2.69-.54,4.55-.4,6.66.13,2.22,1.04,2.67,2.49,2.93.96.19,3.05.31,6.94-2.7.15-.11.36-.27.44-.19.08.1-.08.27-.23.44Z"/><path class="cls-1" d="m834.19,35.04c1.32,1.53,2.78,1.76,6.08,1.76,2.24,0,5.27,0,7.58-.08v.27c-.56.1-.88.46-.96,1.05h-6.6c-3.49,0-5.02-.44-6.39-2.65-.79.84-2.05,2.01-2.82,2.63.04.27-.04.38-.23.48l-.88-1.63c.75-.33,1.92-.92,3.01-1.52v-5.66h-2.82l-.11-.58h2.67l.73-.98,1.67,1.38c-.13.13-.4.29-.92.35v5.16Zm-3.24-13.48c4.8,1.48,3.87,4.6,2.38,3.62-.35-1.15-1.57-2.63-2.57-3.47l.19-.15Zm3.49,13.43c3.09-2.26,5.43-6.02,6.31-10.7-.08-.46-.13-.94-.19-1.44h-3.82l-.17-.56h3.51l.67-.98,1.8,1.3c-.25.27-.75.42-1.42.46.71,4.55,2.53,8.78,6.66,10.86l-.08.21c-.54.13-1,.54-1.19,1.04-2.7-1.78-4.24-4.43-5.16-7.84-1.21,3.2-3.55,6.08-6.69,7.94l-.23-.29Z"/><path class="cls-1" d="m871.23,34.37c-.31.25-.65.02-1.02-.19-.17-.1-1.07-1.02-2.49-1.94-.17.4-.4.82-.67,1.27-1.53,2.53-3.61,3.76-6.02,3.93-.33.02-.27-.06-.25-.15,0-.08.13-.04.38-.11,1.4-.38,3.64-1.5,5.04-4.51.15-.35.29-.71.42-1.05-1.4-.75-3.15-1.34-5.1-1.3-.17,0-.34.02-.52.02-.81,1.57-2.21,4.35-2.82,4.78-.86.61-1.65.42-2.07-.1-.48-.63-.31-2.11.65-3.3.5-.61,1.73-1.55,3.55-1.9,1.23-2.09,2.65-4.47,3.07-5.08.23-.33.5-.73.19-.92-.23-.13-.44.08-.67.23-.5.36-1.36,1.23-1.65,1.38-.27.17-.42.38-.94.17-.54-.21-1.21-.73-1.38-.92-.17-.19-.12-.29-.06-.36.08-.08.21-.06.35,0,.13.08.56.31,1,.15.44-.15,1.73-1,2.36-1.3.63-.33,1.25-.54,1.98-.02.71.5.84,1.04.63,1.27-.1.1-.17.29-.48.59-1.38,1.32-2.67,3.51-3.2,4.41-.04.08-.1.17-.17.31.15-.02.31-.02.44-.02,1.5.02,3.38.5,5.1,1.19.29-.98.36-1.92,0-2.55-.15-.25-.61-.77-.52-.9.11-.15.79.19,1.07.27.56.17.98.98.9,2.22.56,1.04,1.28,2.09,2.11,2.8.17.12.35.25.48.36.63.5.61,1.04.31,1.29Zm-11.32-3.86c-1.4.33-2.55,1.11-3.09,2.38-.29.65-.13,1.05.1,1.15.25.08.94-.06,1.46-.92.19-.31.81-1.36,1.53-2.61Zm8.13.86c.36.15.71.35,1.04.52l-.84-1.25c-.06.23-.12.48-.19.73Z"/><path class="cls-1" d="m881.17,35.78c-.5-.61-1.09-1.19-1.34-1.36-.21-.15-.35-.23-.33-.33.04-.13.23-.08.48,0,.23.06,3.28,1.07,3.99,2.8.21.48.04,1.25-.65,1.4-.29.06-.63-.11-.96-.65-.08-.15-.77-1.34-1.19-1.86Z"/><path class="cls-1" d="m150.82,61.18c-.15.19-.35.23-.81.27-.86,2.49-2.09,4.68-3.95,6.44,1.75,1.34,3.88,2.32,6.39,2.99l-.08.23c-.63,0-1.19.35-1.5.96-2.34-.79-4.3-1.84-5.87-3.26-1.84,1.42-4.22,2.53-7.27,3.22l-.17-.31c2.78-.84,5.01-2.05,6.75-3.59-2.21-2.28-3.59-5.35-4.32-9.4-.27,5.49-1.21,9.88-5.22,13.33l-.25-.21c3.63-4.24,4.24-9.24,4.24-15.44h-3.15l-.17-.56h9.72l.67-.75,1.53,1.25c-.15.15-.48.27-.88.31-.23.96-.61,2.53-1,3.99h3.05l.86-.81,1.4,1.32Zm-10.7-4.76c.69,4.81,2.38,8.34,5.14,10.8,1.57-1.67,2.67-3.68,3.36-6h-3.26c-.11.42-.23.82-.35,1.19-.33.13-.73.15-1.32,0,.56-1.88,1.19-4.32,1.57-5.98h-5.14Z"/><path class="cls-1" d="m163.16,57.75c.9.06,1.42-.06,2.61-.69.48-.25.9.4,1,.73.12.31-.21.67-.96.84-.82.19-1.75,1.63-2.59,3.41-1,2.09-2.19,6.1.81,7.46,2.78,1.25,5.49-.81,6.04-2.61.9-2.88.58-7.46.46-8.11-.1-.58-.59-2.01-.65-2.26-.04-.25-.04-1,.61-.9.69.08.63.67.73,1.53.5,4.09,2.78,5.58,3.95,6.58.36.33.56,1.15,0,1.38-.58.27-1-.33-1.23-.52-.65-.56-1.17-1.44-1.59-2.19-.52-.94-.94-1.9-1.3-2.9.44,3.13.56,5.66-.25,8.13-1.65,5.12-9.8,4.76-9.63-1.15.12-4.05,3.68-8,3.28-7.86-.56.17-1.25.19-1.82-.17-.35-.23-.61-.71-.56-.84.06-.15.48.1,1.09.13Zm9.46-1.67c.29.04,2.09.38,2.24,1.55.04.38-.04.58-.27.67-.23.12-.67.04-.94-.4-.29-.46-.79-1.17-1.29-1.42-.19-.08-.46-.19-.44-.33.04-.17.42-.11.69-.08Zm1.27-1.61c.29,0,2.17.08,2.46,1.27.08.33-.08.46-.19.54-.21.13-.61.13-.94-.25-.36-.38-.96-.98-1.5-1.11-.21-.06-.5-.12-.5-.25.02-.17.42-.19.67-.19Z"/><path class="cls-1" d="m199.16,58.17c-.13.15-.44.31-.81.38v8.55c-.02.11-.67.42-1.09.42h-.19v-1.38h-5.02v5.43c0,.19-.56.54-1.04.54h-.25v-5.96h-4.93v1.19c0,.13-.52.44-1.05.44h-.21v-10.68l1.38.63h4.81v-3.2l1.98.23c-.06.27-.21.46-.69.54v2.44h4.85l.69-.79,1.57,1.23Zm-13.33.13v3.34h4.93v-3.34h-4.93Zm4.93,7.27v-3.4h-4.93v3.4h4.93Zm1.29-7.27v3.34h5.02v-3.34h-5.02Zm5.02,7.27v-3.4h-5.02v3.4h5.02Z"/><path class="cls-1" d="m221.7,66.84c-2,2.24-4.97,4.1-7.79,3.53-1.84-.38-2.92-1.53-2.97-4.26-.12-4.22.5-6.23.36-8.11-.11-1.3-.44-1.48-.79-1.67-.15-.1-.23-.35.13-.4.36-.06.75.02,1.09.19.75.35.94,1.53.86,2.21-.04.35-.12.88-.15,1.38-.29,2.69-.54,4.55-.4,6.66.13,2.22,1.04,2.67,2.49,2.93.96.19,3.05.31,6.94-2.7.15-.11.36-.27.44-.19.08.1-.08.27-.23.44Z"/><path class="cls-1" d="m234.75,68.61c1.32,1.53,2.78,1.76,6.08,1.76,2.24,0,5.27,0,7.58-.08v.27c-.56.1-.88.46-.96,1.05h-6.6c-3.49,0-5.02-.44-6.39-2.65-.79.84-2.05,2.01-2.82,2.63.04.27-.04.38-.23.48l-.88-1.63c.75-.33,1.92-.92,3.01-1.52v-5.66h-2.82l-.12-.58h2.67l.73-.98,1.67,1.38c-.13.13-.4.29-.92.35v5.16Zm-3.24-13.48c4.8,1.48,3.87,4.6,2.38,3.62-.35-1.15-1.57-2.63-2.57-3.47l.19-.15Zm3.49,13.43c3.09-2.26,5.43-6.02,6.31-10.7-.08-.46-.13-.94-.19-1.44h-3.82l-.17-.56h3.51l.67-.98,1.8,1.3c-.25.27-.75.42-1.42.46.71,4.55,2.53,8.78,6.66,10.86l-.08.21c-.54.13-1,.54-1.19,1.04-2.7-1.78-4.24-4.43-5.16-7.84-1.21,3.2-3.55,6.08-6.69,7.94l-.23-.29Z"/><path class="cls-1" d="m271.79,67.93c-.31.25-.65.02-1.02-.19-.17-.1-1.07-1.02-2.49-1.94-.17.4-.4.82-.67,1.27-1.53,2.53-3.61,3.76-6.02,3.93-.33.02-.27-.06-.25-.15,0-.08.13-.04.38-.11,1.4-.38,3.64-1.5,5.04-4.51.15-.35.29-.71.42-1.05-1.4-.75-3.15-1.34-5.1-1.3-.17,0-.34.02-.52.02-.81,1.57-2.21,4.35-2.82,4.78-.86.61-1.65.42-2.07-.1-.48-.63-.31-2.11.65-3.3.5-.61,1.73-1.55,3.55-1.9,1.23-2.09,2.65-4.47,3.07-5.08.23-.33.5-.73.19-.92-.23-.13-.44.08-.67.23-.5.36-1.36,1.23-1.65,1.38-.27.17-.42.38-.94.17-.54-.21-1.21-.73-1.38-.92-.17-.19-.12-.29-.06-.36.08-.08.21-.06.35,0,.13.08.56.31,1,.15.44-.15,1.73-1,2.36-1.3.63-.33,1.25-.54,1.98-.02.71.5.84,1.04.63,1.27-.1.1-.17.29-.48.59-1.38,1.32-2.67,3.51-3.2,4.41-.04.08-.1.17-.17.31.15-.02.31-.02.44-.02,1.5.02,3.38.5,5.1,1.19.29-.98.36-1.92,0-2.55-.15-.25-.61-.77-.52-.9.11-.15.79.19,1.07.27.56.17.98.98.9,2.22.56,1.04,1.29,2.09,2.11,2.8.17.12.35.25.48.36.63.5.61,1.04.31,1.29Zm-11.32-3.86c-1.4.33-2.55,1.11-3.09,2.38-.29.65-.13,1.05.1,1.15.25.08.94-.06,1.46-.92.19-.31.81-1.36,1.53-2.61Zm8.13.86c.36.15.71.35,1.04.52l-.84-1.25c-.06.23-.12.48-.19.73Z"/><path class="cls-1" d="m294.73,64.25c-.65,6.18-8.15,6.23-8.57,6.29-.61.06-.96.06-.98-.08-.04-.11.5-.17.75-.21,2.13-.35,7.06-1.8,7.44-6.27.4-4.47-2.78-6.27-5.47-6.43-.25-.02-.5-.02-.75,0,.31.63,1.13,2.65-.27,5.95-1.55,3.66-3.8,5.39-4.58,5.29-.81-.1-2.17-1.61-2.32-3.99-.33-4.81,3.66-7.35,6.43-7.79,3.09-.5,8.96,1.02,8.32,7.23Zm-7.9-6.67c-2.36.27-4.68,1.82-5.58,4.56-1.04,3.16.58,4.87.96,5.06.36.19.84-.19.84-.19,2.22-1.63,3.47-4.78,3.72-5.66.25-.9.38-2.7.06-3.78Z"/><path class="cls-1" d="m303.78,55.33l1.76.17c-.06.27-.19.46-.67.54v6.75c-.02,3.36-.4,6.75-2.17,9.26l-.31-.19c1.21-2.53,1.38-5.77,1.38-9.07v-7.46Zm2.38,1.07l1.67.19c-.06.23-.21.4-.59.48v11.91c0,.17-.46.42-.86.42h-.21v-13Zm3.68,13.46c0,.17-.48.44-.88.44h-.23v-15.08l1.8.21c-.04.25-.19.44-.69.52v13.91Zm-.98,1.92c1.76-.75,3.8-2.11,4.81-3.43l1.57.94c-.12.17-.33.21-.65.1-1.19,1.11-3.55,2.17-5.6,2.7l-.13-.31Zm9.78-17.17s1.06.81,1.67,1.4c-.04.21-.23.31-.5.31h-3.84c-.38.82-.84,1.71-1.29,2.32h3.11l.65-.73,1.46,1.11c-.12.13-.38.27-.71.33v8.73c-.02.12-.63.44-1.05.44h-.17v-.81h-5.12v.52c0,.13-.5.44-1.02.44h-.21v-10.65l1.32.61h1.13c.15-.63.29-1.55.4-2.32h-3.64l-.15-.58h7.06l.9-1.13Zm-5.79,4.58v2.24h5.12v-2.24h-5.12Zm0,5.1h5.12v-2.3h-5.12v2.3Zm5.12,2.84v-2.26h-5.12v2.26h5.12Zm-1.94,1.32c4.97,1.25,4.39,4.2,2.95,3.45-.52-1.07-2.01-2.47-3.15-3.26l.19-.19Z"/><path class="cls-1" d="m332.65,55.16c-.08.21-.31.36-.73.35-.52,1.44-1.13,2.8-1.82,4.09l.77.29c-.06.17-.25.31-.58.36v11.41c-.02.11-.54.42-1.02.42h-.23v-10.74c-.75,1.15-1.57,2.17-2.42,2.99l-.27-.19c1.67-2.32,3.36-5.96,4.32-9.61l1.98.63Zm9.82,14.31s1.07.82,1.73,1.44c-.06.21-.25.31-.5.31h-12.33l-.13-.56h6.73c.88-3.03,1.76-7.21,2.23-10.22l2.15.46c-.06.25-.27.44-.71.46-.67,2.63-1.94,6.39-3.28,9.3h3.18l.94-1.19Zm-5.73-10.72v-4.14l1.98.21c-.04.27-.23.46-.71.52v3.41h3.16l.92-1.15s1.04.82,1.69,1.42c-.06.21-.23.31-.5.31h-11.37l-.15-.58h4.99Zm-3.13,1.86c4.09,5.64,2.32,9.82,1.23,8.23-.04-1.94-.33-5.58-1.52-8.09l.29-.13Z"/><path class="cls-1" d="m366.66,64.25c-.65,6.18-8.15,6.23-8.57,6.29-.61.06-.96.06-.98-.08-.04-.11.5-.17.75-.21,2.13-.35,7.06-1.8,7.44-6.27.4-4.47-2.78-6.27-5.47-6.43-.25-.02-.5-.02-.75,0,.31.63,1.13,2.65-.27,5.95-1.55,3.66-3.8,5.39-4.58,5.29-.81-.1-2.17-1.61-2.32-3.99-.33-4.81,3.66-7.35,6.43-7.79,3.09-.5,8.96,1.02,8.32,7.23Zm-7.9-6.67c-2.36.27-4.68,1.82-5.58,4.56-1.04,3.16.58,4.87.96,5.06.36.19.84-.19.84-.19,2.22-1.63,3.47-4.78,3.72-5.66.25-.9.38-2.7.06-3.78Z"/><path class="cls-1" d="m381.32,62.1c-.13.13-.4.29-.75.35v7.69c-.02.1-.61.36-1.02.36h-.17v-1.32h-2.21v1.86c0,.1-.4.38-.98.38h-.17v-7.83c-.42.77-.9,1.5-1.44,2.19l-.29-.25c1.4-2.42,2.19-5.54,2.65-8.65h-2.26l-.13-.58h4.78l.88-1.07s.98.77,1.61,1.34c-.06.21-.23.31-.5.31h-3.07c-.29,1.65-.69,3.2-1.27,4.64l.42.19h1.82l.63-.73,1.46,1.11Zm-1.94,6.5v-6.35h-2.21v6.35h2.21Zm11.26.54s.94.75,1.52,1.32c-.04.21-.21.31-.46.31h-7.81v.9c0,.1-.36.4-.96.4h-.19v-9.46c-.56.58-1.15,1.13-1.82,1.61l-.23-.21c1.75-1.67,3.05-4.03,3.93-6.33h-1.75c-.02.88-.31,1.53-.65,1.88-.38.31-1.02.38-1.25-.02-.17-.38.02-.79.4-1.02.52-.4,1-1.44.96-2.36h.33c.1.35.15.65.17.96h1.98c.33-.9.58-1.8.75-2.63l1.94.56c-.08.23-.25.35-.75.35-.17.56-.38,1.13-.61,1.73h3.87l.77-.79,1.4,1.36c-.15.15-.33.17-.71.19-.44.48-1.25,1.21-1.78,1.61l-.27-.11c.17-.44.44-1.13.63-1.71h-4.14c-.5,1.11-1.11,2.26-1.88,3.34l.1.04h2.13c.29-.82.56-1.96.71-2.78l1.86.42c-.08.23-.29.4-.69.4-.34.61-.82,1.32-1.32,1.96h2.65l.82-.98s.92.69,1.5,1.23c-.06.21-.23.31-.5.31h-3.7v2.38h1.65l.79-.98s.88.69,1.44,1.25c-.06.21-.23.31-.5.31h-3.38v2.47h1.78l.79-1s.88.71,1.44,1.25c-.04.21-.23.31-.48.31h-3.53v2.59h2.22l.84-1.05Zm-6.75-7.52v2.38h2.51v-2.38h-2.51Zm2.51,2.95h-2.51v2.47h2.51v-2.47Zm-2.51,5.62h2.51v-2.59h-2.51v2.59Z"/><path class="cls-1" d="m404.39,55.16c-.06.23-.29.4-.71.38-.5,1.44-1.09,2.78-1.78,4.05l.73.27c-.08.15-.25.27-.59.33v11.49c-.02.11-.54.42-1,.42h-.23v-10.65c-.73,1.11-1.52,2.07-2.34,2.9l-.27-.19c1.63-2.3,3.28-5.97,4.24-9.61l1.96.61Zm5.98,9.23c1.32,2.28,3.82,4.24,5.98,5.18l-.04.21c-.52.06-.92.4-1.11,1.02-1.96-1.25-3.84-3.34-5.01-5.89v6.81c0,.11-.44.44-1.04.44h-.21v-6.27c-1.4,2.15-3.45,3.89-6,5.18l-.19-.29c2.42-1.61,4.37-3.95,5.49-6.39h-5.1l-.15-.56h5.97v-2.67h-2.59v.71c0,.13-.54.42-1.05.42h-.19v-7.17l1.34.61h6.27l.71-.79,1.55,1.21c-.11.15-.42.33-.82.4v5.1c-.02.11-.63.38-1.06.38h-.19v-.88h-2.72v2.67h3.36l.9-1.13s1.04.79,1.67,1.38c-.06.21-.23.31-.5.31h-5.26Zm-4.01-3.78h6.56v-4.3h-6.56v4.3Z"/><path class="cls-1" d="m428.12,61.34c.04.08,0,.12-.06.31-.1.4-1.59,4.62-1.73,5.66-.08.77.35,2.28.31,2.55-.02.27-.17.54-.38.56-.21.04-.63,0-.92-.48-.27-.5-1.17-1.78-.81-5.5.12-1.17.33-2.34.56-3.49.19-.98.44-1.94.4-2.95-.02-.52-.33-.94-.38-1.05-.08-.13-.06-.25-.02-.29.1-.13.29-.06.46.1.29.27,1.32,1.38,1.21,2.36-.1.86-.52,1.71-.79,2.51-.36,1.04-.67,2.09-.69,3.2,0,.17-.08,1.5.33,1.36.48-.15,2.03-4.28,2.26-4.68.1-.15.19-.23.25-.15Zm10.45,8.13c-.21.29-.48.29-.82.08-.17-.1-.52-.48-.98-.92-.42-.38-.94-.73-1.52-1.02,0,1.17-.27,2.61-2.32,2.67-2.23.06-3.22-.77-3.26-2.03-.06-1.27,1.02-1.9,2.55-2.11.71-.1,1.34-.08,1.94,0-.02-.82-.06-2.92-.1-4.78-.69.15-1.42.23-2.09.11-.81-.13-1.59-1.09-1.69-1.28-.1-.21-.12-.29-.04-.36.1-.06.27.1.38.17.13.11.73.59,1.71.52.56-.04,1.15-.15,1.69-.31-.02-1.13-.04-2.01-.06-2.26-.06-.81-.79-1.13-.96-1.21-.15-.06-.17-.19-.13-.27.04-.1.25-.23,1.05-.21.81.02,1.3.73,1.32.98.04.23-.13.38-.29.84.29.29.79.73,1.19.82.59.13.92.11,1.02.42.1.31.06.71-.67,1.09-.31.17-.9.46-1.61.69,0,.46.02.86.02,1.11.02.65.17,2.7.27,4.12,1.42.42,2.4,1.19,2.84,1.61.27.25.94,1,.56,1.52Zm-4.37-2.28c-.67-.21-1.38-.31-2.07-.31-1.73.04-1.82.94-1.84,1.29-.13,1.25,1.92,1.28,2.49,1.21,1.19-.15,1.4-1.34,1.42-2.19Zm.67-7.25c.21-.08.4-.15.56-.23.17-.08.44-.21.25-.46-.12-.13-.48-.5-.77-.81-.04.35-.04.9-.04,1.5Z"/><path class="cls-1" d="m460.52,62.33l1.21-1.59s1.4,1.13,2.24,1.94c-.06.23-.27.31-.58.31h-16.69l-.19-.65h14Z"/><path class="cls-1" d="m474.24,67.59c-1.23,0-1.5-.36-1.5-1.29v-5.18l-2.32.44-.25-.52,2.57-.5v-5.68l1.82.21c-.02.25-.19.42-.63.5v4.76l2.67-.52.61-1.38s1.19.67,1.88,1.17c0,.23-.17.35-.42.4l-4.74.9v5.03c0,.33.08.46.58.46h1.09c.52,0,.94-.02,1.11-.04.13-.02.21-.04.29-.21.12-.25.35-1.52.54-2.57h.23l.08,2.67c.4.15.5.29.5.54,0,.54-.56.81-2.76.81h-1.34Zm14.04-10.61c-.15.13-.4.25-.82.31-.21,7.42-.69,12.12-1.71,13.31-.58.69-1.36.98-2.32.98.02-.4-.08-.77-.33-.98-.31-.23-1.17-.44-1.96-.59l.04-.33c.86.08,2.28.21,2.74.21.42,0,.58-.06.81-.27.82-.81,1.29-5.6,1.48-12.51h-3.95c-.48,7.69-1.55,12.64-8.09,14.98l-.23-.31c5.68-2.42,6.6-7.69,6.96-14.67h-3.8l-.17-.56h9.07l.77-.88,1.52,1.3Z"/><path class="cls-1" d="m506.37,58.09c-1.07-.15-2.17.25-2.36.36-.36.19-1.4,1.34-1.9,2.84-1.25,3.68-.84,6.12-.13,7.15.65.94,2.15.63,2.99.61.98-.04,1.82.1,1.8.71-.02.56-1.04.67-1.42.69-1.65.11-3.07.13-4.07-1.11-.88-1.09-1.02-2.24-1.04-3.59-.06-4.55,2.93-7.21,2.88-7.33-.04-.1-.27.04-.48.08-.81.21-3.61,1.44-4.41,1.75-.35.13-1.13.67-1.57.73-.86.12-1.9-1.21-1.98-1.32-.1-.11-.12-.27-.04-.36.12-.12.21-.06.38.02.17.08.69.46,1.36.31.67-.15,5.33-1.88,8.42-2.36.59-.08.88-.38,1.71-.56.59-.12,1.67.36,1.86.73.21.38.25.69-.15.86-.13.08-1.25-.13-1.86-.21Zm2.07-2.65c.27.08,2.03.61,2.05,1.8,0,.38-.11.56-.34.63-.23.08-.67-.04-.88-.5-.23-.5-.65-1.27-1.11-1.55-.19-.11-.44-.25-.4-.38.06-.15.42-.06.69,0Zm2.01-1c.27.04,2.11.48,2.15,1.71.02.33-.15.42-.29.48-.23.1-.61.02-.88-.42-.27-.46-.75-1.15-1.23-1.38-.19-.1-.48-.21-.44-.35.04-.15.42-.1.69-.04Z"/><path class="cls-1" d="m531.9,61.43c-.15.13-.96.59-2.03,1,.81,1.36,1.46,2.46,1.59,2.7.38.67.56,1.04.5,1.59-.06.56-.61,1.23-.88,1.36s-.52-.11-.84-.42c-1.34-1.27-3.13-1.42-4.09-1.4-.98.04-2.69.75-2.32,2.28.38,1.55,2.49,1.36,3.18,1.25.69-.13,1.48,0,1.88.29.38.25.31.98-.25,1.05-4.91.59-5.6-1.75-5.66-2.38-.17-2.32,1.78-2.84,3.03-3.03,1.27-.17,2.49.13,3.07.27.58.15.92.17,1.21.06.29-.12.13-.5.06-.82-.06-.19-.59-1.21-1.29-2.51-.65.21-1.38.38-2.07.44-.96.08-2.55.19-4.03-1.19-.31-.27-.52-.59-.5-.69.02-.13.23-.02.36.06.13.1,1.59.98,3.11.9.9-.04,1.86-.25,2.63-.48-.36-.67-.75-1.38-1.11-2.07-.08-.15-.15-.29-.25-.44-.77.25-1.67.46-2.24.31-.88-.25-1.34-.77-1.75-1.3-.15-.17-.21-.29-.17-.35.08-.1.4.11.61.25.17.1,1.09.63,1.92.46.29-.06.65-.19,1.02-.31-1.04-1.44-1.99-1.98-2.46-2.15-.19-.08-.5-.17-.52-.38-.02-.23.4-.35.61-.36.96-.15,1.44.21,1.78.63.12.13.59.94,1.25,2.01.38-.15.69-.27.82-.29.36-.04.69.08.84.36.15.25-.1.42-.31.56-.08.04-.36.19-.77.35.13.23.29.48.44.73.06.02.13.04.19.06.35.1,1.52.33,2.42.23.9-.08,1.59-.06,1.61.38.04.42-.33.75-.61,1Zm-2.03-.86c-.29-.1-.86-.25-1.36-.42.27.44.54.9.81,1.34.17-.08.31-.13.4-.19.48-.31.61-.58.15-.73Z"/><path class="cls-1" d="m554.82,70.95c-.27.12-.59-.15-.83-.36-.23-.21-1-1.02-2.07-1.69-.19,1-.9,2.28-3.05,2.26-1.5,0-2.88-.69-2.88-1.9s1.42-1.99,3.09-1.98c.46,0,1.09.06,1.8.21-.12-1.09-.19-2.19-.23-3.3-.88.17-1.78.27-2.49.19-1.52-.17-2.13-1.05-2.34-1.48-.08-.17-.08-.25-.04-.29.08-.06.19.04.31.11.19.13,1.32.86,2.74.75.5-.04,1.15-.1,1.8-.21,0-1.11.02-2.22.1-3.34-.46.04-.9,0-1.27-.15-.54-.21-1.17-.77-1.4-1.07-.08-.11-.17-.27-.12-.35.04-.04.15-.08.36.06.29.21.69.54,1.4.59.27.02.67-.04,1.13-.13.13-.84.31-1.75-.04-2.53-.15-.35-.65-.77-.61-.94.04-.21.33-.31.65-.25.35.08,1.29.48,1.29,1.32,0,.54-.35,1.52-.46,2.03-.02.06-.02.11-.04.17.5-.13.94-.27,1.11-.33.44-.13.75,0,.81.23.04.23-.06.58-.56.79-.33.13-.88.33-1.52.46-.08.75-.1,1.71-.08,3.03v.23c.58-.15,1.11-.35,1.48-.59.69-.48,0-.94-.29-1.42-.04-.06-.06-.11-.08-.19-.13-.35.19-.1.35.06.31.27.63.4,1.04.5.36.1.69.06.9.27.21.23.25,1.04-.65,1.46-.46.21-1.52.58-2.69.84.11,1.61.38,2.9.48,3.76,1.13.36,2.28.98,2.95,1.96.52.75.04,1.17-.08,1.21Zm-3.89-2.59c-.61-.27-1.29-.44-2.01-.46-1.46-.02-2.23.58-2.23,1.4,0,.38.79.9,1.98.9.79,0,2.17-.35,2.26-1.84Z"/><path class="cls-1" d="m583.06,60.99c-.06.36-.31.61-.79.54-.46-.1-1.34-.21-2.26-.21-.65,0-1.27-.02-1.9,0-.08,1.09-.21,2.28-.46,3.15-.27.98-.71,1.88-1.53,1.9-.5.02-.48-.23-.5-.38-.1-.84-1.09-1.88-1.19-1.96-.1-.1-.17-.11-.13-.23.04-.11.21-.02.33.02.1.06.94.58,1.19.71.25.13.5.04.58-.04.54-.52.77-1.8.86-3.09-1.3.11-2.82.46-5.02,1.34.02,1.71.1,3.87.35,5.06.15.75.56,1.07,1.19,1.21.63.13,2.99.04,4.33-.31.56-.15,1.3-.08,1.4.54.08.61-.75.75-1.23.82s-5.14.71-6.23-.9c-.59-.88-.79-5.08-.79-5.97-.02-.02-.02-.04-.02-.06-.06.02-.12.04-.17.08-1.15.48-1.71.96-2.32,1.02-.86.1-1.38-.31-1.67-.79s-.21-.96-.13-1.05c.13-.15.23.04.38.15.13.13.56.48,1.28.4.27-.04,1.27-.36,2.61-.77-.06-1.17-.17-2.7-.36-2.95-.56-.75-1.07-.59-1.11-.75-.04-.23.13-.33.38-.4.25-.06,1.27-.23,1.98.42.19.17.23.73.19.96-.04.21-.02.48-.04.88-.02.11-.02.71-.02,1.53,1.53-.44,3.34-.9,5.06-1.11.04-1.3-.02-2.47-.08-2.76-.1-.73-.71-1-.82-1.09-.12-.1-.27-.15-.13-.31.06-.08.27-.17.44-.17.33-.04,1.02.08,1.34.35.29.23.56.54.48.98-.06.27-.12.54-.21.98,0,.04-.02.08-.02.13.69.4,2.47,1.4,3.34,1.44.38,0,.71-.08.94,0,.23.1.56.35.5.69Zm-4.3-1.36c-.06-.04-.27-.19-.52-.35-.02.35-.04.82-.08,1.38.19-.02.36-.04.56-.04.21-.02.92,0,.96-.21.04-.19-.69-.63-.92-.79Z"/><path class="cls-1" d="m607.38,65.19c-1.36,4.41-3.78,5.47-5.2,5.24-1.42-.21-1.71-1.25-1.82-1.9-.1-.67.13-2.61.21-3.47.06-.52.13-1.59-.46-2.21-.82-.82-2.88-.04-4.37,1.52-1.67,1.73-1.82,3.8-2.07,4.76-.08.31-.1,1.38-.42,1.48-.73.17-1.46-.71-1-2.28.25-.81.65-1.61.79-1.94.88-2.11,5.27-8.29,5.54-8.77.27-.5.29-.94.04-1.4-.1-.15-.5-.29-.44-.48.04-.13.44-.17.86.04.82.4,1.34,1.29,1,2.13-.35.81-.86,1.13-1.32,1.59-.92.94-2.46,2.57-3.09,4.12,0,0,2.8-2.55,4.91-1.36,1.15.63,1.36,1.38,1.27,2.97-.08,1.15-.81,3.61.46,4.01,1.21.38,3.07-.33,4.79-4.16.13-.27.25-.58.36-.54.11.04.02.46-.04.65Z"/><path class="cls-1" d="m620.81,69.24c0,1.4-1.11,2.51-2.49,2.51s-2.51-1.11-2.51-2.51,1.13-2.49,2.51-2.49,2.49,1.11,2.49,2.49Zm-.46,0c0-1.11-.92-2.01-2.03-2.01s-2.03.9-2.03,2.01.92,2.03,2.03,2.03,2.03-.9,2.03-2.03Z"/><path class="cls-1" d="m657.1,62.43c-.15.13-.36.19-.79.21-1.04,1.25-3.07,2.93-4.6,3.93l-.21-.15c.98-1.04,2.32-2.74,3.11-4.03h-5.79v7.81c0,1.02-.29,1.73-2.36,1.92-.04-.4-.21-.73-.52-.92-.36-.23-1.02-.4-2.15-.54v-.29s2.69.19,3.2.19c.4,0,.54-.13.54-.42v-7.75h-8.02l-.15-.58h9.95c-.61-.98-2.32-2.53-4.76-3.61l.11-.31c1.61.31,2.8.75,3.66,1.19,1.21-.71,2.78-1.75,3.82-2.61h-10.43l-.17-.56h10.99l.94-.84,1.5,1.44c-.15.13-.4.17-.86.19-1.27.86-3.61,1.92-5.39,2.61,1.67,1.02,1.8,2.13,1.36,2.49h4.62l.88-.84,1.52,1.46Z"/><path class="cls-1" d="m678.78,65.57c-.63,4.07-5.96,4.79-7.25,4.89-.44.04-.65.08-.67-.08-.02-.13.56-.25.59-.25,4.6-1.07,5.68-3.38,5.95-5.29.36-2.74-1.65-4.43-4.1-4.68-.42,1.34-1.06,3.01-1.9,4.6.44.25.75.35.94.54.1.1.19.42.13.56-.13.35-.46.33-.88.23-.23-.06-.5-.17-.79-.33-1.19,1.88-2.8,3.07-3.78,2.97-.75-.08-1.73-1.11-1.23-3.55.31-1.52,1-2.65,1.82-3.49-.25-.69-.44-1.29-.56-1.55-.25-.65-.58-1.17-.75-1.34-.11-.1-.42-.31-.42-.4.02-.11.5-.02.9.17.58.27.9.96,1.02,1.23.06.12.25.63.52,1.29,1.38-1.07,2.97-1.52,4.01-1.65.11-.61.21-1.21.29-1.8.06-.35-.21-.71-.42-.84-.21-.13-.46-.25-.4-.42.06-.15.35-.15.79-.12.42.04.92.27,1.25.86.21.42.02,1.11-.13,1.69-.06.19-.11.38-.17.59,2.13.19,5.97,1.63,5.26,6.18Zm-8.69-.25c-.46-.33-.88-.71-1.15-1.07-.36-.46-.69-1.09-.98-1.73-.86,1.07-1.4,2.38-1.38,3.7,0,.31.21,1.11.54,1.28.54.27,1.75-.42,2.9-2.07.02-.04.04-.08.08-.12Zm.59-1.02c.65-1.23,1.13-2.67,1.48-4.14-1.29.11-2.53.73-3.51,1.63.35.71.77,1.44,1.21,1.84.31.29.58.5.83.67Z"/><path class="cls-1" d="m690.77,67.13c0-.67.19-1.25.35-1.25s.17.06.15.4c-.11,1.17.61,1.67,1.4,1.98,1.65.61,3.89.27,5.77-.04.67-.11,1.86-.33,2,.48.1.52-.48.81-.94.94-1.59.44-6,.82-7.84-.61-.69-.54-.88-1.23-.88-1.9Zm3.95-6.73c-.04-.08.04-.17.12-.23.54-.52.88-.96.86-1.09-.02-.15-.31-.27-.79-.35-1.04-.21-1.96-.79-2.28-1.17-.15-.17-.25-.46-.19-.54.06-.06.27.13.63.31.29.15,1.36.58,2.55.54.88-.02,1.96-.27,2.38-.11.31.11.88.36.81.96-.04.23-.54.33-1.07.4-.73.11-1.09,0-2.63,1.21-.21.15-.35.12-.38.08Zm4.49-.73c.35,0,2.3.12,2.61,1.32.1.36.02.59-.21.73-.23.13-.71.11-1.06-.31-.36-.44-1-1.11-1.55-1.3-.21-.06-.52-.13-.52-.29.02-.17.44-.17.73-.15Zm1.8-1.53c.29-.02,2.26,0,2.61,1.25.1.33-.06.48-.19.56-.21.13-.63.15-1-.21-.38-.42-.9-.9-1.5-1.11-.21-.08-.61-.13-.61-.27,0-.17.36-.21.69-.21Z"/><path class="cls-1" d="m728.02,56.62c-.17.13-.4.17-.84.19-1.48,1.04-3.74,2.47-5.81,3.47h.08c-.06.27-.23.44-.65.5v9.36c0,1.05-.27,1.71-2.4,1.94-.08-.42-.21-.73-.56-.92-.36-.23-1.04-.4-2.17-.54v-.31s2.74.19,3.28.19c.4,0,.54-.13.54-.46v-9.95l1.32.13c1.57-1.04,3.3-2.49,4.41-3.59h-12.39l-.17-.58h12.93l.92-.86,1.52,1.42Z"/><path class="cls-1" d="m741.54,60.66c-.15.15-.38.21-.81.23-.65,3.8-2.28,7.25-5.43,9.59l-.25-.23c2.53-2.59,3.91-6.06,4.37-9.59h-3.8l-.17-.56h3.78l.82-.84,1.48,1.4Zm6.06,5.24s.94.73,1.53,1.29c-.06.21-.25.31-.52.31h-3.91v2.74c0,1.02-.25,1.65-2.26,1.84-.08-.36-.19-.65-.52-.84-.35-.19-.94-.35-1.99-.48v-.29s2.47.17,2.97.17c.4,0,.54-.13.54-.46v-2.69h-4.16l-.15-.56h4.32v-2.3h-2.86l-.15-.58h3.01v-2.11h-2.3l-.15-.54h2.46v-3.18l1.23.13c1.11-.63,2.32-1.5,3.17-2.21h-9.67l-.17-.58h10.24l.86-.81,1.46,1.32c-.15.13-.4.17-.83.19-1.19.69-2.86,1.55-4.47,2.13l.12.02c-.06.25-.23.42-.67.48v2.49h.67l.73-.9s.81.65,1.3,1.15c-.04.19-.21.29-.48.29h-2.23v2.11h1.17l.75-.94s.88.69,1.4,1.21c-.04.21-.23.31-.48.31h-2.84v2.3h2.07l.82-1.04Zm5.26-6.08c-.1.19-.29.27-.69.15-.88.71-2.28,1.73-3.63,2.46,1.09,2.82,2.67,5.24,4.7,6.52l-.06.19c-.48.08-.92.44-1.15,1.04-2.84-2.4-4.32-6.62-5.06-11.89l.36-.1c.25,1.3.61,2.61,1.06,3.84,1.06-1,2.19-2.4,2.8-3.32l1.67,1.11Z"/><path class="cls-1" d="m768.43,69.79c-1.32-3.36-2.03-3.84-2.57-4.55-.58-.81-.9-1.23-.96-1.82-.06-.59.29-1.19.79-1.99,1.32-2.13,2.69-3.95,2.82-4.28.33-.75.19-1.15,0-1.32-.17-.15-.65-.38-.5-.58.15-.15,1.09.1,1.75.56.61.44.44,1.09.27,1.4-.33.65-1.02,1.23-2.07,2.51-.9,1.07-1.8,2.28-2.24,2.92-.33.48-.27.88.06,1.23.81.88,4.03,4.09,4.32,6.54.1.77-.11,1.05-.5,1.09-.61.06-.88-1.02-1.15-1.71Z"/><path class="cls-1" d="m790.88,58.25c.1.15.13.44-.27.81-.67.61-1.32,1.09-2.03,1.42-.67,3.22-1.69,7.77-1.88,8.48-.31,1.04-.56,1.52-1.09,1.34-.54-.17-.75-.73-.48-1.3.08-.15.83-1.75,1.21-3.11.5-1.75.92-3.32,1.27-5.06-.36.08-.73.13-1.11.15-.44.04-1.17-.27-1.73-.73-.17-.13-.15-.25-.15-.25.08-.13.23-.04.38,0,.17.02,1.21.29,2.67-.38.06-.04.12-.06.17-.1.08-.48.15-.98.23-1.52.02-.15.08-.98-.11-1.36-.19-.4-.77-.67-.82-.73-.06-.08-.08-.11-.06-.21.06-.15.94-.02,1.34.19.42.23.98.46.82,1.38v.06c.19.25.46.59.77.69.17.04.27.02.42.02.17.02.36.08.46.21Zm-1.73-.54c-.06.29-.13.69-.23,1.17.17-.13.35-.27.5-.44.12-.1-.08-.46-.27-.73Zm9.07,11.66c.06.48-.4.77-.84.86-.61.15-1.23.23-1.8.23-.94,0-2.74-.13-3.61-1.11-.44-.5-.52-1.27-.4-1.8.1-.46.35-.96.54-.96h.02c.1.02.1.15.08.38-.02.15-.02.31,0,.46.08.58.27,1.27,1.07,1.48.59.15,1.15.23,1.73.23.48,0,1.5-.11,2.01-.21.75-.15,1.17,0,1.21.44Zm-4.85-10.2s.02-.08.11-.08c.06,0,.15.02.31.06.33.06.84.13,1,.15.19,0,.4-.02.65-.06.27-.04.58-.1.92-.1.23,0,.46.02.69.06.36.08.69.33.82.67.12.25.08.5-.06.71-.13.19-.42.21-.67.23-.06.02-.12.02-.17.02-.08.02-.15.02-.21.04-.12,0-.21.02-.4.06-.19.06-.4.13-.61.21-.12.04-.21.08-.31.11-.04.02-.08.04-.13.06-.12.06-.25.11-.35.11h-.06s-.06-.06-.06-.08c-.02-.06,0-.11.02-.17.11-.21.33-.36.52-.5l.12-.11c.06-.04.1-.08.12-.12.02-.06,0-.1-.02-.13-.06-.11-.23-.15-.36-.17l-.02-.02q-.17-.02-.44-.1l-.13-.04c-.63-.21-1.3-.59-1.27-.82Zm6.33-1.3c.29.38.29.86-.08,1.19,0,0-.46.23-.82-.23-.36-.44-.81-1.11-1.78-1.71-.15-.1-.31-.15-.29-.27.02-.12.29-.08.44-.08.15.02,1.78.19,2.53,1.09Zm1.59-.61s-.42.27-.79-.11c-.38-.36-.86-.94-1.82-1.34-.15-.08-.29-.12-.29-.23s.25-.1.38-.11c.13,0,1.59-.02,2.36.71.31.31.5.79.15,1.09Z"/><path class="cls-1" d="m821.26,65.38c-.06.71-.96,1.48-1.27,1.5-.31.04-.48-.08-.67-.25-.77-.69-2.63-1.73-4.68-1.44-2.05.29-2.34,1.57-2.23,2.38.33,2.17,3.74,1.59,4.45,1.52.73-.08,1.07.25,1.17.54.12.46-.13.77-.9.86-4.97.63-5.64-1.73-5.72-2.72-.13-1.82,1.4-2.9,3.05-3.15,1.75-.29,4.01.48,4.33.58.33.1.54.15.79-.04.23-.17.31-.61.12-1.11-.65-1.67-2.05-3.05-3.34-4.05-.88.42-1.84.73-2.84.84-1.84.19-3.01-.73-3.61-1.42-.12-.13-.25-.29-.17-.4.08-.11.31.08.5.17.35.19,1.75.9,2.65.81.58-.06,1.59-.36,2.47-.71-.9-.59-1.59-.96-1.69-1.02-.67-.4-1.04-1.02-.86-1.48.19-.46.77-.9,1.29-.56,1,.69,2.46,1.11,3.61.92.5-.08,1.04-.06,1.29.17.23.23.1.71-.44,1.19-.46.4-.96.79-1.52,1.11,1.42,1.05,2.69,2.26,3.43,3.47.48.77.84,1.57.79,2.28Zm-5.14-6.43c.38-.19.69-.38.82-.56.12-.15.19-.33-.06-.44-.48-.23-1.63-.71-1.82-.75-.17-.04-.67-.29-.79-.02-.21.46.33.81.59.96.42.25.82.52,1.25.81Z"/><path class="cls-1" d="m833.33,58.31c.1-.21,1.05.1,1.53.52.38.36.52.67.5,1.07-.02.79-.81,2.82-.58,4.56.25,1.8,1.3,2.63,1.59,2.84.31.21.5.29.59.29.1-.02.21.02.31-.38.27-1.23.58-2.05.67-2.28.08-.21.21-.36.29-.35.08.02.04.25,0,.44-.27,1.25-.17,2.28-.13,2.69.04.4.33.9.34,1.11.02.21.04.5-.23.65-.25.17-1.23.04-2.55-1.15-.48-.44-1.65-1.78-1.86-3.78-.19-1.99.21-3.51.23-4.01.04-.48.13-.82.02-1.15-.12-.33-.35-.61-.65-.88-.06-.04-.12-.1-.08-.19Zm8.69,2.32c0-.08.04-.12.17-.15.12-.04,1.84-.65,3.38.79.77.73,1.15,1.69,1.17,2.17.04.5-.17,1.17-.92,1-.36-.1-.42-.38-.48-.56-.08-.17-.69-2.38-1.73-2.9-.59-.29-1.32-.23-1.44-.23-.08,0-.15-.06-.15-.11Z"/><path class="cls-1" d="m860.59,69.24c0,1.4-1.11,2.51-2.49,2.51s-2.51-1.11-2.51-2.51,1.13-2.49,2.51-2.49,2.49,1.11,2.49,2.49Zm-.46,0c0-1.11-.92-2.01-2.03-2.01s-2.03.9-2.03,2.01.92,2.03,2.03,2.03,2.03-.9,2.03-2.03Z"/><path class="cls-1" d="m888.92,71.85c1.04-1.17,1.9-2.99,2.28-4.26l1.76.77c-.12.19-.27.31-.71.25-.63,1.11-1.75,2.57-3.13,3.47l-.21-.23Zm2.19-4.22c0,.11-.38.4-.98.4h-.17v-12.95l1.38.58h2.82l.65-.75,1.42,1.09c-.13.17-.36.29-.79.36v11.01c0,.08-.46.38-1.02.38h-.19v-1.05h-3.13v.92Zm0-11.39v2.84h3.13v-2.84h-3.13Zm3.13,6.33v-2.92h-3.13v2.92h3.13Zm0,3.59v-3.01h-3.13v3.01h3.13Zm-.92,1.46c3.41,1.38,2.19,3.76,1.02,2.82-.11-.88-.69-2.01-1.23-2.69l.21-.13Zm12.83-6.71c-.15.17-.35.23-.77.27-.54,2.38-1.36,4.64-2.78,6.58,1.13,1.34,2.55,2.38,4.22,3.13l-.06.19c-.52.04-.98.35-1.23.9-1.5-.86-2.69-1.98-3.64-3.36-1.17,1.34-2.7,2.47-4.72,3.36l-.21-.29c1.86-1.04,3.3-2.36,4.39-3.91-1.06-1.84-1.73-4.07-2.11-6.79h-.75v.61c0,3.45-.31,7.65-3.51,10.51l-.31-.21c2.3-2.9,2.63-6.6,2.63-10.3v-6.21l1.4.61h5.37l.82-1.05s.98.75,1.57,1.32c-.06.21-.23.31-.5.31h-7.48v3.84h5.47l.79-.77,1.4,1.27Zm-6.5.08c.42,2.3,1.19,4.28,2.28,5.89,1.05-1.78,1.73-3.78,2.13-5.89h-4.41Z"/><path class="cls-1" d="m912.82,71.81c5.27-1.5,6.1-4.24,5.91-7.69l2.09.19c-.06.35-.29.5-.69.54-.12,3.34-1.25,5.98-7.17,7.27l-.13-.31Zm2.92-8.98c.06,1.36-.52,2.26-1.09,2.65-.48.35-1.17.4-1.4-.06-.17-.42.08-.79.48-1.02.81-.46,1.53-1.65,1.44-2.99l.33-.02c.1.31.15.59.21.86h12.41l.84-.86,1.53,1.48c-.13.13-.34.19-.75.21-.65.79-1.88,1.84-2.8,2.47l-.23-.17c.42-.65,1-1.71,1.36-2.55h-12.33Zm-2.3-6.08h7.58v-2.24l1.99.21c-.04.29-.23.48-.71.54v1.5h5.33l.94-1.19s1.06.84,1.73,1.46c-.06.19-.25.29-.52.29h-7.48v2.36h4.12l.9-1.17s1.05.82,1.69,1.42c-.06.21-.21.31-.48.31h-13.37l-.15-.56h6v-2.36h-7.4l-.17-.56Zm16.69,13.58c.42.15.52.31.52.56,0,.56-.59.79-3.62.79h-2.11c-1.53,0-1.84-.31-1.84-1.27v-6.31l1.8.21c-.04.23-.21.4-.58.46v5.37c0,.31.1.38.81.38h1.96c.88,0,1.55,0,1.8-.02.23-.02.31-.08.4-.25.13-.31.36-1.3.58-2.38h.25l.04,2.46Z"/><path class="cls-1" d="m939.18,60.99v10.59c0,.19-.42.5-.98.5h-.23v-16.94l1.3.61h3.72l.63-.69,1.44,1.09c-.12.13-.36.29-.71.35v4.91c-.02.13-.61.4-1.02.4h-.17v-.82h-3.99Zm0-4.66v1.73h3.99v-1.73h-3.99Zm3.99,4.1v-1.8h-3.99v1.8h3.99Zm4.89,6.33v4.2c0,.08-.38.33-.96.33h-.19v-4.53h-2.59c-.21,1.67-.96,3.43-3.53,4.64l-.21-.25c1.84-1.3,2.44-2.86,2.63-4.39h-2.55l-.15-.56h2.74c.02-.25.02-.48.02-.73v-1.99h-2.21l-.15-.56h7.44l.83-1.02s.88.73,1.46,1.29c-.04.19-.21.29-.48.29h-2.09v2.72h.67l.81-1.02s.88.73,1.46,1.29c-.04.19-.23.29-.5.29h-2.44Zm-1.15-.56v-2.72h-2.51v1.99c0,.23,0,.48-.02.73h2.53Zm7.29-10.03c-.13.15-.46.33-.84.4v13.71c0,1-.21,1.61-1.8,1.78-.06-.38-.13-.75-.34-.9-.23-.21-.63-.36-1.32-.48v-.29s1.52.12,1.84.12c.31,0,.4-.12.4-.38v-9.15h-4.16v.36c0,.13-.52.4-1.04.4h-.17v-6.56l1.29.56h3.89l.63-.79,1.63,1.21Zm-6.23.15v1.73h4.16v-1.73h-4.16Zm4.16,4.1v-1.8h-4.16v1.8h4.16Z"/><path class="cls-1" d="m968.6,59.63c-.15.17-.33.23-.75.29-.29,2.47-.73,4.85-1.76,6.92,2.88,2.17,2.3,4.43,1.04,3.66-.25-.86-.86-1.78-1.63-2.63-1.02,1.59-2.49,2.97-4.64,4.01l-.19-.27c1.92-1.19,3.22-2.7,4.12-4.47-.67-.63-1.4-1.23-2.09-1.69-.13.48-.27.92-.4,1.32-.27.17-.77.19-1.29.02.59-1.59,1.42-4.41,2.09-7.08h-2.15l-.17-.58h2.46c.44-1.78.81-3.45.98-4.56l1.84.44c-.08.25-.27.4-.75.4-.17.92-.5,2.24-.88,3.72h2.03l.75-.75,1.4,1.23Zm-4.32.1c-.46,1.78-1,3.74-1.48,5.37.94.36,1.73.75,2.4,1.15.81-1.96,1.19-4.16,1.4-6.52h-2.32Zm10.49-2.03c5.02,2.78,3.99,6.2,2.55,5.04-.1-.52-.31-1.07-.58-1.65-1.9.35-4.35.79-7.6,1.25-.13.23-.31.36-.5.4l-.52-1.63c.54,0,1.3-.04,2.22-.08.71-2.01,1.42-4.58,1.8-6.5l2.11.56c-.08.23-.31.4-.73.4-.58,1.57-1.55,3.72-2.65,5.52,1.59-.1,3.57-.21,5.64-.33-.58-1.05-1.32-2.11-1.99-2.86l.23-.13Zm1.96,5.91l1.4,1.09c-.13.15-.35.25-.75.31v6.58c0,.1-.48.38-1.02.38h-.21v-1.5h-5.47v1.21c0,.1-.38.38-1,.38h-.19v-8.31l1.42.59h5.18l.63-.75Zm-.58,6.29v-4.97h-5.47v4.97h5.47Z"/><path class="cls-1" d="m1002.53,62.43c-.15.13-.36.19-.79.21-1.04,1.25-3.07,2.93-4.6,3.93l-.21-.15c.98-1.04,2.32-2.74,3.11-4.03h-5.79v7.81c0,1.02-.29,1.73-2.36,1.92-.04-.4-.21-.73-.52-.92-.36-.23-1.02-.4-2.15-.54v-.29s2.69.19,3.2.19c.4,0,.54-.13.54-.42v-7.75h-8.02l-.15-.58h9.95c-.61-.98-2.32-2.53-4.76-3.61l.11-.31c1.61.31,2.8.75,3.66,1.19,1.21-.71,2.78-1.75,3.82-2.61h-10.43l-.17-.56h10.99l.94-.84,1.5,1.44c-.15.13-.4.17-.86.19-1.27.86-3.61,1.92-5.39,2.61,1.67,1.02,1.8,2.13,1.36,2.49h4.62l.88-.84,1.52,1.46Z"/><path class="cls-1" d="m1018.21,70.24c.98.15,2.11.21,3.41.21,1.15,0,3.66,0,4.89-.04v.27c-.48.1-.73.5-.77,1.02h-4.2c-4.45,0-6.89-.82-8.44-4.62-.82,1.94-2.15,3.78-4.26,5.03l-.19-.23c2.59-2.09,3.72-5.54,4.1-8.57l1.98.4c-.06.27-.29.42-.71.44-.17.81-.4,1.63-.71,2.46.84,1.86,2,2.84,3.62,3.36v-8.73h-5.85l-.15-.56h10.7l.92-1.05s1.02.75,1.69,1.3c-.06.21-.25.31-.52.31h-5.52v3.72h3.45l.9-1.13s1.02.79,1.69,1.38c-.06.21-.27.31-.54.31h-5.5v4.74Zm-6.62-12.43c.02,1.34-.56,2.22-1.13,2.61-.5.36-1.21.4-1.44-.06-.15-.38.1-.79.48-1.04.86-.46,1.61-1.71,1.5-3.11l.34-.02c.12.38.17.73.21,1.05h5.39v-2.8l1.98.19c-.04.27-.23.46-.69.54v2.07h5.85l.81-.82,1.5,1.42c-.13.13-.36.17-.73.21-.54.63-1.52,1.57-2.24,2.11l-.25-.15c.31-.58.69-1.48.94-2.21h-12.51Z"/><path class="cls-1" d="m1033.21,72.21l-.54-.54,17.26-17.26.54.54-17.26,17.26Z"/><path class="cls-1" d="m1067.06,54.95c-.04.23-.31.33-.75.36,1.75,2.32,4.97,4.18,8.38,5.5l-.04.27c-.58.13-1.02.58-1.17,1.04-3.13-1.53-6.1-3.91-7.54-6.6-1.86,2.7-5.72,5.83-9.32,7.44l-.15-.27c3.26-1.78,7.25-5.62,8.32-8.3l2.26.56Zm3.93,8.13l1.67,1.23c-.12.17-.42.33-.82.4v4.2c0,.94-.23,1.59-2.13,1.76-.06-.4-.15-.73-.44-.94-.29-.19-.81-.36-1.71-.5v-.29s2.07.15,2.51.15c.36,0,.44-.1.44-.4v-4.26h-5.18v7.25c-.02.08-.44.36-1.09.36h-.21v-7.61h-5.22l-.17-.56h11.68l.67-.81Zm-2.9-3.36s1,.73,1.63,1.29c-.06.21-.23.31-.5.31h-7.6l-.13-.56h5.74l.86-1.04Z"/><path class="cls-1" d="m1088.36,59.51s.98.79,1.59,1.36c-.06.21-.23.31-.5.31h-3.38v1.55c4.45,1.76,3.61,4.26,2.36,3.43-.36-.94-1.46-2.21-2.36-3.07v8.57c0,.1-.44.4-1.02.4h-.21v-8.55c-.96,2.09-2.32,3.93-4.07,5.45l-.27-.27c1.8-2.01,3.07-4.78,3.8-7.52h-3.3l-.15-.56h3.99v-3.66c-1.25.27-2.59.5-3.84.65l-.1-.33c2.53-.61,5.66-1.8,7.25-2.67l1.53,1.29c-.17.17-.52.17-.96.02-.75.25-1.67.5-2.67.75v3.95h1.42l.86-1.11Zm10.03-1.8c-.13.17-.46.35-.88.42v12.81c-.04.1-.65.35-1.05.35h-.19v-1.59h-4.78v1.44c0,.15-.44.46-1.02.46h-.21v-14.94l1.32.63h4.47l.71-.84,1.63,1.27Zm-2.13,11.43v-11.3h-4.78v11.3h4.78Z"/><path class="cls-1" d="m1106.69,62.49c.71-.21,1.38-.33,2.17-.33,2.65,0,4.45,1.52,4.45,4.22s-1.88,4.49-4.78,4.49c-2.03,0-3.4-.92-3.84-2.76.15-.42.48-.63.9-.63.54,0,.77.27,1.02,1.17l.38,1.25c.48.13.92.21,1.42.21,2.17,0,3.36-1.38,3.36-3.53s-1.32-3.41-3.36-3.41c-.71,0-1.42.1-2.09.33l-.54-.11.44-6.27h6.73v1.44h-5.98l-.29,3.95Z"/><path class="cls-1" d="m1135.64,65.25s1.11.86,1.78,1.48c-.04.21-.21.31-.5.31h-6.85v4.62c0,.1-.42.42-1.09.42h-.21v-5.04h-8.73l-.15-.54h3.34v-5.68l1.53.65h4.01v-3.57h-4.39c-1.29,1.86-2.8,3.36-4.39,4.41l-.21-.21c1.8-1.76,3.74-4.72,4.91-7.9l1.96.81c-.1.21-.33.38-.75.33-.35.69-.73,1.36-1.13,1.99h9.17l.98-1.19s1.07.81,1.78,1.46c-.06.21-.25.31-.52.31h-6.1v3.57h3.43l.88-1.13s1.06.81,1.69,1.4c-.04.19-.25.29-.5.29h-5.5v4.47h4.57l1-1.25Zm-6.87,1.25v-4.47h-4.24v4.47h4.24Z"/><path class="cls-1" d="m1152.19,69.99v.61h-7.58v-.61l3.03-.36c.02-1.15.04-2.28.04-3.41v-7.86l-2.88.33v-.69l4.14-1.07.29.23-.08,2.97v6.1c0,1.13.02,2.26.04,3.41l2.99.36Z"/><path class="cls-1" d="m1167.6,63.87c0,5.12-2.07,7-4.24,7s-4.28-1.88-4.28-7,2.09-7.06,4.28-7.06,4.24,1.92,4.24,7.06Zm-4.24,6.23c1.34,0,2.65-1.38,2.65-6.23s-1.3-6.27-2.65-6.27-2.67,1.34-2.67,6.27,1.29,6.23,2.67,6.23Z"/><path class="cls-1" d="m1188.98,56.45c-.13.15-.44.33-.82.38v13.35c0,1.04-.23,1.71-2.19,1.9-.08-.4-.21-.75-.5-.94-.33-.21-.9-.38-1.9-.52v-.31s2.32.17,2.8.17c.42,0,.5-.13.5-.46v-4.76h-7.75c-.42,2.61-1.59,5.04-4.66,6.83l-.25-.25c3.3-2.59,3.89-5.95,3.89-9.84v-6.62l1.5.61h7.1l.65-.81,1.63,1.25Zm-2.11,8.29v-3.86h-7.52v1.11c0,.92-.04,1.84-.15,2.74h7.67Zm-7.52-8.15v3.72h7.52v-3.72h-7.52Z"/></g></g></g></svg>