<?xml version="1.0" encoding="UTF-8"?><svg id="_レイヤー_2" xmlns="http://www.w3.org/2000/svg" viewBox="0 0 125.05 137.82"><defs><style>.cls-1{fill:#fff;stroke:#000;stroke-miterlimit:10;stroke-width:4.12px;}</style></defs><g id="_レイヤー_4"><path class="cls-1" d="m106.87,119.63v8.06c0,4.45-3.61,8.06-8.06,8.06H18.19c-8.91,0-16.13-7.22-16.13-16.13V18.18C2.06,9.28,9.28,2.06,18.19,2.06h80.62c4.45,0,8.06,3.61,8.06,8.06v109.51Z"/><path class="cls-1" d="m122.99,18.18v109.51c0,4.45-3.61,8.06-8.06,8.06h-2.18c1.38-2.38,2.18-5.13,2.18-8.06V10.12c0-2.94-.81-5.68-2.18-8.06h2.18c4.45,0,8.06,3.61,8.06,8.06v8.06Z"/><path class="cls-1" d="m79.39,79.52s-3.04-3.65-6.4-1.13c-2.51,1.87-7.01,6.04-8.09,7.05,0,0-7.53-4.01-11.99-7.68-6.6-5.43-11.02-12.13-13.33-15.94l-1.73-3.26c.6-.65,5.21-5.59,7.21-8.27,2.51-3.36-1.13-6.4-1.13-6.4,0,0-10.25-10.25-12.58-12.28-2.33-2.04-5.02-.91-5.02-.91-4.91,3.17-9.99,5.93-10.29,19.19-.01,12.41,9.41,25.21,19.6,35.12,10.2,11.19,24.22,22.41,37.76,22.39,13.25-.3,16.01-5.38,19.18-10.29,0,0,1.13-2.69-.9-5.02-2.03-2.34-12.28-12.57-12.28-12.57h0Z"/></g></svg>