<?xml version="1.0" encoding="UTF-8"?><svg id="_レイヤー_2" xmlns="http://www.w3.org/2000/svg" viewBox="0 0 265.76 122.73"><defs><style>.cls-1{fill:#066d86;}</style></defs><g id="_レイヤー_4"><path class="cls-1" d="m265.76,31.43c0-.08,0-.16-.02-.24,0-.05-.02-.1-.04-.15-.03-.08-.07-.15-.11-.23-.02-.04-.04-.08-.07-.11-.08-.1-.18-.19-.3-.26L211.85.13c-.15-.09-.32-.12-.48-.13-.04,0-.08,0-.12,0-.15,0-.29.04-.42.11-.02,0-.04,0-.05.01l-36.38,20.67-20.24-11.5c-.15-.09-.32-.12-.48-.13-.04,0-.08,0-.12,0-.15,0-.29.04-.42.11-.02,0-.04,0-.06.01l-26.99,15.33-13.01-7.39c-.15-.09-.32-.12-.48-.13-.05,0-.09,0-.13,0-.14,0-.28.04-.41.11-.02,0-.04,0-.06.02l-23.39,13.28c-.53.3-.71.97-.41,1.49.2.36.57.55.95.55.18,0,.37-.05.54-.14l22.56-12.81c.59.92,1.25,2.66-.49,4.44-.31.31-2.99,3.07-2.02,5.61.68,1.76,2.77,2.72,6.4,2.91.02,0,.04,0,.06,0,0,0,.02,0,.03,0,0,0,.02,0,.03,0,.18,0,.37-.05.54-.14l36.59-20.78c1.07,1.42,2.94,4.87-.53,8.44-.46.46-4.42,4.58-3.11,8.24.84,2.34,3.57,3.75,8.12,4.21.04,0,.07,0,.11,0,.19,0,.38-.05.54-.14l16.49-9.37s.03-.03.04-.04c.06-.04.11-.08.16-.13L211.07,2.48c1.45,1.83,4.94,7.36-.53,12.98-.26.26-6.41,6.47-4.18,11.55,1.64,3.73,7.03,5.56,16.4,5.56,1.19,0,2.45-.03,3.78-.09h38.14c.07,0,.13-.02.2-.03.04,0,.08,0,.11-.02.26-.08.48-.25.62-.48,0-.01.02-.02.02-.03.02-.03.02-.06.03-.09.03-.06.06-.11.08-.17,0-.03,0-.06,0-.09,0-.05.01-.1.01-.16Z"/><path class="cls-1" d="m134.38,120.73l-.38-.19c-.15-.18-.21-.4-.19-.68l.26-.47c.4-.3.8-.59,1.2-.87.4-.28.77-.6,1.12-.98l.83-.87c.98-.93,1.9-1.91,2.77-2.94.87-1.03,1.68-2.1,2.43-3.21v-.11l-.26-.04h-1.51l-.04-.04h-2.6l-.04.04h-1.7c-.54.05-1.02-.04-1.45-.26-.15-.18-.21-.41-.19-.7l.19-.38c.4-.2.87-.26,1.41-.19l.04.04h1.62l.04-.04h2.79l.04.04h1.51c.35.03.71.04,1.07.04s.69.09.96.26c.15.2.21.45.19.74-.3.55-.64,1.09-1,1.6-.36.52-.72,1.04-1.08,1.57h-.08l-.45.72-.57.6c.5.28.99.57,1.47.89.48.31.96.64,1.43.96.48.4.98.78,1.5,1.13.52.35,1.03.69,1.54,1.02l.15.15.11.11.11.11v.08l.26.15c.18.2.25.45.23.74l-.19.38c-.2.15-.44.21-.72.19l-.53-.3-.19-.19-.11-.11c-.99-.74-1.98-1.47-2.96-2.19s-2.01-1.36-3.09-1.94l-.49.64-.45.45-1.02.98-.19.19-.64.68-.19.19-.11.11-.23.11v.08l-.3.26-1.26.96c-.3.3-.67.47-1.09.49Z"/><path class="cls-1" d="m159.7,121.41c-.55-.08-1.07-.23-1.55-.45-.15-.18-.24-.39-.26-.64.03-.2.1-.38.23-.53.18-.15.4-.21.68-.19.4.23.84.34,1.32.34l.94-.15c.39-1.14.62-2.32.7-3.53s.13-2.43.15-3.66l-.08-.68-2.43-.08h-3.28c-.2,1.46-.44,2.9-.72,4.34-.28,1.43-.57,2.86-.87,4.28-.18.15-.4.21-.68.19l-.38-.19c-.15-.2-.23-.44-.23-.72.23-1.32.47-2.62.74-3.9s.48-2.58.66-3.89h-.53l-3.75.3-.38-.19c-.15-.18-.21-.4-.19-.68l.19-.38c.78-.2,1.58-.33,2.4-.38.82-.05,1.64-.11,2.44-.19.03-.64.06-1.28.09-1.92s.13-1.26.28-1.87c.18-.15.4-.21.68-.19l.38.19c.2.53.26,1.12.19,1.77-.05.3-.09.62-.11.95-.03.33-.04.66-.04.99h3.09c.63.05,1.27.07,1.91.06.65-.01,1.25.09,1.8.32.15.5.23,1.04.25,1.6.01.57.02,1.13.02,1.68-.05,1.18-.14,2.35-.26,3.51-.13,1.16-.45,2.27-.98,3.34-.35.2-.74.33-1.16.4-.42.06-.85.11-1.27.13Z"/><path class="cls-1" d="m174.43,121.86l-.38-.19c-.23-1.28-.36-2.59-.42-3.91-.05-1.33-.1-2.66-.15-3.99l-.15-.04c-.91.5-1.79,1.05-2.64,1.64-.86.59-1.78,1.04-2.77,1.34l-.38-.19c-.15-.2-.21-.44-.19-.72l.19-.38c1.4-.78,2.78-1.58,4.15-2.41,1.37-.83,2.61-1.82,3.72-2.98l.04-.08c.38-.39.7-.81.98-1.26.28-.45.57-.91.87-1.36.2-.2.45-.28.75-.23l.38.19c.16.18.23.4.21.68l-.21.38h-.08c-.23.38-.45.75-.68,1.12-.23.37-.47.73-.72,1.08l-.34.38-.19.19-1.58,1.4v.41c.1,1.38.18,2.77.25,4.17.06,1.4.13,2.79.21,4.19l-.19.38c-.18.15-.4.21-.68.19Z"/><path class="cls-1" d="m186.36,121.67c-.2-.03-.38-.1-.53-.23-.15-.2-.21-.44-.19-.72l.19-.38c.45-.25.92-.47,1.4-.64.48-.18.92-.45,1.32-.81l.04-.08c.33-.25.64-.53.94-.83.3-.3.54-.63.72-.98-.55-.38-1.1-.78-1.64-1.21-.54-.43-1.1-.8-1.68-1.13-.15-.18-.21-.4-.19-.68l.19-.38c.2-.15.44-.21.72-.19.33.18.65.36.98.57.33.2.64.41.94.64.23.25.48.47.75.66.28.19.57.36.87.51.3-.73.56-1.47.77-2.23.21-.75.37-1.53.47-2.34-1.23-.08-2.44-.19-3.62-.36-1.18-.16-2.38-.32-3.58-.47-.13.55-.22,1.12-.28,1.7-.06.58-.2,1.13-.4,1.66-.19.15-.42.21-.7.19l-.38-.19c-.13-.2-.2-.41-.23-.64.18-1.06.36-2.12.57-3.18.2-1.06.4-2.12.6-3.18.19-.15.42-.21.7-.19l.38.19c.18.23.24.5.19.83l-.15,1.32c1.36.2,2.72.39,4.09.58,1.37.18,2.73.36,4.09.54v.08h.08c.2.33.26.7.19,1.13-.23,1.18-.5,2.36-.83,3.55-.33,1.18-.91,2.26-1.74,3.24l-.49.64-.38.41-.11.11-.34.32-.34.3-.19.19c-.48.4-.99.72-1.55.96-.55.24-1.11.47-1.66.7Z"/><path class="cls-1" d="m205.26,121.86l-.38-.19c-.15-.2-.21-.44-.19-.72l.19-.38c.53-.35,1.06-.69,1.6-1.03.54-.33,1.06-.71,1.57-1.14.8-.85,1.51-1.79,2.1-2.81.6-1.02.9-2.13.9-3.34l-.04-.38-1.87-.08h-1.62l-.04-.04h-2.07l-1.43-.15h-2.72l-.92-.04v.38l.26,3.32-.19.38c-.18.15-.4.21-.68.19l-.38-.19c-.23-.8-.36-1.64-.4-2.51s-.09-1.73-.17-2.58l.19-.38c.18-.15.4-.21.68-.19.5.1,1.04.15,1.6.15h2.79l.72.08v-3.72l.19-.38c.18-.15.4-.21.68-.19l.38.19c.13.18.2.36.23.57v3.6l1.28.04h1.77c.48.05.98.07,1.52.06.53-.01,1.02.08,1.44.28.18.35.26.74.25,1.17-.01.43,0,.86.02,1.28-.1.88-.34,1.72-.72,2.53-.38.8-.85,1.57-1.41,2.3h-.08l-.11.23-.26.34-.42.49-.45.51-.57.49c-.53.33-1.06.67-1.58,1.02-.53.35-1.08.63-1.66.83Z"/><path class="cls-1" d="m220.22,111.96c-.6-.35-1.21-.71-1.81-1.08-.6-.36-1.21-.71-1.83-1.04-.15-.19-.21-.42-.19-.7l.19-.38c.2-.15.44-.21.72-.19.42.2.81.41,1.19.64.38.23.77.45,1.17.66v.08c.38.2.74.43,1.09.68.18.2.25.44.23.72l-.19.38c-.18.13-.36.2-.57.23Zm-1.77,9.41c-.55-.05-1.08-.18-1.57-.38-.15-.18-.21-.4-.19-.68l.19-.38c.2-.18.46-.24.77-.19l1.13.15c1.63-.15,3.19-.62,4.68-1.41,1.48-.79,2.84-1.74,4.06-2.88.33-.48.55-.99.66-1.55.11-.55.25-1.11.4-1.66.18-.15.4-.21.68-.19l.38.19c.2.38.26.82.19,1.32-.13.5-.27,1-.43,1.49-.16.49-.41.95-.74,1.38l-.3.3-.79.57v.08l-.23.11v.08l-.4.3c-1.23.97-2.57,1.75-4,2.34-1.43.59-2.93.92-4.49,1Z"/><path class="cls-1" d="m232.72,121.75c-.2-.03-.38-.1-.53-.23-.15-.18-.21-.4-.19-.68l.19-.38.38-.19h1.85c.57-.08,1.13-.11,1.68-.11h2.11l1.17.04v-2.32l-.04-.04v-2.68l-.11-2.3h-.15l-2.11.15h-2.7c-.3-.03-.57-.11-.79-.26-.15-.18-.21-.4-.19-.68l.19-.38c.2-.18.45-.24.75-.19l.04.04h2.58c.38-.08.77-.11,1.17-.11s.8-.01,1.21-.04l.04-.49v-2.02l.04-1.13-.04-.6.19-.38c.18-.15.4-.21.68-.19l.38.19c.18.3.26.64.26,1.02v1.13l-.04.04v2.06l-.04.3h2.98c.5.03,1.01.06,1.52.09s.99.13,1.44.28c.15.2.21.44.19.72l-.19.38c-.2.15-.44.23-.72.23-.38-.08-.77-.13-1.18-.15-.41-.03-.81-.05-1.22-.08h-2.83v.98l.11,1.24v2.68l.04.04v2.43h.91l.04-.04h5.71c.2.03.38.1.53.23.15.18.21.4.19.68l-.19.38c-.2.15-.43.23-.68.23l-.04-.04h-5.45l-1.21.08h-2.57l-.04-.04h-1.89l-1.64.11h-1.81Z"/><path class="cls-1" d="m251.03,111.28c-.2-.03-.38-.1-.53-.23-.15-.18-.21-.4-.19-.68.08-.59.13-1.19.15-1.79v-2.15c.03-.2.1-.38.23-.53.18-.15.4-.21.68-.19l.38.19c.2.38.26.82.19,1.32h1.11l.91-.11h3.32c.38.1.78.14,1.21.11l1.4-.04c.4.08.82.11,1.26.09.44-.01.86.06,1.24.21.15.18.21.4.19.68l-.19.38c-.44.23-.94.3-1.49.23-.38-.03-.76-.06-1.15-.09-.39-.04-.79-.04-1.19-.02l-.83.04-.57-.11h-3.21c-.33.05-.66.09-1,.11-.34.03-.69.03-1.06,0-.03.4-.04.81-.04,1.24s-.09.8-.26,1.12c-.18.13-.36.2-.57.23Zm13.09,11.45c-.2-.03-.38-.1-.53-.23l-.23-.26-.34-.34c-.45-.75-.86-1.54-1.22-2.37-.36-.82-.56-1.7-.61-2.63v-2l.11-.91h-.11c-.43,0-.84.04-1.24.11-.4.08-.82.1-1.24.08l-.68-.08h-3.77l-.98.08-.04-.04h-1.6c-.2-.03-.38-.1-.53-.23-.15-.18-.21-.4-.19-.68l.19-.38.38-.19h1.75l.49.04.53-.08h3.85l1.4.08c.48-.08.96-.13,1.45-.15.49-.03.98-.08,1.47-.15l.38.19c.18.23.24.5.19.83-.15.5-.25,1.03-.3,1.58v1.77c.05.75.21,1.47.49,2.14.28.67.6,1.32.98,1.95l.11.04c0-.18.06-.34.19-.49.18-.15.4-.21.68-.19l.42.23c.18.23.24.49.19.79-.18.38-.39.73-.64,1.06-.28.25-.6.39-.98.41Zm-10.54-1.32c-.2-.03-.38-.1-.53-.23-.15-.18-.21-.4-.19-.68l.19-.38c.33-.15.65-.3.96-.43.31-.14.62-.31.92-.53v-.08c-.33-.15-.63-.36-.91-.64-.28-.28-.55-.54-.83-.79-.15-.18-.21-.4-.19-.68l.19-.38c.18-.15.4-.21.68-.19.38.23.73.51,1.06.85.33.34.7.57,1.13.7.2-.3.38-.63.55-.98.16-.35.4-.64.7-.87l.49-.04.38.19c.15.18.21.4.19.68l-.19.38h-.08l-.87,1.7.87.51c.18.15.38.29.6.41.15.18.21.4.19.68l-.19.38c-.2.15-.44.21-.72.19-.33-.13-.63-.31-.92-.55-.29-.24-.6-.42-.92-.55-.38.33-.78.6-1.21.83s-.88.39-1.36.49Zm-.04-9.86l-.38-.19c-.18-.2-.25-.44-.23-.72l.19-.38c.33-.18.68-.26,1.06-.26s.75-.03,1.13-.08h2.45l.04-.04h1.77c.38-.03.7.05.98.23.15.18.21.4.19.68l-.19.38c-.3.2-.65.28-1.06.23l-.04-.04h-1.66l-.04.04h-2.45l-1.77.15Z"/><path class="cls-1" d="m44.17,40.12c.46.51.69,1.03.69,1.56s-.23,1.09-.69,1.6c-.51.46-1.1.69-1.78.69H13.71c-2.13.07-4.12,1.04-5.98,2.9-1.89,1.89-2.83,4.22-2.83,7s.94,5.11,2.83,7c1.98,1.93,4.28,2.9,6.89,2.9h15.63c1.98,0,3.89.39,5.73,1.16,1.79.77,3.31,1.8,4.57,3.08,1.35,1.31,2.42,2.85,3.19,4.64.75,1.79,1.12,3.64,1.12,5.55s-.38,3.76-1.12,5.55c-.77,1.79-1.84,3.34-3.19,4.64-1.26,1.28-2.78,2.31-4.57,3.08-1.81.77-3.42,1.16-4.82,1.16H2.43c-.7,0-1.28-.23-1.74-.69-.46-.46-.69-.98-.69-1.56s.23-1.14.69-1.6c.51-.46,1.09-.69,1.74-.69h28.72c2.15-.07,4.13-1.04,5.95-2.9,1.91-1.89,2.86-4.22,2.86-7s-.96-5.11-2.86-7c-1.91-1.93-4.2-2.9-6.85-2.9h-15.63c-2.01,0-3.92-.39-5.73-1.16-1.79-.75-3.32-1.78-4.61-3.08-1.38-1.33-2.43-2.88-3.16-4.64-.75-1.72-1.12-3.57-1.12-5.55,0-.99.09-1.95.27-2.88.18-.93.47-1.82.85-2.67.73-1.74,1.78-3.3,3.16-4.68,2.76-2.71,5.9-4.1,9.43-4.17l28.69-.04c.73,0,1.32.23,1.78.69Z"/><path class="cls-1" d="m55.02,92.63c-.7,0-1.28-.23-1.74-.69-.46-.46-.69-.98-.69-1.56v-48.34c0-.58.23-1.1.69-1.56.46-.46,1.04-.69,1.74-.69s1.32.23,1.78.69c.46.46.69.98.69,1.56v41.63l7.98-9.72,12.37-15.09c.48-.51,1.05-.8,1.7-.87h.29c.56,0,1.08.18,1.56.54.51.46.77.96.8,1.49v.25c0,.48-.16.92-.47,1.31l-11.24,13.71,11.24,13.71c.31.39.47.82.47,1.31v.22c0,.1-.01.23-.04.4-.05.36-.3.74-.76,1.12-.48.36-1,.54-1.56.54h-.25c-.12,0-.28-.01-.47-.04-.39-.02-.81-.3-1.27-.83l-10.44-12.69-10.34,12.58c-.46.68-1.14,1.02-2.03,1.02Z"/><path class="cls-1" d="m118.16,58.61c.48.53.73,1.06.73,1.6v32.75c0,2.42-.45,4.64-1.34,6.67-.46,1.06-1,2.05-1.63,2.96-.63.91-1.33,1.76-2.1,2.56-1.57,1.6-3.43,2.85-5.59,3.77-2.13.92-4.41,1.38-6.85,1.38h-9.68c-.7,0-1.29-.24-1.78-.73-.44-.44-.65-.94-.65-1.52s.22-1.12.65-1.56c.53-.48,1.12-.73,1.78-.73h9.68c1.69,0,3.32-.33,4.9-.98,1.5-.65,2.84-1.57,4.03-2.76,1.11-1.11,2.02-2.48,2.72-4.1.65-1.52.98-3.18.98-4.97v-.33h-7.22c-2.42,0-4.69-.46-6.82-1.38-2.15-.89-4.03-2.15-5.62-3.77-.8-.8-1.51-1.65-2.14-2.56-.63-.91-1.16-1.89-1.6-2.96-.89-2.13-1.34-6.66-1.34-13.6v-8.16c0-.58.22-1.09.65-1.52.48-.48,1.08-.73,1.78-.73s1.33.24,1.81.73c.44.44.65.94.65,1.52v7.36c0,6.94.33,11.17.98,12.69.7,1.62,1.61,2.99,2.72,4.1,1.18,1.18,2.54,2.1,4.06,2.76,1.47.65,3.09.98,4.86.98h7.22v-27.89c0-.58.22-1.09.65-1.52.48-.48,1.08-.73,1.78-.73s1.31.22,1.74.65Z"/><path class="cls-1" d="m126.13,61.8c-.46-.46-.69-.98-.69-1.56s.23-1.14.69-1.6c.51-.46,1.09-.69,1.74-.69h9.94v-15.38c0-.6.23-1.14.69-1.6.51-.46,1.09-.69,1.74-.69s1.27.23,1.78.69c.46.51.69,1.04.69,1.6v15.38h9.9c.68,0,1.27.23,1.78.69.46.51.69,1.04.69,1.6s-.23,1.05-.69,1.56c-.46.46-1.05.69-1.78.69h-9.9v15.85c0,2.78.97,5.13,2.9,7.04,1.84,1.81,4.17,2.72,7,2.72.68,0,1.27.23,1.78.69.46.51.69,1.04.69,1.6s-.23,1.05-.69,1.56c-.46.46-1.05.69-1.78.69-2.15,0-4.1-.38-5.84-1.12-1.79-.73-3.36-1.74-4.71-3.05-2.83-2.78-4.24-6.15-4.24-10.12v-15.85h-9.94c-.7,0-1.28-.23-1.74-.69Z"/><path class="cls-1" d="m176.14,57.96c2.08,0,4.06.48,5.95,1.45,1.81.94,3.37,2.21,4.68,3.81,1.33,1.62,2.36,3.46,3.08,5.51.75,2.03,1.12,4.22,1.12,6.56s-.38,4.56-1.12,6.56c-.75,2.1-1.78,3.94-3.08,5.51-1.33,1.64-2.89,2.93-4.68,3.84-1.86.94-3.84,1.41-5.95,1.41s-4.1-.47-5.91-1.41c-1.81-.94-3.39-2.22-4.71-3.84-1.33-1.64-2.36-3.48-3.08-5.51-.73-2.03-1.09-4.22-1.09-6.56s.36-4.48,1.09-6.56c.36-1.04.8-2.01,1.32-2.92.52-.91,1.11-1.77,1.76-2.59,1.28-1.57,2.85-2.84,4.71-3.81,1.86-.97,3.83-1.45,5.91-1.45Zm6.89,8.12c-2.01-2.39-4.3-3.59-6.89-3.59s-4.9,1.2-6.85,3.59c-2.03,2.51-3.05,5.58-3.05,9.21s1.02,6.76,3.05,9.25c1.96,2.37,4.24,3.55,6.85,3.55,1.33,0,2.56-.3,3.7-.91.58-.31,1.14-.69,1.67-1.14.53-.45,1.04-.95,1.52-1.51,2.03-2.49,3.05-5.57,3.05-9.25s-1.02-6.7-3.05-9.21Z"/><path class="cls-1" d="m198.74,58.65c.46-.46,1.04-.69,1.74-.69s1.32.23,1.78.69c.46.46.69.99.69,1.6v23.43l7.98-9.76c.44-.51,1-.8,1.7-.87h.22c.6,0,1.15.19,1.63.58l.33.33,7.98,9.72v-23.43c0-.6.23-1.14.69-1.6.46-.46,1.04-.69,1.74-.69s1.32.23,1.78.69c.46.46.69.99.69,1.6v30.86h-.04c0,.17-.27.48-.8.94-.48.39-1.03.58-1.63.58h-.24c-.11,0-.26-.01-.45-.04-.39-.02-.8-.31-1.23-.87l-10.44-12.69-10.3,12.58c-.51.68-1.2,1.02-2.07,1.02-.7,0-1.28-.23-1.74-.69-.46-.46-.69-.98-.69-1.56v-30.14c0-.6.23-1.14.69-1.6Z"/><path class="cls-1" d="m240.34,91.94c-.46.46-1.05.69-1.78.69s-1.28-.23-1.74-.69c-.46-.46-.69-.98-.69-1.56v-30.14c0-.6.23-1.14.69-1.6.51-.46,1.09-.69,1.74-.69h12.37c2.08,0,4.01.4,5.8,1.2,1.79.75,3.35,1.79,4.68,3.12,1.43,1.43,2.49,2.99,3.19,4.68.77,1.81,1.16,3.7,1.16,5.66v17.77c0,.53-.23,1.05-.69,1.56-.46.46-1.05.69-1.78.69s-1.28-.23-1.74-.69c-.46-.46-.69-.98-.69-1.56v-17.77c0-2.83-.97-5.21-2.9-7.14-1.98-1.98-4.33-2.97-7.04-2.97h-9.9v27.89c0,.53-.23,1.05-.69,1.56Z"/></g></svg>