<?xml version="1.0" encoding="UTF-8"?><svg id="_レイヤー_2" xmlns="http://www.w3.org/2000/svg" xmlns:xlink="http://www.w3.org/1999/xlink" viewBox="0 0 364 189"><defs><style>.cls-1{fill:#fff;}.cls-2{filter:url(#drop-shadow-1);}.cls-2,.cls-3,.cls-4{fill:none;}.cls-4{clip-path:url(#clippath);}</style><clipPath id="clippath"><rect class="cls-3" width="364" height="189"/></clipPath><filter id="drop-shadow-1" filterUnits="userSpaceOnUse"><feOffset dx="0" dy="0"/><feGaussianBlur result="blur" stdDeviation="7.58"/><feFlood flood-color="#231815" flood-opacity=".6"/><feComposite in2="blur" operator="in"/><feComposite in="SourceGraphic"/></filter></defs><g id="_レイヤー_4"><g class="cls-4"><g class="cls-2"><path class="cls-1" d="m345.38,56c0-.1,0-.19-.02-.29-.01-.06-.02-.12-.04-.18-.03-.1-.08-.19-.14-.28-.03-.05-.05-.09-.09-.14-.1-.12-.22-.24-.37-.32l-64.73-36.76c-.19-.11-.39-.15-.59-.16-.05,0-.1,0-.15,0-.18.01-.35.05-.51.13-.02.01-.05,0-.07.02l-44.13,25.07-24.55-13.95c-.19-.11-.39-.15-.59-.16-.05,0-.1,0-.15,0-.18.01-.35.05-.51.13-.02.01-.05,0-.07.02l-32.74,18.6-15.78-8.96c-.19-.1-.38-.14-.58-.15-.06,0-.1,0-.16,0-.17.01-.34.05-.49.13-.02.01-.05,0-.07.02l-28.36,16.11c-.64.36-.86,1.17-.5,1.81.24.43.69.67,1.16.67.22,0,.45-.06.66-.17l27.36-15.54c.71,1.12,1.51,3.22-.59,5.39-.38.37-3.62,3.73-2.45,6.8.82,2.14,3.36,3.29,7.76,3.53.02,0,.05,0,.07,0,.01,0,.02,0,.03,0,.01,0,.02,0,.03,0,.22,0,.45-.06.66-.17l44.38-25.2c1.3,1.72,3.57,5.9-.64,10.24-.55.56-5.36,5.55-3.77,10,1.01,2.83,4.33,4.55,9.85,5.11.04,0,.09,0,.13,0,.23,0,.46-.06.66-.17l20-11.36s.03-.04.05-.05c.07-.05.14-.1.2-.16l43.52-24.72c1.76,2.21,5.99,8.92-.64,15.74-.32.32-7.78,7.85-5.07,14.01,1.99,4.53,8.53,6.75,19.9,6.75,1.45,0,2.98-.04,4.58-.11h46.26c.08,0,.16-.03.24-.04.05,0,.09,0,.14-.02.31-.09.58-.3.75-.58,0-.01.02-.02.03-.03.02-.03.02-.07.04-.11.03-.07.07-.13.09-.21,0-.04,0-.07,0-.11.01-.06.02-.12.02-.19Z"/><path class="cls-1" d="m186.04,164.31l-.46-.23c-.18-.21-.26-.49-.23-.82l.32-.57c.49-.37.97-.72,1.45-1.05.48-.34.93-.73,1.36-1.19l1.01-1.05c1.19-1.13,2.31-2.32,3.36-3.57,1.05-1.25,2.04-2.55,2.95-3.89v-.14l-.32-.05h-1.83l-.05-.05h-3.16l-.05.05h-2.06c-.66.06-1.24-.05-1.76-.32-.18-.21-.26-.5-.23-.85l.23-.46c.49-.24,1.06-.32,1.72-.23l.05.05h1.97l.05-.05h3.39l.05.05h1.83c.43.03.86.05,1.3.05s.83.11,1.17.32c.18.24.26.54.23.89-.37.67-.77,1.32-1.21,1.94-.44.63-.88,1.26-1.3,1.9h-.09l-.55.87-.69.73c.61.34,1.2.69,1.78,1.08.58.38,1.16.77,1.74,1.17.58.49,1.19.95,1.82,1.37.63.43,1.25.84,1.86,1.24l.18.18.14.14.14.14v.09l.32.18c.21.24.3.54.27.89l-.23.46c-.24.18-.53.26-.87.23l-.64-.37-.23-.23-.14-.14c-1.2-.9-2.4-1.78-3.59-2.65s-2.44-1.65-3.75-2.36l-.59.78-.55.55-1.24,1.19-.23.23-.78.82-.23.23-.14.14-.27.14v.09l-.37.32-1.53,1.17c-.37.37-.81.56-1.33.59Z"/><path class="cls-1" d="m216.75,165.13c-.67-.09-1.3-.27-1.88-.55-.18-.21-.29-.47-.32-.78.03-.24.12-.46.27-.64.21-.18.49-.26.82-.23.49.27,1.02.41,1.6.41l1.14-.18c.47-1.39.75-2.81.85-4.28.09-1.46.15-2.94.18-4.44l-.09-.82-2.95-.09h-3.98c-.24,1.77-.53,3.52-.87,5.26-.34,1.74-.69,3.47-1.05,5.19-.21.18-.49.26-.82.23l-.46-.23c-.18-.24-.27-.53-.27-.87.27-1.6.57-3.18.89-4.74s.59-3.13.8-4.71h-.64l-4.55.37-.46-.23c-.18-.21-.26-.49-.23-.82l.23-.46c.95-.24,1.92-.4,2.92-.46,1-.06,1.99-.14,2.96-.23.03-.78.07-1.56.11-2.33s.16-1.53.34-2.26c.21-.18.49-.26.82-.23l.46.23c.24.64.32,1.36.23,2.15-.06.37-.11.75-.14,1.16-.03.4-.05.8-.05,1.2h3.75c.76.06,1.54.08,2.32.07.79-.02,1.51.11,2.18.39.18.61.28,1.26.3,1.94.02.69.02,1.37.02,2.04-.06,1.43-.17,2.85-.32,4.26-.15,1.4-.55,2.75-1.19,4.05-.43.24-.9.4-1.41.48-.51.08-1.03.13-1.54.16Z"/><path class="cls-1" d="m234.61,165.68l-.46-.23c-.27-1.56-.44-3.14-.5-4.75-.06-1.61-.12-3.22-.18-4.84l-.18-.05c-1.1.61-2.17,1.27-3.2,1.99-1.04.72-2.16,1.26-3.36,1.62l-.46-.23c-.18-.24-.26-.53-.23-.87l.23-.46c1.69-.95,3.37-1.92,5.03-2.93,1.66-1.01,3.16-2.21,4.51-3.61l.05-.09c.46-.47.85-.98,1.19-1.53.34-.55.69-1.1,1.05-1.65.24-.24.55-.34.92-.27l.46.23c.2.21.28.49.25.82l-.25.46h-.09c-.27.46-.55.91-.82,1.36-.27.45-.56.89-.87,1.32l-.41.46-.23.23-1.92,1.69v.5c.12,1.68.22,3.36.3,5.06s.16,3.39.25,5.08l-.23.46c-.21.18-.49.26-.82.23Z"/><path class="cls-1" d="m249.08,165.45c-.24-.03-.46-.12-.64-.27-.18-.24-.26-.53-.23-.87l.23-.46c.55-.3,1.11-.56,1.69-.78.58-.21,1.11-.54,1.6-.98l.05-.09c.4-.3.78-.64,1.14-1.01.37-.37.66-.76.87-1.19-.67-.46-1.33-.95-1.99-1.46-.66-.52-1.33-.98-2.04-1.37-.18-.21-.26-.49-.23-.82l.23-.46c.24-.18.53-.26.87-.23.4.21.79.44,1.19.69.4.24.78.5,1.14.78.27.31.58.57.92.8.34.23.69.43,1.05.62.37-.88.68-1.78.94-2.7.26-.92.45-1.86.57-2.84-1.49-.09-2.96-.24-4.39-.43-1.43-.2-2.88-.39-4.35-.57-.15.67-.27,1.36-.34,2.06-.08.7-.24,1.37-.48,2.01-.23.18-.51.26-.85.23l-.46-.23c-.15-.24-.24-.5-.27-.78.21-1.28.44-2.57.69-3.85.24-1.29.49-2.57.73-3.85.23-.18.51-.26.85-.23l.46.23c.21.27.29.61.23,1.01l-.18,1.6c1.65.24,3.3.48,4.96.7,1.66.22,3.32.44,4.96.65v.09h.09c.24.4.32.85.23,1.37-.27,1.43-.61,2.87-1.01,4.3-.4,1.43-1.1,2.75-2.1,3.93l-.59.78-.46.5-.14.14-.41.39-.41.37-.23.23c-.58.49-1.2.88-1.88,1.17-.67.29-1.34.57-2.01.85Z"/><path class="cls-1" d="m272,165.68l-.46-.23c-.18-.24-.26-.53-.23-.87l.23-.46c.64-.43,1.29-.84,1.94-1.25.66-.4,1.29-.87,1.9-1.38.98-1.04,1.83-2.17,2.55-3.41.72-1.24,1.09-2.59,1.09-4.05l-.05-.46-2.26-.09h-1.97l-.05-.05h-2.52l-1.74-.18h-3.29l-1.12-.05v.46l.32,4.03-.23.46c-.21.18-.49.26-.82.23l-.46-.23c-.27-.98-.43-1.99-.48-3.04s-.11-2.1-.21-3.13l.23-.46c.21-.18.49-.26.82-.23.61.12,1.26.18,1.94.18h3.39l.87.09v-4.51l.23-.46c.21-.18.49-.26.82-.23l.46.23c.15.21.24.44.27.69v4.37l1.56.05h2.15c.58.06,1.19.08,1.84.07.65-.02,1.23.1,1.75.34.21.43.31.9.3,1.42-.02.52,0,1.04.02,1.56-.12,1.07-.41,2.09-.87,3.07-.46.98-1.03,1.91-1.72,2.79h-.09l-.14.27-.32.41-.5.59-.55.62-.69.59c-.64.4-1.28.81-1.92,1.24-.64.43-1.31.76-2.01,1.01Z"/><path class="cls-1" d="m290.15,153.67c-.73-.43-1.46-.86-2.2-1.3-.73-.44-1.47-.86-2.22-1.26-.18-.23-.26-.51-.23-.85l.23-.46c.24-.18.53-.26.87-.23.5.24.98.5,1.44.78.46.27.93.54,1.42.8v.09c.46.24.9.52,1.33.82.21.24.3.53.27.87l-.23.46c-.21.15-.44.24-.69.27Zm-2.15,11.42c-.67-.06-1.3-.21-1.9-.46-.18-.21-.26-.49-.23-.82l.23-.46c.24-.21.56-.29.94-.23l1.37.18c1.98-.18,3.87-.75,5.67-1.7,1.8-.95,3.44-2.12,4.92-3.49.4-.58.66-1.2.8-1.88.14-.67.3-1.34.48-2.01.21-.18.49-.26.82-.23l.46.23c.24.46.32.99.23,1.6-.15.61-.33,1.21-.53,1.81-.2.59-.5,1.15-.89,1.67l-.37.37-.96.69v.09l-.27.14v.09l-.48.37c-1.49,1.17-3.11,2.12-4.85,2.84-1.74.72-3.55,1.12-5.44,1.21Z"/><path class="cls-1" d="m305.31,165.55c-.24-.03-.46-.12-.64-.27-.18-.21-.26-.49-.23-.82l.23-.46.46-.23h2.24c.69-.09,1.36-.14,2.04-.14h2.56l1.42.05v-2.81l-.05-.05v-3.25l-.14-2.79h-.18l-2.56.18h-3.27c-.37-.03-.69-.14-.96-.32-.18-.21-.26-.49-.23-.82l.23-.46c.24-.21.55-.29.92-.23l.05.05h3.13c.46-.09.93-.14,1.42-.14s.98-.02,1.46-.05l.05-.59v-2.45l.05-1.37-.05-.73.23-.46c.21-.18.49-.26.82-.23l.46.23c.21.37.32.78.32,1.24v1.37l-.05.05v2.49l-.05.37h3.61c.61.03,1.22.07,1.84.11s1.2.16,1.75.34c.18.24.26.53.23.87l-.23.46c-.24.18-.53.27-.87.27-.46-.09-.93-.15-1.43-.18-.5-.03-.99-.06-1.48-.09h-3.43v1.19l.14,1.51v3.25l.05.05v2.95h1.1l.05-.05h6.93c.24.03.46.12.64.27.18.21.26.49.23.82l-.23.46c-.24.18-.52.27-.82.27l-.05-.05h-6.61l-1.46.09h-3.11l-.05-.05h-2.29l-1.99.14h-2.2Z"/><path class="cls-1" d="m327.52,152.85c-.24-.03-.46-.12-.64-.27-.18-.21-.26-.49-.23-.82.09-.72.15-1.44.18-2.17v-2.61c.03-.24.12-.46.27-.64.21-.18.49-.26.82-.23l.46.23c.24.46.32.99.23,1.6h1.35l1.1-.14h4.03c.46.12.95.17,1.46.14l1.69-.05c.49.09,1,.13,1.53.11.53-.02,1.04.07,1.51.25.18.21.26.49.23.82l-.23.46c-.53.27-1.14.37-1.81.27-.46-.03-.92-.07-1.4-.11-.47-.05-.95-.05-1.44-.02l-1.01.05-.69-.14h-3.89c-.4.06-.8.11-1.21.14-.41.03-.84.03-1.28,0-.03.49-.05.99-.05,1.5s-.11.96-.32,1.36c-.21.15-.44.24-.69.27Zm15.88,13.89c-.24-.03-.46-.12-.64-.27l-.27-.32-.41-.41c-.55-.92-1.04-1.87-1.48-2.87-.43-1-.68-2.06-.74-3.19v-2.42l.14-1.1h-.14c-.52,0-1.02.05-1.51.14-.49.09-.99.12-1.51.09l-.82-.09h-4.58l-1.19.09-.05-.05h-1.94c-.24-.03-.46-.12-.64-.27-.18-.21-.26-.49-.23-.82l.23-.46.46-.23h2.13l.59.05.64-.09h4.67l1.69.09c.58-.09,1.17-.15,1.76-.18.59-.03,1.19-.09,1.78-.18l.46.23c.21.27.29.61.23,1.01-.18.61-.31,1.25-.37,1.92v2.15c.06.92.26,1.78.59,2.6.34.82.73,1.61,1.19,2.37l.14.05c0-.21.08-.41.23-.59.21-.18.49-.26.82-.23l.5.27c.21.27.29.59.23.96-.21.46-.47.88-.78,1.28-.34.3-.73.47-1.19.5Zm-12.79-1.6c-.24-.03-.46-.12-.64-.27-.18-.21-.26-.49-.23-.82l.23-.46c.4-.18.79-.36,1.17-.53.38-.17.76-.38,1.12-.64v-.09c-.4-.18-.76-.44-1.1-.78-.34-.34-.67-.66-1.01-.96-.18-.21-.26-.49-.23-.82l.23-.46c.21-.18.49-.26.82-.23.46.27.88.62,1.28,1.03.4.41.85.69,1.37.85.24-.37.46-.76.66-1.19.2-.43.48-.78.85-1.05l.59-.05.46.23c.18.21.26.49.23.82l-.23.46h-.09l-1.05,2.06,1.05.62c.21.18.46.35.73.5.18.21.26.49.23.82l-.23.46c-.24.18-.53.26-.87.23-.4-.15-.77-.37-1.12-.66-.35-.29-.72-.51-1.12-.66-.46.4-.95.73-1.46,1.01s-1.07.47-1.65.59Zm-.05-11.96l-.46-.23c-.21-.24-.31-.53-.27-.87l.23-.46c.4-.21.82-.32,1.28-.32s.92-.03,1.37-.09h2.97l.05-.05h2.15c.46-.03.85.06,1.19.27.18.21.26.49.23.82l-.23.46c-.37.24-.79.34-1.28.27l-.05-.05h-2.01l-.05.05h-2.97l-2.15.18Z"/><path class="cls-1" d="m76.62,66.54c.56.62.84,1.25.84,1.89s-.28,1.32-.84,1.94c-.62.56-1.33.84-2.16.84h-34.79c-2.58.09-5,1.26-7.26,3.52-2.29,2.29-3.43,5.12-3.43,8.49s1.14,6.2,3.43,8.49c2.4,2.35,5.19,3.52,8.36,3.52h18.96c2.4,0,4.72.47,6.95,1.41,2.17.94,4.02,2.18,5.54,3.74,1.64,1.58,2.93,3.46,3.87,5.63.91,2.17,1.36,4.41,1.36,6.73s-.46,4.56-1.36,6.73c-.94,2.17-2.23,4.05-3.87,5.63-1.53,1.55-3.37,2.8-5.54,3.74-2.2.94-4.15,1.41-5.85,1.41H25.99c-.85,0-1.55-.28-2.11-.84-.56-.56-.84-1.19-.84-1.89s.28-1.38.84-1.94c.62-.56,1.32-.84,2.11-.84h34.84c2.61-.09,5.01-1.26,7.21-3.52,2.32-2.29,3.47-5.12,3.47-8.49s-1.16-6.2-3.47-8.49c-2.32-2.35-5.09-3.52-8.31-3.52h-18.96c-2.43,0-4.75-.47-6.95-1.41-2.17-.91-4.03-2.16-5.59-3.74-1.67-1.61-2.95-3.49-3.83-5.63-.91-2.08-1.36-4.33-1.36-6.73,0-1.2.11-2.37.33-3.5.22-1.13.57-2.21,1.03-3.23.88-2.11,2.16-4,3.83-5.67,3.34-3.28,7.15-4.97,11.44-5.06l34.79-.04c.88,0,1.6.28,2.16.84Z"/><path class="cls-1" d="m89.77,130.23c-.85,0-1.55-.28-2.11-.84-.56-.56-.84-1.19-.84-1.89v-58.64c0-.7.28-1.33.84-1.89.56-.56,1.26-.84,2.11-.84s1.6.28,2.16.84c.56.56.84,1.19.84,1.89v50.5l9.68-11.79,15-18.3c.59-.62,1.28-.97,2.07-1.06h.35c.67,0,1.3.22,1.89.66.62.56.94,1.16.97,1.8v.31c0,.59-.19,1.11-.57,1.58l-13.64,16.63,13.64,16.63c.38.47.57,1,.57,1.58v.26c0,.12-.02.28-.04.48-.06.44-.37.89-.92,1.36-.59.44-1.22.66-1.89.66h-.31c-.15,0-.34-.02-.57-.04-.47-.03-.98-.37-1.54-1.01l-12.67-15.4-12.54,15.26c-.56.82-1.38,1.23-2.46,1.23Z"/><path class="cls-1" d="m166.35,88.97c.59.65.88,1.29.88,1.94v39.72c0,2.93-.54,5.63-1.63,8.09-.56,1.29-1.22,2.49-1.98,3.58-.76,1.1-1.61,2.13-2.55,3.1-1.91,1.94-4.16,3.46-6.77,4.57-2.58,1.11-5.35,1.67-8.31,1.67h-11.74c-.85,0-1.57-.29-2.16-.88-.53-.53-.79-1.14-.79-1.85s.26-1.36.79-1.89c.64-.59,1.36-.88,2.16-.88h11.74c2.05,0,4.03-.4,5.94-1.19,1.82-.79,3.45-1.91,4.88-3.34,1.35-1.35,2.45-3.01,3.3-4.97.79-1.85,1.19-3.86,1.19-6.03v-.4h-8.75c-2.93,0-5.69-.56-8.27-1.67-2.61-1.08-4.88-2.61-6.82-4.57-.97-.97-1.83-2-2.6-3.1-.76-1.1-1.41-2.29-1.94-3.58-1.08-2.58-1.63-8.08-1.63-16.5v-9.9c0-.7.26-1.32.79-1.85.59-.59,1.3-.88,2.16-.88s1.61.29,2.2.88c.53.53.79,1.14.79,1.85v8.93c0,8.42.4,13.55,1.19,15.4.85,1.97,1.95,3.62,3.3,4.97,1.44,1.44,3.08,2.55,4.93,3.34,1.79.79,3.75,1.19,5.89,1.19h8.75v-33.83c0-.7.26-1.32.79-1.85.59-.59,1.3-.88,2.16-.88s1.58.26,2.11.79Z"/><path class="cls-1" d="m176.03,92.84c-.56-.56-.84-1.19-.84-1.89s.28-1.38.84-1.94c.62-.56,1.32-.84,2.11-.84h12.05v-18.65c0-.73.28-1.38.84-1.94.62-.56,1.32-.84,2.11-.84s1.54.28,2.16.84c.56.62.84,1.26.84,1.94v18.65h12.01c.82,0,1.54.28,2.16.84.56.62.84,1.26.84,1.94s-.28,1.28-.84,1.89c-.56.56-1.28.84-2.16.84h-12.01v19.22c0,3.37,1.17,6.22,3.52,8.53,2.23,2.2,5.06,3.3,8.49,3.3.82,0,1.54.28,2.16.84.56.62.84,1.26.84,1.94s-.28,1.28-.84,1.89c-.56.56-1.28.84-2.16.84-2.61,0-4.97-.45-7.08-1.36-2.17-.88-4.08-2.11-5.72-3.69-3.43-3.37-5.15-7.46-5.15-12.27v-19.22h-12.05c-.85,0-1.55-.28-2.11-.84Z"/><path class="cls-1" d="m236.69,88.18c2.52,0,4.93.59,7.21,1.76,2.2,1.14,4.09,2.68,5.67,4.62,1.61,1.96,2.86,4.19,3.74,6.69.91,2.46,1.36,5.12,1.36,7.96s-.46,5.53-1.36,7.96c-.91,2.55-2.16,4.78-3.74,6.69-1.61,1.99-3.5,3.55-5.67,4.66-2.26,1.14-4.66,1.72-7.21,1.72s-4.97-.57-7.17-1.72c-2.2-1.14-4.11-2.7-5.72-4.66-1.61-1.99-2.86-4.22-3.74-6.69s-1.32-5.12-1.32-7.96.44-5.44,1.32-7.96c.44-1.26.97-2.44,1.61-3.54.63-1.1,1.34-2.15,2.13-3.15,1.55-1.91,3.46-3.45,5.72-4.62,2.26-1.17,4.65-1.76,7.17-1.76Zm8.36,9.85c-2.43-2.9-5.22-4.35-8.36-4.35s-5.94,1.45-8.31,4.35c-2.46,3.05-3.69,6.77-3.69,11.17s1.23,8.2,3.69,11.22c2.38,2.87,5.15,4.31,8.31,4.31,1.61,0,3.11-.37,4.49-1.1.7-.38,1.38-.84,2.02-1.39.64-.54,1.26-1.15,1.85-1.83,2.46-3.02,3.69-6.76,3.69-11.22s-1.23-8.12-3.69-11.17Z"/><path class="cls-1" d="m264.1,89.02c.56-.56,1.26-.84,2.11-.84s1.6.28,2.16.84c.56.56.84,1.2.84,1.94v28.42l9.68-11.83c.53-.62,1.22-.97,2.07-1.06h.26c.73,0,1.39.24,1.98.7l.4.4,9.68,11.79v-28.42c0-.73.28-1.38.84-1.94.56-.56,1.26-.84,2.11-.84s1.6.28,2.16.84c.56.56.84,1.2.84,1.94v37.43h-.04c0,.21-.32.59-.97,1.14-.59.47-1.25.7-1.98.7h-.29c-.13,0-.32-.02-.55-.04-.47-.03-.97-.38-1.5-1.06l-12.67-15.4-12.49,15.26c-.62.82-1.45,1.23-2.51,1.23-.85,0-1.55-.28-2.11-.84-.56-.56-.84-1.19-.84-1.89v-36.55c0-.73.28-1.38.84-1.94Z"/><path class="cls-1" d="m314.55,129.4c-.56.56-1.28.84-2.16.84s-1.55-.28-2.11-.84c-.56-.56-.84-1.19-.84-1.89v-36.55c0-.73.28-1.38.84-1.94.62-.56,1.32-.84,2.11-.84h15c2.52,0,4.87.48,7.04,1.45,2.17.91,4.06,2.17,5.67,3.78,1.73,1.73,3.02,3.62,3.87,5.67.94,2.2,1.41,4.49,1.41,6.86v21.55c0,.65-.28,1.28-.84,1.89-.56.56-1.28.84-2.16.84s-1.55-.28-2.11-.84c-.56-.56-.84-1.19-.84-1.89v-21.55c0-3.43-1.17-6.32-3.52-8.67-2.4-2.4-5.25-3.61-8.53-3.61h-12.01v33.83c0,.65-.28,1.28-.84,1.89Z"/></g></g></g></svg>